<?xml version="1.0" encoding="iso-8859-1"?>
<!-- Generator: Adobe Illustrator 19.0.0, SVG Export Plug-In . SVG Version: 6.00 Build 0)  -->
<svg version="1.1" id="Capa_1" xmlns="http://www.w3.org/2000/svg" xmlns:xlink="http://www.w3.org/1999/xlink" x="0px" y="0px"
	 viewBox="0 0 433.633 433.633" style="enable-background:new 0 0 433.633 433.633;" xml:space="preserve">
<g>
	<g>
		<g>
			<rect x="320.784" y="355.788" style="fill:#87E680;" width="95.608" height="60.604"/>
			<rect x="320.784" y="125.91" style="fill:#87E680;" width="95.608" height="60.604"/>
		</g>
		<rect x="17.763" y="125.91" style="fill:#00EFD1;" width="247.118" height="177.11"/>
		<rect x="320.784" y="240.849" style="fill:#46C43D;" width="95.608" height="60.604"/>
		<rect x="17.763" y="10.971" style="fill:#00ACEA;" width="398.629" height="60.604"/>
	</g>
	<g>
		<path style="fill:#083863;" d="M416.392,81.502H17.241c-5.474,0.297-10.152-3.901-10.449-9.375c-0.019-0.358-0.019-0.716,0-1.074
			V10.449C6.792,4.678,11.47,0,17.241,0h399.151c5.771,0,10.449,4.678,10.449,10.449v60.604c0.297,5.474-3.901,10.152-9.375,10.449
			C417.108,81.521,416.75,81.521,416.392,81.502z M27.69,60.604h378.253V20.898H27.69L27.69,60.604z"/>
		<path style="fill:#083863;" d="M416.392,196.441h-96.131c-5.474,0.297-10.152-3.901-10.449-9.375
			c-0.019-0.358-0.019-0.716,0-1.074v-60.604c0-5.771,4.678-10.449,10.449-10.449h96.131c5.771,0,10.449,4.678,10.449,10.449v60.604
			c0.297,5.474-3.901,10.152-9.375,10.449C417.108,196.46,416.75,196.46,416.392,196.441z M330.71,175.543h75.233v-39.706H330.71
			L330.71,175.543z"/>
		<path style="fill:#083863;" d="M416.392,311.38h-96.131c-5.474,0.297-10.152-3.901-10.449-9.375c-0.019-0.358-0.019-0.716,0-1.074
			v-60.604c0-5.771,4.678-10.449,10.449-10.449h96.131c5.771,0,10.449,4.678,10.449,10.449v60.604
			c0.297,5.474-3.901,10.152-9.375,10.449C417.108,311.399,416.75,311.399,416.392,311.38z M330.71,290.482h75.233v-39.706H330.71
			L330.71,290.482z"/>
		<path style="fill:#083863;" d="M416.392,426.318h-96.131c-5.474,0.297-10.152-3.901-10.449-9.375
			c-0.019-0.358-0.019-0.716,0-1.074v-60.604c0-5.771,4.678-10.449,10.449-10.449h96.131c5.771,0,10.449,4.678,10.449,10.449v60.604
			c0.297,5.474-3.901,10.152-9.375,10.449C417.108,426.338,416.75,426.338,416.392,426.318z M330.71,405.42h75.233v-39.706H330.71
			L330.71,405.42z"/>
		<path style="fill:#083863;" d="M264.882,313.469H17.241c-5.771,0-10.449-4.678-10.449-10.449V125.388
			c0-5.771,4.678-10.449,10.449-10.449h247.641c5.771,0,10.449,4.678,10.449,10.449V303.02
			C275.331,308.791,270.652,313.469,264.882,313.469z M27.69,292.571h226.743V135.837H27.69L27.69,292.571z"/>
		<path style="fill:#083863;" d="M176.065,381.388H17.241c-5.771,0-10.449-4.678-10.449-10.449
			c-0.297-5.474,3.901-10.152,9.375-10.449c0.358-0.019,0.716-0.019,1.074,0h158.824c5.474-0.297,10.152,3.901,10.449,9.375
			c0.019,0.358,0.019,0.716,0,1.074C186.514,376.71,181.836,381.388,176.065,381.388z"/>
		<path style="fill:#083863;" d="M259.657,433.633H17.241c-5.771,0-10.449-4.678-10.449-10.449
			c-0.297-5.474,3.901-10.152,9.375-10.449c0.358-0.019,0.716-0.019,1.074,0h242.416c5.474-0.297,10.152,3.901,10.449,9.375
			c0.019,0.358,0.019,0.716,0,1.074C270.106,428.954,265.428,433.633,259.657,433.633z"/>
	</g>
</g>
<g>
</g>
<g>
</g>
<g>
</g>
<g>
</g>
<g>
</g>
<g>
</g>
<g>
</g>
<g>
</g>
<g>
</g>
<g>
</g>
<g>
</g>
<g>
</g>
<g>
</g>
<g>
</g>
<g>
</g>
</svg>
