<?xml version="1.0" encoding="iso-8859-1"?>
<!-- Generator: Adobe Illustrator 19.0.0, SVG Export Plug-In . SVG Version: 6.00 Build 0)  -->
<svg version="1.1" id="Capa_1" xmlns="http://www.w3.org/2000/svg" xmlns:xlink="http://www.w3.org/1999/xlink" x="0px" y="0px"
	 viewBox="0 0 474.384 474.384" style="enable-background:new 0 0 474.384 474.384;" xml:space="preserve">
<g>
	<g>
		<path style="fill:#00EFD1;" d="M375.609,165.616c13.837,26.417,8.976,58.753-12.016,79.935
			c-12.653,12.882-30.01,20.051-48.065,19.853c-18.033,0.079-35.345-7.072-48.065-19.853
			c-21.151-21.102-26.028-53.547-12.016-79.935l60.082-113.894L375.609,165.616z"/>
		<path style="fill:#00EFD1;" d="M141.029,74.188c7.977,14.646,5.198,32.815-6.792,44.408c-6.88,7.019-16.294,10.973-26.122,10.971
			c-10.134-0.006-19.871-3.939-27.167-10.971c-11.825-11.677-14.586-29.73-6.792-44.408l33.437-63.739L141.029,74.188z"/>
	</g>
	<g>
		<path style="fill:#083863;" d="M315.527,275.853c-20.824,0.218-40.832-8.087-55.38-22.988l0,0
			c-24.513-24.161-30.249-61.553-14.106-91.951L306.123,47.02c2.515-5.194,8.765-7.365,13.959-4.849
			c2.116,1.025,3.825,2.733,4.849,4.849l60.082,113.894c16.143,30.398,10.407,67.79-14.106,91.951
			C356.359,267.766,336.351,276.072,315.527,275.853z M274.776,238.237c22.181,22.702,58.566,23.125,81.269,0.944
			c18.484-18.059,22.641-46.235,10.16-68.863l-50.678-96.131l-50.678,96.131C252.967,192.695,256.986,220.197,274.776,238.237z"/>
		<path style="fill:#083863;" d="M108.115,140.016c-12.934,0.185-25.385-4.909-34.482-14.106l0,0
			c-15.188-14.736-18.808-37.736-8.882-56.424L98.189,5.747c1.875-3.465,5.465-5.659,9.404-5.747l0,0
			c3.939,0.088,7.529,2.282,9.404,5.747l33.437,63.739c9.927,18.689,6.306,41.689-8.882,56.424
			C132.812,134.998,120.723,140.098,108.115,140.016z M88.262,111.282c5.336,5.111,12.464,7.925,19.853,7.837
			c7.084,0.103,13.893-2.735,18.808-7.837c8.464-8.616,10.367-21.725,4.702-32.392l-24.033-45.976L83.56,78.89
			C77.717,89.525,79.636,102.746,88.262,111.282z"/>
		<path style="fill:#083863;" d="M285.225,474.384c-27.69,0-41.273-15.673-53.29-29.78c-12.016-14.106-19.853-22.465-37.616-22.465
			s-26.645,9.927-37.616,22.465s-25.6,29.78-53.29,29.78s-41.273-15.673-53.29-29.78c-5.964-7.494-13.218-13.864-21.42-18.808
			c-5.194-2.597-7.299-8.912-4.702-14.106c2.597-5.194,8.912-7.299,14.106-4.702c10.801,5.998,20.232,14.183,27.69,24.033
			c10.971,12.539,19.853,22.465,37.616,22.465s26.645-9.927,37.616-22.465c10.971-12.539,25.6-29.78,53.29-29.78
			s41.273,15.673,53.29,29.78c12.016,14.106,19.853,22.465,37.616,22.465s26.645-9.927,37.616-22.465
			c10.971-12.539,25.6-29.78,53.29-29.78c27.69,0,41.796,16.196,53.29,29.257c4.801,6.472,10.624,12.119,17.241,16.718
			c4.905,3.174,6.309,9.723,3.135,14.629c-3.174,4.905-9.723,6.309-14.629,3.135c-8.112-5.691-15.332-12.558-21.42-20.376
			c-10.971-12.539-19.853-22.465-37.616-22.465s-26.645,9.927-37.616,22.465C327.544,457.143,312.915,474.384,285.225,474.384z"/>
		<path style="fill:#083863;" d="M285.225,385.567c-27.69,0-41.273-15.673-53.29-29.78c-12.016-14.106-19.853-22.465-37.616-22.465
			s-26.645,9.927-37.616,22.465s-25.6,29.78-53.29,29.78s-41.273-15.673-53.29-29.78c-5.964-7.494-13.218-13.864-21.42-18.808
			c-5.194-2.597-7.299-8.912-4.702-14.106c2.597-5.194,8.912-7.299,14.106-4.702l0,0c10.801,5.998,20.232,14.183,27.69,24.033
			c10.971,12.539,19.853,22.465,37.616,22.465s26.645-9.927,37.616-22.465s25.6-29.78,53.29-29.78s41.273,15.673,53.29,29.78
			c12.016,14.106,19.853,22.465,37.616,22.465s26.645-9.927,37.616-22.465s25.6-29.78,53.29-29.78
			c27.69,0,41.796,16.196,53.29,29.257c4.801,6.472,10.624,12.119,17.241,16.718c4.905,3.174,6.309,9.723,3.135,14.629
			c-3.174,4.905-9.723,6.309-14.629,3.135c-8.112-5.691-15.332-12.558-21.42-20.376c-10.971-12.539-19.853-22.465-37.616-22.465
			s-26.645,9.927-37.616,22.465C327.544,368.327,312.915,385.567,285.225,385.567z"/>
	</g>
</g>
<g>
</g>
<g>
</g>
<g>
</g>
<g>
</g>
<g>
</g>
<g>
</g>
<g>
</g>
<g>
</g>
<g>
</g>
<g>
</g>
<g>
</g>
<g>
</g>
<g>
</g>
<g>
</g>
<g>
</g>
</svg>
