<?xml version="1.0" encoding="iso-8859-1"?>
<!-- Generator: Adobe Illustrator 19.0.0, SVG Export Plug-In . SVG Version: 6.00 Build 0)  -->
<svg version="1.1" id="Capa_1" xmlns="http://www.w3.org/2000/svg" xmlns:xlink="http://www.w3.org/1999/xlink" x="0px" y="0px"
	 viewBox="0 0 458.71 458.71" style="enable-background:new 0 0 458.71 458.71;" xml:space="preserve">
<g>
	<path style="fill:#00EFD1;" d="M297.796,188.083c8.175,15.55,11.108,33.326,8.359,50.678c-1.704,8.586-4.699,16.865-8.882,24.555
		c-3.748,6.798-8.309,13.113-13.584,18.808c-15.09,15.177-35.545,23.81-56.947,24.033c-21.39-0.279-41.825-8.902-56.947-24.033
		c-5.092-5.341-9.481-11.311-13.061-17.763c-4.491-7.736-7.502-16.24-8.882-25.078c-3.143-17.463-0.386-35.476,7.837-51.2
		l71.053-103.445L297.796,188.083z"/>
	<g>
		<path style="fill:#083863;" d="M317.649,229.356c0.521-16.135-3.075-32.137-10.449-46.498l-1.045-1.045L235.624,78.891
			c-1.963-2.982-5.312-4.755-8.882-4.702c-3.436-0.078-6.641,1.725-8.359,4.702l-71.053,102.922
			c-0.302,0.268-0.489,0.642-0.522,1.045c-7.869,14.555-11.49,31.029-10.449,47.543C50.678,242.94,0,270.107,0,304.067
			c0,52.245,118.073,80.457,229.355,80.457s229.355-28.212,229.355-80.457C458.71,263.316,387.135,239.283,317.649,229.356z
			 M151.51,276.377c3.08,4.808,6.768,9.198,10.971,13.061c35.497,35.476,93.026,35.476,128.522,0
			c4.264-4.332,8.112-9.055,11.494-14.106c34.482,7.314,50.155,18.808,50.155,25.078c0,6.269-43.363,32.392-123.298,32.392
			s-123.298-21.42-123.298-32.392S118.596,284.213,151.51,276.377z M164.571,193.307l62.171-90.384l62.171,90.384
			c6.926,13.329,9.311,28.555,6.792,43.363c-1.324,7.64-3.79,15.037-7.314,21.943l0,0c-3.233,5.931-7.277,11.382-12.016,16.196
			c-13.082,13.264-31.005,20.622-49.633,20.376c-18.471,0.225-36.224-7.141-49.11-20.376c-4.731-4.626-8.778-9.904-12.016-15.673
			c-3.691-6.883-6.333-14.279-7.837-21.943C155.259,222.215,157.641,206.823,164.571,193.307z M229.355,363.626
			c-129.045,0-208.457-34.482-208.457-59.559s40.751-41.796,118.596-53.29c0.931,2.004,1.632,4.107,2.09,6.269
			c-36.571,9.927-56.424,25.078-56.424,43.363c0,35.004,72.62,53.29,144.196,53.29s144.196-18.286,144.196-53.29
			c0-19.331-21.42-35.004-61.649-44.408c0.924-1.825,1.625-3.755,2.09-5.747c80.457,10.971,123.82,35.527,123.82,53.812
			S358.4,363.626,229.355,363.626z"/>
		<path style="fill:#083863;" d="M249.731,276.377c-3.2,0.126-6.28-1.222-8.359-3.657c-3.581-4.48-2.881-11.009,1.567-14.629
			c13.22-10.13,15.786-29.03,5.747-42.318c-3.462-4.617-2.527-11.166,2.09-14.629c4.617-3.462,11.166-2.527,14.629,2.09
			c17.024,22.216,12.816,54.026-9.4,71.05c-0.001,0.001-0.003,0.002-0.004,0.003C254.21,275.679,251.998,276.417,249.731,276.377z"
			/>
	</g>
</g>
<g>
</g>
<g>
</g>
<g>
</g>
<g>
</g>
<g>
</g>
<g>
</g>
<g>
</g>
<g>
</g>
<g>
</g>
<g>
</g>
<g>
</g>
<g>
</g>
<g>
</g>
<g>
</g>
<g>
</g>
</svg>
