<?xml version="1.0" encoding="iso-8859-1"?>
<!-- Generator: Adobe Illustrator 19.0.0, SVG Export Plug-In . SVG Version: 6.00 Build 0)  -->
<svg version="1.1" id="Capa_1" xmlns="http://www.w3.org/2000/svg" xmlns:xlink="http://www.w3.org/1999/xlink" x="0px" y="0px"
	 viewBox="0 0 407.51 407.51" style="enable-background:new 0 0 407.51 407.51;" xml:space="preserve">
<g>
	<g>
		<polygon style="fill:#00ACEA;" points="254.955,258.612 154.645,317.127 154.645,200.098 		"/>
		<path style="fill:#00EFD1;" d="M397.061,158.302v200.62c0,20.198-16.374,36.571-36.571,36.571H47.02
			c-20.198,0-36.571-16.374-36.571-36.571v-200.62c0-20.198,16.374-36.571,36.571-36.571H360.49
			C380.688,121.731,397.061,138.104,397.061,158.302z M154.645,317.127l100.31-58.514l-100.31-58.514V317.127z"/>
	</g>
	<g>
		<path style="fill:#083863;" d="M155.167,327.576c-1.863,0.038-3.691-0.51-5.224-1.567c-3.353-1.658-5.404-5.146-5.224-8.882
			V200.098c-0.18-3.736,1.872-7.224,5.224-8.882c3.163-2.113,7.286-2.113,10.449,0l99.788,58.514
			c4.905,2.448,6.897,8.41,4.449,13.315c-0.961,1.926-2.523,3.487-4.449,4.449l-99.788,58.514L155.167,327.576z M165.616,218.384
			v80.457l68.441-40.229L165.616,218.384z"/>
		<path style="fill:#083863;" d="M360.49,405.943H47.02c-25.969,0-47.02-21.052-47.02-47.02v-200.62
			c0-25.969,21.052-47.02,47.02-47.02H360.49c25.969,0,47.02,21.052,47.02,47.02v200.62
			C407.51,384.891,386.458,405.943,360.49,405.943z M47.02,132.18c-14.427,0-26.122,11.695-26.122,26.122v200.62
			c0,14.427,11.695,26.122,26.122,26.122H360.49c14.427,0,26.122-11.695,26.122-26.122v-200.62
			c0-14.427-11.695-26.122-26.122-26.122H47.02z"/>
		<path style="fill:#083863;" d="M354.22,77.322H53.812c-5.771,0-10.449-4.678-10.449-10.449c0-5.771,4.678-10.449,10.449-10.449
			H354.22c5.771,0,10.449,4.678,10.449,10.449C364.669,72.644,359.991,77.322,354.22,77.322z"/>
		<path style="fill:#083863;" d="M309.29,22.465H98.22c-5.771,0-10.449-4.678-10.449-10.449S92.45,1.567,98.22,1.567H309.29
			c5.771,0,10.449,4.678,10.449,10.449S315.061,22.465,309.29,22.465z"/>
	</g>
</g>
<g>
</g>
<g>
</g>
<g>
</g>
<g>
</g>
<g>
</g>
<g>
</g>
<g>
</g>
<g>
</g>
<g>
</g>
<g>
</g>
<g>
</g>
<g>
</g>
<g>
</g>
<g>
</g>
<g>
</g>
</svg>
