<?xml version="1.0" encoding="iso-8859-1"?>
<!-- Generator: Adobe Illustrator 19.0.0, SVG Export Plug-In . SVG Version: 6.00 Build 0)  -->
<svg version="1.1" id="Capa_1" xmlns="http://www.w3.org/2000/svg" xmlns:xlink="http://www.w3.org/1999/xlink" x="0px" y="0px"
	 viewBox="0 0 491.183 491.183" style="enable-background:new 0 0 491.183 491.183;" xml:space="preserve">
<g>
	<path style="fill:#00EFD1;" d="M183.421,349.599c-0.207-10.758-4.504-21.032-12.016-28.735
		c-7.629-7.56-17.996-11.707-28.735-11.494c-10.717-0.096-21.041,4.033-28.735,11.494c-7.194,7.865-11.279,18.079-11.494,28.735
		c-0.207-10.758-4.504-21.032-12.016-28.735c-7.629-7.56-17.996-11.707-28.735-11.494c-10.717-0.096-21.041,4.033-28.735,11.494
		c-5.193,7.476-9.079,15.779-11.494,24.555c0-89.448,72.512-161.959,161.959-161.959s161.959,72.512,161.959,161.959
		c-2.45-8.859-6.524-17.185-12.016-24.555c-7.629-7.56-17.996-11.707-28.735-11.494c-10.717-0.096-21.041,4.033-28.735,11.494
		c-7.367,7.755-11.48,18.039-11.494,28.735c-0.207-10.758-4.504-21.032-12.016-28.735c-7.629-7.56-17.996-11.707-28.735-11.494
		c-10.717-0.096-21.041,4.033-28.735,11.494C187.548,328.619,183.435,338.903,183.421,349.599z"/>
	<g>
		<path style="fill:#083863;" d="M183.421,173.534c-45.648-0.216-89.484,17.845-121.731,50.155
			c-32.652,32.059-50.933,75.972-50.678,121.731c-0.059,5.21,3.73,9.668,8.882,10.449c5.327,0.958,10.44-2.528,11.494-7.837
			c1.942-7.12,5.125-13.84,9.404-19.853c5.634-5.366,13.117-8.359,20.898-8.359c7.922,0.073,15.543,3.047,21.42,8.359
			c5.684,5.68,8.878,13.385,8.882,21.42c0,5.771,4.678,10.449,10.449,10.449c5.771,0,10.449-4.678,10.449-10.449
			c0.073-7.922,3.047-15.543,8.359-21.42c12.151-11.03,30.69-11.03,42.841,0c5.684,5.68,8.878,13.385,8.882,21.42v108.669
			c-0.126,8.777,3.26,17.241,9.404,23.51c6.389,5.959,14.775,9.313,23.51,9.404c18.178,0,32.914-14.736,32.914-32.914l0,0
			c0-5.771-4.678-10.449-10.449-10.449c-5.771,0-10.449,4.678-10.449,10.449c0,6.636-5.38,12.016-12.016,12.016c0,0,0,0,0,0
			c-3.352,0.136-6.597-1.2-8.882-3.657c-2.08-2.28-3.202-5.274-3.135-8.359V349.599c-0.291-16.156,12.57-29.488,28.725-29.78
			c0.351-0.006,0.703-0.006,1.054,0c7.922,0.073,15.543,3.047,21.42,8.359c5.684,5.68,8.878,13.385,8.882,21.42
			c0,5.771,4.678,10.449,10.449,10.449s10.449-4.678,10.449-10.449c-0.588-15.859,11.792-29.192,27.65-29.78
			c0.71-0.026,1.42-0.026,2.129,0c7.922,0.073,15.543,3.047,21.42,8.359c4.202,6.18,7.214,13.09,8.882,20.375
			c1.497,4.944,6.381,8.052,11.494,7.314c5.359-0.539,9.431-5.063,9.404-10.449C355.542,250.405,278.436,173.534,183.421,173.534z
			 M304.63,298.922c-13.473-0.057-26.425,5.199-36.049,14.629c-1.672,1.499-3.084,3.265-4.18,5.225l-4.18-5.225h-0.522
			c-20.102-19.645-52.283-19.412-72.098,0.522c-1.567,1.567-3.135,4.702-4.18,4.702l0,0c-1.567,0-2.612-3.135-4.18-4.702
			c0-0.289-0.234-0.522-0.522-0.522c-9.525-9.579-22.543-14.861-36.049-14.629c-13.473-0.057-26.425,5.199-36.049,14.629
			c-1.672,1.499-3.084,3.265-4.18,5.225l-4.18-5.225H97.74c-9.525-9.579-22.543-14.861-36.049-14.629
			c-8.346,0.044-16.569,2.011-24.033,5.747c22.971-80.462,106.821-127.067,187.282-104.096
			c50.543,14.43,89.996,54.024,104.244,104.618C321.689,300.989,313.222,298.827,304.63,298.922z"/>
		<path style="fill:#083863;" d="M411.732,117.109c-2.756-0.039-5.385-1.166-7.314-3.135c-4.04-3.706-4.31-9.986-0.603-14.025
			c0.192-0.21,0.394-0.411,0.603-0.603l21.943-22.465c3.706-4.04,9.986-4.31,14.025-0.603c0.21,0.192,0.411,0.394,0.603,0.603
			c4.047,4.24,4.047,10.911,0,15.151l-21.943,21.943C417.117,115.944,414.488,117.07,411.732,117.109z"/>
		<path style="fill:#083863;" d="M333.887,194.432c-2.756-0.039-5.385-1.166-7.314-3.135c-4.04-3.706-4.31-9.986-0.603-14.025
			c0.192-0.21,0.394-0.411,0.603-0.603l55.38-55.38c4.24-4.047,10.911-4.047,15.151,0c3.725,4.165,3.725,10.464,0,14.629
			l-55.38,55.38C339.668,193.398,336.823,194.536,333.887,194.432z"/>
		<path style="fill:#083863;" d="M385.609,69.044c-2.756-0.039-5.385-1.166-7.314-3.135c-4.04-3.706-4.31-9.986-0.603-14.025
			c0.192-0.21,0.394-0.411,0.603-0.603l10.971-10.971c4.24-4.047,10.911-4.047,15.151,0c4.04,3.706,4.31,9.986,0.603,14.025
			c-0.192,0.21-0.394,0.411-0.603,0.603l-10.971,10.971C391.391,68.01,388.546,69.148,385.609,69.044z"/>
		<path style="fill:#083863;" d="M282.164,172.489c-2.756-0.039-5.385-1.166-7.314-3.135c-4.04-3.706-4.31-9.986-0.603-14.025
			c0.192-0.21,0.394-0.411,0.603-0.603l26.122-26.122c3.706-4.04,9.986-4.31,14.025-0.603c0.21,0.192,0.411,0.394,0.603,0.603
			c4.047,4.24,4.047,10.911,0,15.151l-25.6,25.6C287.946,171.455,285.101,172.593,282.164,172.489z"/>
		<path style="fill:#083863;" d="M330.229,124.424c-2.756-0.039-5.385-1.166-7.314-3.135c-4.04-3.706-4.31-9.986-0.603-14.025
			c0.192-0.21,0.394-0.411,0.603-0.603l33.437-33.437c3.706-4.04,9.986-4.31,14.025-0.603c0.21,0.192,0.411,0.394,0.603,0.603
			c4.047,4.24,4.047,10.911,0,15.151l-33.437,32.914C335.69,123.365,333.011,124.513,330.229,124.424z"/>
		<path style="fill:#083863;" d="M337.544,42.922c-2.653-0.075-5.214-0.989-7.314-2.612c-4.047-4.24-4.047-10.911,0-15.151
			l22.465-21.943c3.706-4.04,9.986-4.31,14.025-0.603c0.21,0.192,0.411,0.394,0.603,0.603c4.04,3.706,4.31,9.986,0.603,14.025
			c-0.192,0.21-0.394,0.411-0.603,0.603l-21.943,22.465C343.12,42.005,340.37,42.922,337.544,42.922z"/>
		<path style="fill:#083863;" d="M260.221,120.767c-2.756-0.039-5.385-1.166-7.314-3.135c-4.04-3.706-4.31-9.986-0.603-14.025
			c0.192-0.21,0.394-0.411,0.603-0.603l55.38-55.38c4.617-3.462,11.166-2.527,14.629,2.09c2.786,3.715,2.786,8.824,0,12.539
			l-55.38,55.38C265.606,119.601,262.977,120.727,260.221,120.767z"/>
		<path style="fill:#083863;" d="M459.797,142.709c-2.756-0.039-5.385-1.166-7.314-3.135c-4.04-3.706-4.31-9.986-0.603-14.025
			c0.192-0.21,0.394-0.411,0.603-0.603l10.971-10.971c4.617-3.463,11.166-2.527,14.629,2.09c2.786,3.715,2.786,8.824,0,12.539
			l-10.971,10.971C465.182,141.544,462.553,142.67,459.797,142.709z"/>
		<path style="fill:#083863;" d="M356.352,246.154c-2.756-0.039-5.385-1.166-7.314-3.135c-4.04-3.706-4.31-9.986-0.603-14.025
			c0.192-0.21,0.394-0.411,0.603-0.603l25.6-25.6c4.617-3.463,11.166-2.527,14.629,2.09c2.786,3.715,2.786,8.824,0,12.539
			l-25.6,25.6C361.737,244.988,359.108,246.115,356.352,246.154z"/>
		<path style="fill:#083863;" d="M404.417,198.089c-2.667,0.004-5.253-0.919-7.314-2.612c-4.047-4.24-4.047-10.911,0-15.151
			l32.914-32.914c4.24-4.047,10.911-4.047,15.151,0c3.725,4.165,3.725,10.464,0,14.629l-33.437,33.437
			C409.631,197.1,407.07,198.014,404.417,198.089z"/>
	</g>
</g>
<g>
</g>
<g>
</g>
<g>
</g>
<g>
</g>
<g>
</g>
<g>
</g>
<g>
</g>
<g>
</g>
<g>
</g>
<g>
</g>
<g>
</g>
<g>
</g>
<g>
</g>
<g>
</g>
<g>
</g>
</svg>
