<?xml version="1.0" encoding="iso-8859-1"?>
<!-- Generator: Adobe Illustrator 19.0.0, SVG Export Plug-In . SVG Version: 6.00 Build 0)  -->
<svg version="1.1" id="Capa_1" xmlns="http://www.w3.org/2000/svg" xmlns:xlink="http://www.w3.org/1999/xlink" x="0px" y="0px"
	 viewBox="0 0 480.664 480.664" style="enable-background:new 0 0 480.664 480.664;" xml:space="preserve">
<g>
	<g>
		<g>
			<path style="fill:#00ACEA;" d="M329.671,90.39c6.845,7.563,6.845,19.082,0,26.645c-6.802,7.069-18.047,7.286-25.116,0.484
				c-0.164-0.158-0.326-0.319-0.484-0.484c-6.845-7.563-6.845-19.082,0-26.645l13.061-13.584L329.671,90.39z"/>
			<path style="fill:#00ACEA;" d="M262.797,30.309c10.426,11.383,10.426,28.846,0,40.229c-9.433,10.532-25.617,11.423-36.149,1.99
				c-0.699-0.626-1.363-1.29-1.99-1.99c-10.426-11.383-10.426-28.846,0-40.229l18.808-20.376L262.797,30.309z"/>
			<path style="fill:#00ACEA;" d="M188.087,98.227c9.506,10.538,9.506,26.556,0,37.094c-9.096,9.666-24.306,10.128-33.972,1.032
				c-0.355-0.334-0.699-0.678-1.032-1.032c-9.506-10.538-9.506-26.556,0-37.094l17.763-18.286L188.087,98.227z"/>
		</g>
		<path style="fill:#00EFD1;" d="M390.275,310.864c-7.576-7.701-17.932-12.032-28.735-12.016
			c-10.78,0.099-21.093,4.412-28.735,12.016c-7.322,7.783-11.428,18.049-11.494,28.735c-0.282-22.388-18.363-40.469-40.751-40.751
			c-10.78,0.099-21.093,4.412-28.735,12.016c-7.322,7.783-11.428,18.049-11.494,28.735c0.289-22.216-17.487-40.459-39.703-40.748
			c-0.175-0.002-0.351-0.003-0.526-0.003c-10.827-0.137-21.228,4.213-28.735,12.016c-7.701,7.576-12.032,17.932-12.016,28.735
			c0.213-10.739-3.934-21.105-11.494-28.735c-7.702-7.513-17.977-11.809-28.735-12.016c-10.827-0.137-21.228,4.213-28.735,12.016
			c-7.314,7.314-12.016,24.555-12.016,24.555c0-89.448,72.512-161.959,161.959-161.959s161.959,72.512,161.959,161.959
			C402.291,335.419,397.589,318.178,390.275,310.864z"/>
	</g>
	<g>
		<path style="fill:#083863;" d="M240.332,163.011c-95.099,0.287-172.121,77.309-172.408,172.408
			c0.199,5.298,4.157,9.695,9.404,10.449c5.209,0.461,10.02-2.819,11.494-7.837c1.564-7.158,4.588-13.916,8.882-19.853
			c5.576-5.838,13.35-9.061,21.42-8.882c8.013,0.114,15.678,3.292,21.42,8.882c5.312,5.878,8.286,13.498,8.359,21.42
			c0,5.771,4.678,10.449,10.449,10.449c5.771,0,10.449-4.678,10.449-10.449c-0.116-8.059,3.097-15.808,8.882-21.42
			c11.573-11.686,30.428-11.777,42.114-0.204c0.068,0.068,0.136,0.136,0.204,0.204c5.684,5.68,8.878,13.385,8.882,21.42v108.669
			c0.12,8.575,3.479,16.788,9.404,22.988c6.269,6.144,14.733,9.53,23.51,9.404c17.887,0.289,32.622-13.978,32.91-31.865
			c0.003-0.176,0.004-0.351,0.004-0.527c0-5.771-4.678-10.449-10.449-10.449c-5.771,0-10.449,4.678-10.449,10.449
			c0.007,6.348-5.134,11.499-11.482,11.506c-0.178,0-0.356-0.004-0.534-0.012c-3.086,0.067-6.079-1.055-8.359-3.135
			c-2.435-2.079-3.783-5.16-3.657-8.359V339.598c-0.116-8.059,3.097-15.808,8.882-21.42c5.415-5.757,12.995-8.979,20.898-8.882
			c16.735,0,30.302,13.567,30.302,30.302c0,5.771,4.678,10.449,10.449,10.449s10.449-4.678,10.449-10.449
			c-0.027-7.941,2.96-15.597,8.359-21.42c11.832-11.825,31.009-11.825,42.841,0c4.197,5.992,7.212,12.73,8.882,19.853
			c1.474,5.018,6.284,8.298,11.494,7.837c5.247-0.754,9.205-5.151,9.404-10.449C412.74,240.2,335.55,163.011,240.332,163.011z
			 M361.54,288.398c-13.536,0.138-26.478,5.578-36.049,15.151l-4.18,4.702l-4.18-4.702c0-0.289-0.234-0.522-0.522-0.522
			c-9.655-9.382-22.587-14.63-36.049-14.629c-13.596-0.158-26.648,5.328-36.049,15.151c-1.567,1.567-3.135,4.702-4.18,4.702l0,0
			c-1.045,0-2.612-3.135-4.18-4.702c0-0.289-0.234-0.522-0.522-0.522c-20.102-19.645-52.283-19.412-72.098,0.522l-4.18,4.702
			l-4.18-4.702c0-0.289-0.234-0.522-0.522-0.522c-9.525-9.257-22.245-14.495-35.527-14.629c-8.593-0.094-17.06,2.067-24.555,6.269
			c6.818-25.136,20.155-48.025,38.661-66.351c59.249-59.088,155.18-58.957,214.268,0.292c18.305,18.355,31.595,41.1,38.598,66.059
			C378.6,290.466,370.133,288.304,361.54,288.398z"/>
		<path style="fill:#083863;" d="M170.324,153.084L170.324,153.084c-9.403,0.145-18.39-3.871-24.555-10.971
			c-13.667-14.331-13.667-36.869,0-51.2l17.241-18.286c4.24-4.047,10.911-4.047,15.151,0l17.241,18.286
			c13.667,14.331,13.667,36.869,0,51.2C189.118,149.356,179.908,153.386,170.324,153.084z M170.324,95.092l-9.404,10.449
			c-5.781,6.373-5.781,16.093,0,22.465c2.431,2.621,5.829,4.132,9.404,4.18l0,0c3.731-0.025,7.301-1.528,9.927-4.18
			c5.781-6.373,5.781-16.093,0-22.465L170.324,95.092z"/>
		<path style="fill:#083863;" d="M243.467,89.345L243.467,89.345c-10.061-0.113-19.658-4.253-26.645-11.494
			c-14.15-15.548-14.15-39.309,0-54.857l19.331-19.853c1.929-1.969,4.558-3.095,7.314-3.135l0,0
			c2.937-0.104,5.782,1.034,7.837,3.135l18.808,19.853c14.662,15.347,14.662,39.51,0,54.857
			C263.232,85.246,253.566,89.416,243.467,89.345z M243.467,25.607l-10.971,12.016c-6.773,7.39-6.773,18.732,0,26.122
			c2.781,3.114,6.799,4.835,10.971,4.702l0,0c4.327,0.147,8.51-1.564,11.494-4.702c6.773-7.39,6.773-18.732,0-26.122L243.467,25.607
			z"/>
		<path style="fill:#083863;" d="M316.609,132.709L316.609,132.709c-7.566-0.067-14.761-3.286-19.853-8.882
			c-11.015-11.351-11.015-29.4,0-40.751l12.539-13.584c1.929-1.969,4.558-3.095,7.314-3.135h0.522
			c2.756,0.039,5.385,1.166,7.314,3.135l12.539,13.584c11.08,11.527,11.08,29.746,0,41.273
			C331.573,129.731,324.242,132.739,316.609,132.709z M316.609,91.958l-4.702,5.224c-3.193,3.57-3.193,8.969,0,12.539
			c1.196,1.337,2.908,2.098,4.702,2.09l0,0c1.962,0.091,3.867-0.671,5.224-2.09c3.121-3.398,3.121-8.619,0-12.016L316.609,91.958z"
			/>
	</g>
</g>
<g>
</g>
<g>
</g>
<g>
</g>
<g>
</g>
<g>
</g>
<g>
</g>
<g>
</g>
<g>
</g>
<g>
</g>
<g>
</g>
<g>
</g>
<g>
</g>
<g>
</g>
<g>
</g>
<g>
</g>
</svg>
