<?xml version="1.0" encoding="iso-8859-1"?>
<!-- Generator: Adobe Illustrator 19.0.0, SVG Export Plug-In . SVG Version: 6.00 Build 0)  -->
<svg version="1.1" id="Capa_1" xmlns="http://www.w3.org/2000/svg" xmlns:xlink="http://www.w3.org/1999/xlink" x="0px" y="0px"
	 viewBox="0 0 470.204 470.204" style="enable-background:new 0 0 470.204 470.204;" xml:space="preserve">
<g>
	<g>
		<path style="fill:#00ACEA;" d="M338.024,291.527v93.518c0.001,40.481-32.663,73.378-73.143,73.665h-59.559
			c-40.396,0-73.143-32.747-73.143-73.143v-94.041L338.024,291.527z"/>
		<path style="fill:#00EFD1;" d="M338.024,32.392v259.135H132.18V32.392c0-11.542,9.356-20.898,20.898-20.898h164.049
			C328.668,11.494,338.024,20.85,338.024,32.392z"/>
	</g>
	<g>
		<path style="fill:#083863;" d="M235.102,96.131c-5.771,0-10.449-4.678-10.449-10.449V65.829c0-5.771,4.678-10.449,10.449-10.449
			s10.449,4.678,10.449,10.449v19.853C245.551,91.452,240.873,96.131,235.102,96.131z"/>
		<path style="fill:#083863;" d="M317.126,0H153.078c-17.754,0.528-32.102,14.648-32.914,32.392v353.176
			c0.844,46.592,38.562,84.08,85.159,84.637h59.559c46.797-0.564,84.595-38.363,85.159-85.159V32.392
			C349.229,14.648,334.881,0.528,317.126,0z M329.143,385.045c-0.56,35.256-29.005,63.702-64.261,64.261h-59.559
			c-35.058-0.551-63.424-28.687-64.261-63.739V303.02h188.082V385.045z M141.061,282.122V32.392
			c0.734-6.215,5.774-11.036,12.016-11.494h164.049c6.242,0.457,11.282,5.278,12.016,11.494v249.731H141.061z"/>
		<path style="fill:#083863;" d="M182.857,96.131c-5.771,0-10.449-4.678-10.449-10.449V65.829c0-5.771,4.678-10.449,10.449-10.449
			c5.771,0,10.449,4.678,10.449,10.449v19.853C193.306,91.452,188.628,96.131,182.857,96.131z"/>
		<path style="fill:#083863;" d="M287.347,96.131c-5.771,0-10.449-4.678-10.449-10.449V65.829c0-5.771,4.678-10.449,10.449-10.449
			c5.771,0,10.449,4.678,10.449,10.449v19.853C297.796,91.452,293.118,96.131,287.347,96.131z"/>
		<path style="fill:#083863;" d="M235.102,169.273c-5.771,0-10.449-4.678-10.449-10.449v-19.853c0-5.771,4.678-10.449,10.449-10.449
			s10.449,4.678,10.449,10.449v19.853C245.551,164.595,240.873,169.273,235.102,169.273z"/>
		<path style="fill:#083863;" d="M182.857,169.273c-5.771,0-10.449-4.678-10.449-10.449v-19.853c0-5.771,4.678-10.449,10.449-10.449
			c5.771,0,10.449,4.678,10.449,10.449v19.853C193.306,164.595,188.628,169.273,182.857,169.273z"/>
		<path style="fill:#083863;" d="M287.347,169.273c-5.771,0-10.449-4.678-10.449-10.449v-19.853c0-5.771,4.678-10.449,10.449-10.449
			c5.771,0,10.449,4.678,10.449,10.449v19.853C297.796,164.595,293.118,169.273,287.347,169.273z"/>
		<path style="fill:#083863;" d="M235.102,242.416c-5.771,0-10.449-4.678-10.449-10.449v-19.853c0-5.771,4.678-10.449,10.449-10.449
			s10.449,4.678,10.449,10.449v19.853C245.551,237.738,240.873,242.416,235.102,242.416L235.102,242.416z"/>
		<path style="fill:#083863;" d="M182.857,242.416c-5.771,0-10.449-4.678-10.449-10.449v-19.853c0-5.771,4.678-10.449,10.449-10.449
			c5.771,0,10.449,4.678,10.449,10.449v19.853C193.306,237.738,188.628,242.416,182.857,242.416L182.857,242.416z"/>
		<path style="fill:#083863;" d="M287.347,242.416c-5.771,0-10.449-4.678-10.449-10.449v-19.853c0-5.771,4.678-10.449,10.449-10.449
			c5.771,0,10.449,4.678,10.449,10.449v19.853C297.796,237.738,293.118,242.416,287.347,242.416L287.347,242.416z"/>
	</g>
</g>
<g>
</g>
<g>
</g>
<g>
</g>
<g>
</g>
<g>
</g>
<g>
</g>
<g>
</g>
<g>
</g>
<g>
</g>
<g>
</g>
<g>
</g>
<g>
</g>
<g>
</g>
<g>
</g>
<g>
</g>
</svg>
