<?xml version="1.0" encoding="iso-8859-1"?>
<!-- Generator: Adobe Illustrator 19.0.0, SVG Export Plug-In . SVG Version: 6.00 Build 0)  -->
<svg version="1.1" id="Capa_1" xmlns="http://www.w3.org/2000/svg" xmlns:xlink="http://www.w3.org/1999/xlink" x="0px" y="0px"
	 viewBox="0 0 470.164 470.164" style="enable-background:new 0 0 470.164 470.164;" xml:space="preserve">
<g>
	<g>
		<path style="fill:#00EFD1;" d="M426.253,72.58l-40.751,40.751l-40.751,40.751l-40.229,40.229
			c-24.738-24.193-32.378-60.949-19.331-92.996c4.651-10.669,11.201-20.406,19.331-28.735c8.109-8.023,17.688-14.409,28.212-18.808
			C364.865,40.795,401.637,48.19,426.253,72.58z"/>
		<path style="fill:#D4E1F4;" d="M392.816,120.645c11.015,11.351,11.015,29.4,0,40.751c-5.344,5.484-12.72,8.51-20.376,8.359
			c-7.644,0.089-14.997-2.927-20.376-8.359l-7.314-7.314l40.751-40.751L392.816,120.645z"/>
		<path style="fill:#00EFD1;" d="M340.049,440.906v18.808H126.889v-18.808c0-20.198,16.374-36.571,36.571-36.571h140.016
			C323.675,404.335,340.049,420.708,340.049,440.906z"/>
		<g>
			<path style="fill:#00CEB4;" d="M261.159,77.804l-9.404-8.882c-13.205-13.589-12.972-35.286,0.522-48.588l0,0
				c13.382-13.006,34.683-13.006,48.065,0l31.869,31.869v1.567C321.687,58.171,312.109,64.557,304,72.58
				c-8.13,8.329-14.68,18.065-19.331,28.735l-1.567-1.045L261.159,77.804z"/>
			<path style="fill:#00CEB4;" d="M231.379,347.388c29.515,0.287,53.291,24.295,53.29,53.812v3.135H177.045V401.2
				c0-29.72,24.093-53.812,53.812-53.812l0,0H231.379z"/>
		</g>
		<path style="fill:#00ACEA;" d="M132.636,152.514c22.506,19.41,25.016,53.389,5.606,75.895s-53.389,25.016-75.895,5.606
			s-25.016-53.389-5.606-75.895c10.254-11.89,25.19-18.709,40.891-18.668C110.503,139.392,122.952,144.037,132.636,152.514z"/>
	</g>
	<path style="fill:#083863;" d="M433.567,65.265c-25.387-25.498-62.94-34.583-97.176-23.51l-28.735-28.735
		c-17.097-16.948-44.514-17.409-62.171-1.045c0,0.522-0.522,0.522-0.522,1.045c-8.732,8.076-13.662,19.453-13.584,31.347
		c-0.029,11.778,4.677,23.074,13.061,31.347l-111.282,64.261c-10.446-7.196-22.842-11.024-35.527-10.971
		c-35.49,0.006-64.257,28.781-64.251,64.271c0.006,35.482,28.768,64.245,64.251,64.251h6.269l103.445,83.592
		c-21.233,8.849-36.428,27.99-40.229,50.678h-3.657c-26.686,0.829-48.044,22.417-48.588,49.11v18.808
		c0.791,6.018,5.947,10.501,12.016,10.449h213.159c5.482,0.008,9.933-4.43,9.94-9.913c0-0.179-0.004-0.358-0.014-0.536v-18.808
		c0-26.122-20.376-49.11-46.498-49.11h-8.882c-3.657-26.122-28.212-53.29-59.037-55.38l-107.624-87.249
		c20.913-10.785,34.027-32.372,33.959-55.902c0.001-13.97-4.588-27.554-13.061-38.661l110.759-63.739l13.584,13.584
		c-11.196,34.324-1.872,72.027,24.033,97.175c3.706,4.04,9.986,4.31,14.025,0.603c0.21-0.192,0.411-0.394,0.603-0.603l32.914-32.914
		l0,0c7.57,6.933,17.426,10.839,27.69,10.971c10.412,0.109,20.416-4.043,27.69-11.494c15.279-15.298,15.279-40.081,0-55.38
		l33.437-32.914c4.04-3.706,4.31-9.986,0.603-14.025C433.978,65.659,433.777,65.458,433.567,65.265z M329.077,440.906v8.359H135.771
		v-8.359c0.52-15.16,12.542-27.409,27.69-28.212h140.016C318.106,412.694,329.077,426.8,329.077,440.906z M273.698,391.796h-85.682
		c3.657-15.673,21.42-31.347,42.841-31.347h0.522C250.828,360.504,267.978,373.208,273.698,391.796z M259.069,28.172h0.522
		c9.319-9.024,24.118-9.024,33.437,0l22.988,22.988c-6.826,4.116-13.139,9.026-18.808,14.629
		c-5.755,5.534-10.682,11.868-14.629,18.808l-22.988-22.988c-4.694-4.287-7.351-10.362-7.314-16.718
		C252.168,38.624,254.621,32.586,259.069,28.172z M97.632,236.629c-23.949,0.011-43.372-19.395-43.383-43.344
		s19.395-43.372,43.344-43.383c10.363-0.005,20.385,3.702,28.251,10.449c9.5,8.318,15.01,20.288,15.151,32.914
		C140.996,217.214,121.581,236.629,97.632,236.629z M385.502,154.082c-3.514,3.365-8.196,5.238-13.061,5.224
		c-4.836-0.136-9.466-1.988-13.061-5.224l26.122-26.122C392.275,135.35,392.275,146.692,385.502,154.082z M305.045,179.159
		c-16.455-21.125-20.249-49.479-9.927-74.188c3.886-9.368,9.565-17.887,16.718-25.078c7.128-7.101,15.673-12.62,25.078-16.196
		c24.646-10.248,52.878-6.669,74.188,9.404L305.045,179.159z"/>
</g>
<g>
</g>
<g>
</g>
<g>
</g>
<g>
</g>
<g>
</g>
<g>
</g>
<g>
</g>
<g>
</g>
<g>
</g>
<g>
</g>
<g>
</g>
<g>
</g>
<g>
</g>
<g>
</g>
<g>
</g>
</svg>
