<?xml version="1.0" encoding="iso-8859-1"?>
<!-- Generator: Adobe Illustrator 19.0.0, SVG Export Plug-In . SVG Version: 6.00 Build 0)  -->
<svg version="1.1" id="Capa_1" xmlns="http://www.w3.org/2000/svg" xmlns:xlink="http://www.w3.org/1999/xlink" x="0px" y="0px"
	 viewBox="0 0 499.651 499.651" style="enable-background:new 0 0 499.651 499.651;" xml:space="preserve">
<g>
	<g>
		<g>
			<polygon style="fill:#00ACEA;" points="117.037,194.504 98.751,228.463 117.037,263.467 78.375,257.198 51.208,284.888 
				44.939,246.226 9.935,228.463 44.939,211.222 51.208,172.561 78.375,200.773 			"/>
			<polygon style="fill:#00ACEA;" points="317.657,388.333 299.371,422.814 317.657,457.296 278.996,450.504 251.828,478.194 
				246.604,440.055 212.122,422.814 246.604,405.573 251.828,367.435 278.996,395.124 			"/>
		</g>
		<polygon style="fill:#00EFD1;" points="161.445,369.002 142.637,405.051 161.445,441.1 121.216,434.831 92.481,463.565 
			86.212,423.337 49.641,405.051 86.212,386.765 92.481,346.014 121.216,375.794 		"/>
	</g>
	<g>
		<path style="fill:#083863;" d="M103.453,155.843c-2.756-0.039-5.385-1.166-7.314-3.135c-4.04-3.706-4.31-9.986-0.603-14.025
			c0.192-0.21,0.394-0.411,0.603-0.603l31.347-31.347c4.336-3.8,10.815-3.8,15.151,0c3.585,4.414,3.585,10.737,0,15.151
			l-31.869,30.824C108.838,154.677,106.209,155.803,103.453,155.843z"/>
		<path style="fill:#083863;" d="M162.49,97.328c-2.756-0.039-5.385-1.166-7.314-3.135c-4.04-3.706-4.31-9.986-0.603-14.025
			c0.192-0.21,0.394-0.411,0.603-0.603l24.033-24.033c3.462-4.617,10.012-5.552,14.629-2.09c4.617,3.462,5.552,10.012,2.09,14.629
			c-0.594,0.792-1.298,1.496-2.09,2.09l-24.033,24.033C167.875,96.162,165.246,97.289,162.49,97.328z"/>
		<path style="fill:#083863;" d="M210.032,49.786c-2.756-0.039-5.385-1.166-7.314-3.135c-4.04-3.706-4.31-9.986-0.603-14.025
			c0.192-0.21,0.394-0.411,0.603-0.603l17.241-17.763c3.919-4.131,10.425-4.364,14.629-0.522c3.952,4.203,4.176,10.685,0.522,15.151
			l-17.241,17.763C215.749,48.652,212.948,49.772,210.032,49.786z"/>
		<path style="fill:#083863;" d="M169.281,195.549c-2.692,0.159-5.332-0.784-7.314-2.612c-4.047-4.24-4.047-10.911,0-15.151
			l56.947-57.469c4.165-3.725,10.464-3.725,14.629,0c3.952,4.203,4.176,10.685,0.522,15.151l-56.947,57.469
			C174.976,194.847,172.142,195.791,169.281,195.549z"/>
		<path style="fill:#083863;" d="M257.575,107.777c-2.756-0.039-5.385-1.166-7.314-3.135c-4.04-3.706-4.31-9.986-0.603-14.025
			c0.192-0.21,0.394-0.411,0.603-0.603l42.318-42.841c3.919-4.131,10.425-4.364,14.629-0.522c4.051,4.24,4.054,10.914,0,15.151
			l-42.318,42.841C262.96,106.611,260.331,107.738,257.575,107.777z"/>
		<path style="fill:#083863;" d="M159.355,346.537c-2.653-0.075-5.214-0.989-7.314-2.612c-4.047-4.24-4.047-10.911,0-15.151
			l98.743-98.743c4.617-3.462,11.166-2.527,14.629,2.09c2.786,3.715,2.786,8.824,0,12.539l-98.743,99.265
			C164.569,345.547,162.008,346.462,159.355,346.537z"/>
		<path style="fill:#083863;" d="M277.428,228.463c-2.756-0.039-5.385-1.166-7.314-3.135c-4.04-3.706-4.31-9.986-0.603-14.025
			c0.192-0.21,0.394-0.411,0.603-0.603l83.069-83.069c4.165-3.725,10.464-3.725,14.629,0c4.047,4.24,4.047,10.911,0,15.151
			l-83.069,82.547C282.889,227.404,280.21,228.552,277.428,228.463z"/>
		<path style="fill:#083863;" d="M283.698,355.418c-2.756-0.039-5.385-1.166-7.314-3.135c-3.725-4.165-3.725-10.464,0-14.629
			l57.469-57.469c4.24-4.047,10.911-4.047,15.151,0c3.725,4.165,3.725,10.464,0,14.629l-57.469,57.469
			C289.479,354.384,286.635,355.522,283.698,355.418z"/>
		<path style="fill:#083863;" d="M368.857,271.304c-2.756-0.039-5.385-1.166-7.314-3.135c-4.04-3.706-4.31-9.986-0.603-14.025
			c0.192-0.21,0.394-0.411,0.603-0.603l24.033-24.555c3.462-4.617,10.012-5.552,14.629-2.09c4.617,3.462,5.552,10.012,2.09,14.629
			c-0.594,0.792-1.298,1.496-2.09,2.09l-24.033,24.555C374.242,270.138,371.613,271.265,368.857,271.304z"/>
		<path style="fill:#083863;" d="M361.02,384.675c-2.756-0.039-5.385-1.166-7.314-3.135c-4.04-3.706-4.31-9.986-0.603-14.025
			c0.192-0.21,0.394-0.411,0.603-0.603l56.947-57.992c4.24-4.047,10.911-4.047,15.151,0c4.04,3.706,4.31,9.986,0.603,14.025
			c-0.192,0.21-0.394,0.411-0.603,0.603l-57.469,57.992C366.405,383.509,363.776,384.636,361.02,384.675z"/>
		<path style="fill:#083863;" d="M442,303.173c-2.756-0.039-5.385-1.166-7.314-3.135c-4.047-4.24-4.047-10.911,0-15.151
			l47.02-46.498c4.24-4.047,10.911-4.047,15.151,0c3.725,4.165,3.725,10.464,0,14.629l-47.543,47.02
			C447.385,302.007,444.756,303.134,442,303.173z"/>
		<path style="fill:#083863;" d="M51.208,295.337h-3.135c-3.851-1.439-6.64-4.826-7.314-8.882l-5.224-33.437l-29.78-15.151
			c-3.64-1.686-5.907-5.396-5.747-9.404c-0.089-3.86,2.19-7.381,5.747-8.882l29.78-15.151l5.224-33.437
			c0.88-5.703,6.217-9.613,11.92-8.733c2.218,0.342,4.267,1.389,5.843,2.986l23.51,24.555l32.914-5.747
			c3.973-0.524,7.933,1.06,10.449,4.18c2.237,3.263,2.44,7.51,0.522,10.971l-15.151,29.257l15.151,30.302
			c1.917,3.461,1.715,7.708-0.522,10.971c-2.516,3.12-6.475,4.703-10.449,4.18l-32.914-5.747l-23.51,24.033
			C56.593,294.171,53.964,295.297,51.208,295.337z M33.445,228.463l16.196,8.359c3.151,1.432,5.328,4.401,5.747,7.837l3.135,17.763
			l12.539-12.539c2.186-2.559,5.573-3.754,8.882-3.135l17.763,3.135l-8.359-16.196c-1.582-3.12-1.582-6.807,0-9.927l8.359-15.673
			l-17.763,3.135c-3.455,0.512-6.947-0.653-9.404-3.135L58,195.026l-2.612,17.763c-0.591,3.364-2.716,6.262-5.747,7.837
			L33.445,228.463z"/>
		<path style="fill:#083863;" d="M92.481,474.014h-3.135c-3.969-1.147-6.725-4.751-6.792-8.882l-5.747-35.004l-31.869-16.196
			c-3.557-1.5-5.836-5.022-5.747-8.882c-0.16-4.008,2.107-7.718,5.747-9.404l31.869-16.196l5.747-35.004
			c0.286-3.935,2.998-7.274,6.792-8.359c3.864-1.006,7.975-0.027,10.971,2.612l24.555,25.6l35.004-5.747
			c3.96-0.425,7.874,1.141,10.449,4.18c2.237,3.263,2.44,7.51,0.522,10.971l-16.196,31.347l16.196,30.824
			c2.675,5.113,0.698,11.427-4.415,14.102c-2.013,1.053-4.315,1.421-6.556,1.049l-35.004-5.224l-24.555,25.078
			C98.263,472.98,95.418,474.118,92.481,474.014z M73.151,405.051l17.763,8.882c3.151,1.432,5.328,4.401,5.747,7.837l3.135,19.853
			l14.106-14.106c2.186-2.559,5.573-3.754,8.882-3.135l19.853,3.135l-9.404-17.763c-1.582-3.12-1.582-6.807,0-9.927l9.404-17.241
			l-19.853,3.657c-3.455,0.512-6.947-0.652-9.404-3.135l-13.584-14.629l-3.135,19.853c-0.584,3.24-2.737,5.98-5.747,7.314
			L73.151,405.051z"/>
		<path style="fill:#083863;" d="M251.828,488.643h-3.135c-3.919-1.342-6.749-4.778-7.314-8.882l-4.18-32.914l-29.78-14.629
			c-3.64-1.686-5.907-5.396-5.747-9.404c0.088-3.939,2.282-7.529,5.747-9.404l29.78-14.629l4.702-32.914
			c0.646-3.782,3.222-6.952,6.792-8.359c3.864-1.006,7.975-0.027,10.971,2.612l22.988,24.033l32.914-5.747
			c4.024-1.075,8.276,0.626,10.449,4.18c2.237,3.263,2.44,7.51,0.522,10.971l-15.673,29.257l15.673,29.78
			c1.917,3.461,1.715,7.708-0.522,10.971c-2.516,3.12-6.475,4.703-10.449,4.18l-32.914-5.747l-22.988,23.51
			C257.61,487.608,254.765,488.746,251.828,488.643z M235.632,422.814l15.673,7.837c3.151,1.432,5.328,4.401,5.747,7.837
			l2.09,17.241l12.539-12.539c2.297-2.369,5.668-3.36,8.882-2.612l17.763,2.612l-8.359-15.151c-1.582-3.12-1.582-6.807,0-9.927
			l8.359-15.673l-17.763,3.135c-3.308,0.62-6.695-0.576-8.882-3.135L259.143,389.9l-2.09,17.241
			c-0.591,3.364-2.716,6.262-5.747,7.837L235.632,422.814z"/>
	</g>
</g>
<g>
</g>
<g>
</g>
<g>
</g>
<g>
</g>
<g>
</g>
<g>
</g>
<g>
</g>
<g>
</g>
<g>
</g>
<g>
</g>
<g>
</g>
<g>
</g>
<g>
</g>
<g>
</g>
<g>
</g>
</svg>
