<?xml version="1.0" encoding="iso-8859-1"?>
<!-- Generator: Adobe Illustrator 19.0.0, SVG Export Plug-In . SVG Version: 6.00 Build 0)  -->
<svg version="1.1" id="Capa_1" xmlns="http://www.w3.org/2000/svg" xmlns:xlink="http://www.w3.org/1999/xlink" x="0px" y="0px"
	 viewBox="0 0 364.817 364.817" style="enable-background:new 0 0 364.817 364.817;" xml:space="preserve">
<g>
	<polygon style="fill:#00EFD1;" points="311.453,202.71 246.67,265.404 262.343,354.22 182.408,312.424 102.996,354.22 
		118.147,265.404 53.364,202.71 142.702,189.649 182.408,109.192 222.115,189.649 	"/>
	<g>
		<path style="fill:#083863;" d="M261.821,364.669l-4.702-1.045l-74.71-39.706l-74.71,39.706
			c-5.113,2.675-11.427,0.698-14.102-4.415c-1.053-2.013-1.421-4.315-1.049-6.556l14.106-83.592l-60.604-59.037
			c-2.638-2.787-3.629-6.749-2.612-10.449c1.153-3.84,4.4-6.682,8.359-7.314l84.114-12.016l37.094-75.755
			c2.515-5.194,8.765-7.365,13.959-4.849c2.116,1.025,3.825,2.733,4.849,4.849l37.094,75.755l84.114,12.016
			c3.959,0.633,7.207,3.474,8.359,7.314c1.016,3.7,0.026,7.662-2.612,10.449l-60.604,59.037l14.106,83.592
			c0.551,3.827-1.057,7.646-4.18,9.927C266.376,364.108,264.109,364.863,261.821,364.669z M182.408,301.976l4.702,1.045
			l61.127,31.869l-11.494-67.396c-0.57-3.367,0.388-6.813,2.612-9.404l49.633-48.065l-68.441-9.927
			c-3.364-0.591-6.262-2.716-7.837-5.747l-30.302-61.649l-30.302,61.649c-1.575,3.031-4.472,5.156-7.837,5.747l-68.441,9.927
			l49.633,48.065c2.225,2.591,3.182,6.037,2.612,9.404L116.58,334.89l61.127-31.869L182.408,301.976z"/>
		<path style="fill:#083863;" d="M182.408,73.143c-5.771,0-10.449-4.678-10.449-10.449V10.449C171.959,4.678,176.638,0,182.408,0
			s10.449,4.678,10.449,10.449v52.245C192.857,68.465,188.179,73.143,182.408,73.143z"/>
		<path style="fill:#083863;" d="M302.572,115.984c-2.267,0.04-4.48-0.698-6.269-2.09c-4.557-3.047-5.781-9.212-2.734-13.769
			c0.199-0.298,0.414-0.585,0.644-0.859l31.347-41.796c3.462-4.617,10.012-5.552,14.629-2.09v0
			c4.617,3.462,5.552,10.012,2.09,14.629l-31.347,41.796C308.907,114.374,305.842,115.906,302.572,115.984z"/>
		<path style="fill:#083863;" d="M62.245,115.984c-3.27-0.077-6.335-1.61-8.359-4.18L22.539,70.008
			c-3.462-4.617-2.527-11.166,2.09-14.629c4.617-3.462,11.166-2.527,14.629,2.09l31.347,41.796
			c3.522,4.201,2.971,10.462-1.231,13.984c-0.275,0.23-0.561,0.445-0.859,0.644C66.725,115.286,64.512,116.024,62.245,115.984z"/>
	</g>
</g>
<g>
</g>
<g>
</g>
<g>
</g>
<g>
</g>
<g>
</g>
<g>
</g>
<g>
</g>
<g>
</g>
<g>
</g>
<g>
</g>
<g>
</g>
<g>
</g>
<g>
</g>
<g>
</g>
<g>
</g>
</svg>
