<?xml version="1.0" encoding="iso-8859-1"?>
<!-- Generator: Adobe Illustrator 19.0.0, SVG Export Plug-In . SVG Version: 6.00 Build 0)  -->
<svg version="1.1" id="Capa_1" xmlns="http://www.w3.org/2000/svg" xmlns:xlink="http://www.w3.org/1999/xlink" x="0px" y="0px"
	 viewBox="0 0 459.441 459.441" style="enable-background:new 0 0 459.441 459.441;" xml:space="preserve">
<g>
	<g>
		<g>
			<polygon style="fill:#00ACEA;" points="361.378,296.594 361.378,340.48 326.374,340.48 323.761,340.48 323.761,296.594 
				327.941,296.594 			"/>
			<polygon style="fill:#00ACEA;" points="361.378,118.961 361.378,162.847 326.374,162.847 323.761,162.847 323.761,118.961 
				327.941,118.961 			"/>
		</g>
		<path style="fill:#00EFD1;" d="M323.761,340.48v8.359c0.155,16.09-4.783,31.816-14.106,44.931l-14.629,20.898
			c-24.443,36.068-73.496,45.491-109.563,21.049c-8.288-5.617-15.432-12.76-21.049-21.049l-14.629-20.898
			c-9.323-13.114-14.261-28.841-14.106-44.931V110.602c-0.05-16.074,4.878-31.769,14.106-44.931l14.629-20.898
			c14.584-21.745,39.124-34.702,65.306-34.482c12.888,0.024,25.592,3.066,37.094,8.882c11.379,6.065,21.074,14.862,28.212,25.6
			l14.629,20.898c9.228,13.161,14.156,28.857,14.106,44.931V340.48z"/>
		<g>
			<polygon style="fill:#00ACEA;" points="135.68,296.594 135.68,340.48 132.023,340.48 98.063,340.48 98.063,296.594 
				134.112,296.594 			"/>
			<polygon style="fill:#00ACEA;" points="135.68,118.961 135.68,162.847 132.023,162.847 98.063,162.847 98.063,118.961 
				134.112,118.961 			"/>
		</g>
	</g>
	<g>
		<path style="fill:#083863;" d="M271.517,109.557h-83.592c-5.771,0-10.449-4.678-10.449-10.449c0-5.771,4.678-10.449,10.449-10.449
			h83.592c5.771,0,10.449,4.678,10.449,10.449C281.966,104.879,277.287,109.557,271.517,109.557z"/>
		<path style="fill:#083863;" d="M271.517,146.129h-83.592c-5.771,0-10.449-4.678-10.449-10.449c0-5.771,4.678-10.449,10.449-10.449
			h83.592c5.771,0,10.449,4.678,10.449,10.449C281.966,141.451,277.287,146.129,271.517,146.129z"/>
		<path style="fill:#083863;" d="M271.517,344.659h-83.592c-5.771,0-10.449-4.678-10.449-10.449c0-5.771,4.678-10.449,10.449-10.449
			h83.592c5.771,0,10.449,4.678,10.449,10.449C281.966,339.981,277.287,344.659,271.517,344.659z"/>
		<path style="fill:#083863;" d="M271.517,381.231h-83.592c-5.771,0-10.449-4.678-10.449-10.449s4.678-10.449,10.449-10.449h83.592
			c5.771,0,10.449,4.678,10.449,10.449S277.287,381.231,271.517,381.231z"/>
		<path style="fill:#083863;" d="M361.378,172.251c4.896,0.298,9.107-3.43,9.404-8.326c0.022-0.359,0.022-0.719,0-1.078v-43.886
			c0.298-4.896-3.43-9.107-8.326-9.404c-0.359-0.022-0.719-0.022-1.078,0H334.21c0.189-17.629-5.307-34.85-15.673-49.11
			l-14.629-21.42C275.54-2.046,219.247-12.346,178.174,16.022c-8.82,6.092-16.487,13.705-22.641,22.482l-14.629,21.943
			c-10.367,14.26-15.863,31.481-15.673,49.11H98.063c-4.896-0.298-9.106,3.43-9.404,8.326c-0.022,0.359-0.022,0.719,0,1.078v43.886
			c-0.298,4.896,3.43,9.107,8.326,9.404c0.359,0.022,0.719,0.022,1.078,0h27.167V287.19H98.063c-4.896-0.298-9.106,3.43-9.404,8.326
			c-0.022,0.359-0.022,0.719,0,1.078v43.886c-0.298,4.896,3.43,9.107,8.326,9.404c0.359,0.022,0.719,0.022,1.078,0h27.167
			c-0.189,17.629,5.307,34.85,15.673,49.11l14.629,21.42c28.368,41.073,84.662,51.373,125.735,23.004
			c8.82-6.092,16.487-13.705,22.641-22.482l14.629-21.943c10.367-14.26,15.863-31.481,15.673-49.11h27.167
			c4.896,0.298,9.107-3.43,9.404-8.326c0.022-0.359,0.022-0.719,0-1.078v-43.886c0.298-4.896-3.43-9.106-8.326-9.404
			c-0.359-0.022-0.719-0.022-1.078,0H334.21V172.251H361.378z M349.884,151.353H334.21v-20.898h15.673V151.353z M109.557,151.353
			v-20.898h15.673v20.898H109.557z M109.557,308.088h15.673v20.898h-15.673V308.088z M313.312,348.839
			c0.025,13.972-4.162,27.628-12.016,39.184l-14.629,20.898c-21.99,31.451-65.312,39.121-96.763,17.131
			c-6.669-4.663-12.468-10.462-17.131-17.131l-14.629-20.898c-7.854-11.556-12.042-25.211-12.016-39.184V110.602
			c-0.025-13.972,4.162-27.628,12.016-39.184l14.629-20.898c12.915-18.705,34.217-29.844,56.947-29.78
			c22.775-0.25,44.159,10.933,56.947,29.78l14.629,20.898c7.854,11.556,12.042,25.211,12.016,39.184V348.839z M349.884,308.088
			v20.898H334.21v-20.898H349.884z"/>
	</g>
</g>
<g>
</g>
<g>
</g>
<g>
</g>
<g>
</g>
<g>
</g>
<g>
</g>
<g>
</g>
<g>
</g>
<g>
</g>
<g>
</g>
<g>
</g>
<g>
</g>
<g>
</g>
<g>
</g>
<g>
</g>
</svg>
