<?xml version="1.0" encoding="iso-8859-1"?>
<!-- Generator: Adobe Illustrator 19.0.0, SVG Export Plug-In . SVG Version: 6.00 Build 0)  -->
<svg version="1.1" id="Capa_1" xmlns="http://www.w3.org/2000/svg" xmlns:xlink="http://www.w3.org/1999/xlink" x="0px" y="0px"
	 viewBox="0 0 405.571 405.571" style="enable-background:new 0 0 405.571 405.571;" xml:space="preserve">
<g>
	<g>
		<path style="fill:#00EFD1;" d="M322.949,96.131v299.363l-120.163-73.665L82.622,395.494V96.131H322.949z M268.091,261.747
			c0-13.85-11.228-25.078-25.078-25.078c-13.85,0-25.078,11.228-25.078,25.078c0,13.85,11.228,25.078,25.078,25.078
			C256.864,286.824,268.091,275.597,268.091,261.747C268.091,261.747,268.091,261.747,268.091,261.747z M187.634,181.812
			c0.289-13.847-10.703-25.306-24.55-25.595c-13.847-0.289-25.306,10.703-25.595,24.55c-0.289,13.847,10.703,25.306,24.55,25.595
			c0.172,0.004,0.345,0.005,0.517,0.005C176.205,206.37,187.35,195.458,187.634,181.812z"/>
		<rect x="82.622" y="12.539" style="fill:#00ACEA;" width="240.327" height="83.592"/>
		<g>
			<path style="fill:#00EFD1;" d="M243.014,237.192c13.85,0.003,25.075,11.233,25.072,25.083
				c-0.003,13.85-11.233,25.075-25.083,25.072c-13.85-0.003-25.075-11.233-25.072-25.083c0-0.172,0.002-0.345,0.005-0.517
				C218.221,248.101,229.365,237.189,243.014,237.192z"/>
			<path style="fill:#00EFD1;" d="M162.557,156.735c13.85,0,25.078,11.228,25.078,25.078s-11.228,25.078-25.078,25.078
				s-25.078-11.228-25.078-25.078l0,0C137.479,167.962,148.707,156.735,162.557,156.735z"/>
		</g>
	</g>
	<g>
		<path style="fill:#083863;" d="M322.949,0H82.622c-6.223,0.81-10.774,6.272-10.449,12.539v382.433
			c-0.02,3.832,1.96,7.397,5.224,9.404c3.301,1.594,7.148,1.594,10.449,0l114.939-70.531l114.939,70.531
			c1.581,0.909,3.416,1.276,5.224,1.045c1.806,0.163,3.62-0.2,5.224-1.045c3.264-2.007,5.245-5.572,5.224-9.404V12.539
			C333.723,6.272,329.171,0.81,322.949,0z M312.5,20.898v62.694H93.071V20.898H312.5z M208.01,312.424
			c-3.163-2.113-7.286-2.113-10.449,0l-104.49,64.261V104.49H312.5v272.196L208.01,312.424z"/>
		<path style="fill:#083863;" d="M162.557,216.816c-19.621-0.002-35.525-15.91-35.523-35.53c0.002-19.621,15.91-35.525,35.53-35.523
			c19.621,0.002,35.525,15.91,35.523,35.53c0,0.173-0.001,0.346-0.004,0.519C197.798,201.229,181.975,216.818,162.557,216.816z
			 M162.557,167.184c-8.079,0-14.629,6.549-14.629,14.629c0,8.079,6.549,14.629,14.629,14.629s14.629-6.549,14.629-14.629l0,0
			C177.185,173.733,170.636,167.184,162.557,167.184z"/>
		<path style="fill:#083863;" d="M243.014,297.273c-19.621,0-35.527-15.906-35.527-35.527c0-19.621,15.906-35.527,35.527-35.527
			c19.621,0,35.527,15.906,35.527,35.527l0,0c0.291,19.33-15.144,35.236-34.474,35.527
			C243.716,297.279,243.365,297.279,243.014,297.273z M243.014,247.641c-8.079,0.005-14.624,6.559-14.619,14.638
			c0.005,8.079,6.559,14.624,14.638,14.619c8.079-0.005,14.624-6.559,14.619-14.638c0-0.171-0.003-0.342-0.009-0.513
			C257.361,253.873,250.893,247.636,243.014,247.641z"/>
		<path style="fill:#083863;" d="M147.406,287.347c-2.653-0.075-5.214-0.989-7.314-2.612c-4.047-4.24-4.047-10.911,0-15.151
			L253.985,155.69c4.24-4.047,10.911-4.047,15.151,0c4.04,3.706,4.31,9.986,0.603,14.025c-0.192,0.21-0.394,0.411-0.603,0.603
			L154.72,284.735C152.62,286.358,150.059,287.272,147.406,287.347z"/>
	</g>
</g>
<g>
</g>
<g>
</g>
<g>
</g>
<g>
</g>
<g>
</g>
<g>
</g>
<g>
</g>
<g>
</g>
<g>
</g>
<g>
</g>
<g>
</g>
<g>
</g>
<g>
</g>
<g>
</g>
<g>
</g>
</svg>
