<?xml version="1.0" encoding="iso-8859-1"?>
<!-- Generator: Adobe Illustrator 19.0.0, SVG Export Plug-In . SVG Version: 6.00 Build 0)  -->
<svg version="1.1" id="Capa_1" xmlns="http://www.w3.org/2000/svg" xmlns:xlink="http://www.w3.org/1999/xlink" x="0px" y="0px"
	 viewBox="0 0 462.894 462.894" style="enable-background:new 0 0 462.894 462.894;" xml:space="preserve">
<g>
	<g>
		<g>
			<path style="fill:#87E680;" d="M294.665,10.974c15.004,0,27.167,12.163,27.167,27.167c2.076,14.86-8.288,28.589-23.148,30.664
				c-14.86,2.076-28.589-8.288-30.664-23.148c-0.348-2.493-0.348-5.023,0-7.517c-0.289-14.713,11.405-26.874,26.117-27.162
				C294.314,10.976,294.489,10.974,294.665,10.974z"/>
			<path style="fill:#87E680;" d="M168.233,10.974c14.716-0.003,26.647,11.924,26.65,26.64c0,0.176-0.002,0.352-0.005,0.528
				c-0.003,15.004-12.168,27.165-27.172,27.162c-15.004-0.003-27.165-12.168-27.162-27.172
				c0.003-15.004,12.168-27.165,27.172-27.162C167.888,10.969,168.06,10.971,168.233,10.974z"/>
		</g>
		<path style="fill:#00ACEA;" d="M452.445,342.207h-40.751c0-99.547-80.698-180.245-180.245-180.245S51.204,242.66,51.204,342.207
			H10.453c-0.029-122.053,98.89-221.02,220.943-221.049c122.053-0.029,221.02,98.89,221.049,220.943
			C452.445,342.136,452.445,342.171,452.445,342.207L452.445,342.207z"/>
		<path style="fill:#00EFD1;" d="M411.694,351.088v50.678c0,28.854-23.391,52.245-52.245,52.245h-256
			c-28.854,0-52.245-23.391-52.245-52.245v-59.559c0-99.547,80.698-180.245,180.245-180.245s180.245,80.698,180.245,180.245V351.088
			z"/>
	</g>
	<path style="fill:#083863;" d="M394.975,178.68c-24.837-26.074-55.962-45.325-90.384-55.902V74.19
		c16.065-4.748,27.245-19.303,27.69-36.049c-0.038-20.775-16.91-37.586-37.685-37.548c-20.775,0.038-37.586,16.91-37.548,37.684
		c0.03,16.524,10.84,31.093,26.645,35.913v42.841c-17.078-4.299-34.634-6.406-52.245-6.269c-17.611-0.137-35.167,1.97-52.245,6.269
		V74.19c19.91-5.933,31.24-26.883,25.307-46.793c-4.776-16.025-19.557-26.974-36.278-26.873
		c-20.486-0.002-37.096,16.604-37.098,37.09c0,0.175,0.001,0.351,0.004,0.526c0.209,16.661,11.209,31.257,27.167,36.049v48.588
		C63.42,153.692-0.586,242.414,0.004,342.207c0,5.771,4.678,10.449,10.449,10.449h27.69v49.11c0,34.482,30.302,60.604,65.306,60.604
		h256c35.004,0,65.306-26.122,65.306-60.604v-49.11h27.69c5.771,0,10.449-4.678,10.449-10.449
		C462.998,280.815,438.542,221.933,394.975,178.68z M278.469,38.141c-1.626-9.089,4.424-17.775,13.513-19.401
		c9.089-1.626,17.775,4.424,19.401,13.513c0.348,1.947,0.348,3.941,0,5.888c1.626,9.089-4.424,17.775-13.513,19.401
		c-9.089,1.626-17.775-4.424-19.401-13.513C278.121,42.082,278.121,40.088,278.469,38.141L278.469,38.141z M151.514,38.141
		c-1.626-9.089,4.424-17.775,13.513-19.401c9.089-1.626,17.775,4.424,19.401,13.513c0.348,1.947,0.348,3.941,0,5.888
		c1.626,9.089-4.424,17.775-13.513,19.401c-9.089,1.626-17.775-4.424-19.401-13.513C151.166,42.082,151.166,40.088,151.514,38.141z
		 M403.857,342.729v59.037c0,22.988-20.898,39.706-44.408,39.706h-256c-23.51,0-44.408-16.718-44.408-39.706v-50.678
		c0.315-2.821,0.839-5.615,1.567-8.359c4.47-90.699,79.511-161.826,170.318-161.437c45.528-0.125,89.269,17.709,121.731,49.633
		C382.437,261.227,398.633,300.933,403.857,342.729z M421.62,331.758c-5.084-43.581-24.575-84.217-55.38-115.461
		c-35.61-35.965-84.181-56.108-134.792-55.902c-98.29-0.977-180.944,73.502-190.171,171.363H20.902
		c6.343-111.828,98.541-199.45,210.547-200.098c112.215,0.126,204.714,88.035,210.547,200.098H421.62z"/>
</g>
<g>
</g>
<g>
</g>
<g>
</g>
<g>
</g>
<g>
</g>
<g>
</g>
<g>
</g>
<g>
</g>
<g>
</g>
<g>
</g>
<g>
</g>
<g>
</g>
<g>
</g>
<g>
</g>
<g>
</g>
</svg>
