<?xml version="1.0" encoding="iso-8859-1"?>
<!-- Generator: Adobe Illustrator 19.0.0, SVG Export Plug-In . SVG Version: 6.00 Build 0)  -->
<svg version="1.1" id="Capa_1" xmlns="http://www.w3.org/2000/svg" xmlns:xlink="http://www.w3.org/1999/xlink" x="0px" y="0px"
	 viewBox="0 0 376.195 376.195" style="enable-background:new 0 0 376.195 376.195;" xml:space="preserve">
<g>
	<g>
		<path style="fill:#00EFD1;" d="M160.93,168.212c10.965,0,19.853,8.889,19.853,19.853c0.007,10.965-8.876,19.858-19.841,19.865
			s-19.858-8.876-19.865-19.841c0-0.008,0-0.016,0-0.024C141.077,177.1,149.965,168.212,160.93,168.212z"/>
		<path style="fill:#00ACEA;" d="M314.007,135.298v122.253l-88.294-28.212l-49.633,35.004L62.187,218.89v-83.592H314.007z
			 M180.783,188.065c-0.007-10.965-8.901-19.848-19.865-19.841c-10.955,0.007-19.834,8.886-19.841,19.841
			c-0.007,10.965,8.876,19.858,19.841,19.865c10.965,0.007,19.858-8.876,19.865-19.841
			C180.783,188.081,180.783,188.073,180.783,188.065z"/>
		<g>
			<polygon style="fill:#00CEB4;" points="314.007,257.551 314.007,298.302 129.061,298.302 129.061,298.302 176.081,264.343 
				225.714,229.339 			"/>
			<polygon style="fill:#00CEB4;" points="176.081,264.343 129.061,298.302 129.061,298.302 62.187,298.302 62.187,218.89 			"/>
		</g>
		<path style="fill:#00EFD1;" d="M366.252,83.053v267.494H9.942V83.053H366.252z M314.007,298.302V135.298H62.187v163.004H314.007z"
			/>
	</g>
	<g>
		<path style="fill:#083863;" d="M160.93,218.89c-16.82-0.285-30.304-14.003-30.302-30.824c0.01-16.735,13.585-30.294,30.32-30.284
			c16.721,0.01,30.274,13.563,30.284,30.284C191.234,204.887,177.749,218.604,160.93,218.89z M160.93,178.661
			c-5.194,0-9.404,4.21-9.404,9.404c-0.005,5.194,4.202,9.408,9.396,9.412c5.194,0.005,9.408-4.202,9.412-9.396
			c0-0.006,0-0.011,0-0.017C170.334,182.871,166.124,178.661,160.93,178.661z"/>
		<path style="fill:#083863;" d="M323.934,135.82c0-5.771-4.678-10.449-10.449-10.449H62.71c-5.771,0-10.449,4.678-10.449,10.449
			v161.959c0,5.771,4.678,10.449,10.449,10.449h250.776c5.771,0,10.449-4.678,10.449-10.449V135.82z M303.036,146.269v97.176
			l-74.71-24.033c-2.968-1-6.227-0.617-8.882,1.045l-44.408,32.392L73.159,212.098v-65.829H303.036z M73.159,234.563l81.502,32.392
			l-29.257,20.376H73.159V234.563z M161.452,287.33l65.829-47.02l75.755,25.078v21.943H161.452z"/>
		<path style="fill:#083863;" d="M366.252,73.126H244.522l-48.588-54.335c-4.414-4.114-11.259-4.114-15.673,0l-48.588,54.335H9.942
			c-5.185-0.297-9.629,3.666-9.927,8.851c-0.021,0.358-0.021,0.717,0,1.076v267.494c-0.297,5.185,3.666,9.63,8.851,9.927
			c0.358,0.021,0.717,0.021,1.076,0h356.31c5.185,0.297,9.63-3.666,9.927-8.851c0.021-0.358,0.021-0.717,0-1.076V83.053
			c0.297-5.185-3.666-9.629-8.851-9.927C366.97,73.106,366.611,73.106,366.252,73.126z M188.097,41.779l28.212,31.347h-56.425
			L188.097,41.779z M355.281,339.575H20.914V94.024h334.367V339.575z"/>
	</g>
</g>
<g>
</g>
<g>
</g>
<g>
</g>
<g>
</g>
<g>
</g>
<g>
</g>
<g>
</g>
<g>
</g>
<g>
</g>
<g>
</g>
<g>
</g>
<g>
</g>
<g>
</g>
<g>
</g>
<g>
</g>
</svg>
