<?xml version="1.0" encoding="iso-8859-1"?>
<!-- Generator: Adobe Illustrator 19.0.0, SVG Export Plug-In . SVG Version: 6.00 Build 0)  -->
<svg version="1.1" id="Capa_1" xmlns="http://www.w3.org/2000/svg" xmlns:xlink="http://www.w3.org/1999/xlink" x="0px" y="0px"
	 viewBox="0 0 494.139 494.139" style="enable-background:new 0 0 494.139 494.139;" xml:space="preserve">
<g>
	<g>
		<g>
			<polygon style="fill:#00ACEA;" points="483.739,246.951 388.131,337.335 388.131,156.568 			"/>
			<polygon style="fill:#00ACEA;" points="106.008,156.568 106.008,337.335 10.4,246.951 			"/>
		</g>
		<rect x="152.506" y="182.69" style="fill:#00EFD1;" width="188.604" height="128.522"/>
	</g>
	<g>
		<path style="fill:#083863;" d="M106.008,347.784c-2.653-0.075-5.214-0.989-7.314-2.612L3.086,254.788
			c-4.114-4.414-4.114-11.259,0-15.673l95.608-90.384c4.747-3.766,11.648-2.97,15.414,1.778c1.377,1.736,2.196,3.849,2.349,6.059
			v180.767c-0.068,4.092-2.518,7.768-6.269,9.404L106.008,347.784z M25.551,246.951l70.008,66.351V180.6L25.551,246.951z"/>
		<path style="fill:#083863;" d="M388.131,347.784l-4.18-1.045c-3.751-1.636-6.202-5.312-6.269-9.404V156.568
			c0.419-6.045,5.659-10.605,11.704-10.186c2.211,0.153,4.323,0.972,6.059,2.349l95.608,90.384c4.114,4.414,4.114,11.259,0,15.673
			l-95.608,90.384C393.345,346.795,390.784,347.71,388.131,347.784z M398.58,180.6v132.702l70.008-66.351L398.58,180.6z"/>
		<path style="fill:#083863;" d="M341.11,321.662H152.506c-5.771,0-10.449-4.678-10.449-10.449V182.69
			c0-5.771,4.678-10.449,10.449-10.449H341.11c5.771,0,10.449,4.678,10.449,10.449v128.522
			C351.559,316.984,346.881,321.662,341.11,321.662z M162.955,300.764h167.706V193.139H162.955V300.764z"/>
	</g>
</g>
<g>
</g>
<g>
</g>
<g>
</g>
<g>
</g>
<g>
</g>
<g>
</g>
<g>
</g>
<g>
</g>
<g>
</g>
<g>
</g>
<g>
</g>
<g>
</g>
<g>
</g>
<g>
</g>
<g>
</g>
</svg>
