<?xml version="1.0" encoding="iso-8859-1"?>
<!-- Generator: Adobe Illustrator 19.0.0, SVG Export Plug-In . SVG Version: 6.00 Build 0)  -->
<svg version="1.1" id="Capa_1" xmlns="http://www.w3.org/2000/svg" xmlns:xlink="http://www.w3.org/1999/xlink" x="0px" y="0px"
	 viewBox="0 0 480.703 480.703" style="enable-background:new 0 0 480.703 480.703;" xml:space="preserve">
<g>
	<g>
		<path style="fill:#00EFD1;" d="M410.67,114.466v320.261c0,20.198-16.374,36.571-36.571,36.571H106.604
			c-20.198,0-36.571-16.374-36.571-36.571V114.466c0-20.198,16.374-36.571,36.571-36.571h51.2v33.959h164.571V77.894h51.722
			C394.296,77.894,410.67,94.268,410.67,114.466L410.67,114.466z M338.049,260.752c0-29.431-23.859-53.29-53.29-53.29
			c-17.924-0.051-34.648,9-44.408,24.033c-9.692-15.107-26.46-24.182-44.408-24.033c-29.431,0-53.29,23.859-53.29,53.29l0,0
			c0,52.767,97.698,106.58,97.698,106.58S338.049,314.041,338.049,260.752z"/>
		<path style="fill:#D7443E;" d="M284.759,207.462c29.431,0,53.29,23.859,53.29,53.29c0,53.29-97.698,106.58-97.698,106.58
			s-97.698-53.812-97.698-106.58c0-29.431,23.859-53.29,53.29-53.29l0,0c17.948-0.149,34.716,8.925,44.408,24.033
			C250.112,216.461,266.836,207.411,284.759,207.462z"/>
		<path style="fill:#00ACEA;" d="M322.376,77.894v33.959H157.804V41.323h43.363c3.926-18.232,20.012-31.274,38.661-31.347
			c18.794-0.339,35.108,12.889,38.661,31.347h43.886L322.376,77.894z"/>
	</g>
	<g>
		<path style="fill:#083863;" d="M374.098,67.968h-39.706V41.323c-0.547-6.035-5.883-10.483-11.917-9.936
			c-0.033,0.003-0.066,0.006-0.099,0.009h-36.049c-6.891-19.559-25.782-32.295-46.498-31.347
			c-20.668-0.777-39.467,11.896-46.498,31.347h-35.527c-5.741-0.583-10.868,3.599-11.451,9.34c-0.02,0.195-0.034,0.391-0.043,0.586
			v26.645h-39.706c-26.122,0-49.11,20.376-49.11,46.498v319.739c0,26.122,22.988,46.498,49.11,46.498h267.494
			c26.122,0,49.11-20.376,49.11-46.498V114.466C423.208,88.343,400.221,67.968,374.098,67.968z M167.208,52.294h33.959
			c4.848-0.145,8.959-3.607,9.927-8.359c3.094-13.474,14.915-23.146,28.735-23.51c13.605,0.17,25.298,9.697,28.212,22.988
			c0.976,5.041,5.317,8.731,10.449,8.882h35.004v47.02H167.208V52.294z M402.31,434.205c0,14.629-13.584,25.6-28.212,25.6H106.604
			c-14.629,0-28.212-10.971-28.212-25.6V114.466c0-14.629,13.584-25.6,28.212-25.6h39.706v22.988c0,5.747,5.747,8.359,11.494,8.359
			h164.571c5.747,0,12.016-2.612,12.016-8.359V88.866h39.706c14.629,0,28.212,10.971,28.212,25.6V434.205z"/>
		<path style="fill:#083863;" d="M240.351,377.78c-1.854-0.024-3.664-0.567-5.225-1.567c-17.603-10.151-34.374-21.681-50.155-34.482
			c-35.004-28.735-52.767-55.902-52.767-80.98c0-35.202,28.537-63.739,63.739-63.739c16.654-0.099,32.652,6.488,44.408,18.286
			c25.252-24.526,65.604-23.938,90.131,1.313c11.489,11.829,17.947,27.65,18.016,44.14c0,59.037-98.743,113.371-102.922,115.461
			C244.015,377.213,242.205,377.756,240.351,377.78z M195.943,217.911c-23.66,0-42.841,19.18-42.841,42.841l0,0
			c0,36.049,59.037,77.845,87.249,94.563c28.212-16.718,87.249-58.514,87.249-94.563c0-23.66-19.18-42.841-42.841-42.841l0,0
			c-14.354,0.001-27.729,7.279-35.527,19.331c-1.805,3.15-5.262,4.981-8.882,4.702c-3.569,0.053-6.919-1.72-8.882-4.702
			C223.812,225.04,210.347,217.713,195.943,217.911z"/>
	</g>
</g>
<g>
</g>
<g>
</g>
<g>
</g>
<g>
</g>
<g>
</g>
<g>
</g>
<g>
</g>
<g>
</g>
<g>
</g>
<g>
</g>
<g>
</g>
<g>
</g>
<g>
</g>
<g>
</g>
<g>
</g>
</svg>
