<?xml version="1.0" encoding="iso-8859-1"?>
<!-- Generator: Adobe Illustrator 19.0.0, SVG Export Plug-In . SVG Version: 6.00 Build 0)  -->
<svg version="1.1" id="Capa_1" xmlns="http://www.w3.org/2000/svg" xmlns:xlink="http://www.w3.org/1999/xlink" x="0px" y="0px"
	 viewBox="0 0 476.458 476.458" style="enable-background:new 0 0 476.458 476.458;" xml:space="preserve">
<g>
	<g>
		<path style="fill:#00EFD1;" d="M392.866,305.626c20.198,0,36.571,16.374,36.571,36.571s-16.374,36.571-36.571,36.571
			c-20.198,0-36.571-16.374-36.571-36.571S372.668,305.626,392.866,305.626z"/>
		<path style="fill:#00EFD1;" d="M293.6,305.626c20.198,0,36.571,16.374,36.571,36.571s-16.374,36.571-36.571,36.571
			s-36.571-16.374-36.571-36.571S273.403,305.626,293.6,305.626z"/>
		<path style="fill:#00EFD1;" d="M194.335,305.626c20.198,0,36.571,16.374,36.571,36.571s-16.374,36.571-36.571,36.571
			s-36.571-16.374-36.571-36.571S174.137,305.626,194.335,305.626z"/>
		<path style="fill:#00EFD1;" d="M48.049,305.626c20.198,0,36.571,16.374,36.571,36.571s-16.374,36.571-36.571,36.571
			s-36.571-16.374-36.571-36.571S27.852,305.626,48.049,305.626z"/>
	</g>
	<path style="fill:#083863;" d="M466.009,86.197H27.151c-5.771,0-10.449,4.678-10.449,10.449c0,5.771,4.678,10.449,10.449,10.449
		h86.727L55.886,296.222l-7.837-1.045c-26.256-0.28-47.767,20.778-48.047,47.034s20.778,47.767,47.034,48.047
		s47.767-20.778,48.047-47.034c0.165-15.515-7.25-30.134-19.866-39.165l60.604-196.963h48.065v189.649
		c-25.319,5.771-41.167,30.974-35.396,56.294c5.771,25.319,30.974,41.167,56.294,35.396c25.319-5.771,41.167-30.974,35.396-56.294
		c-4.016-17.62-17.775-31.38-35.396-35.396V107.095h78.367v189.649c-25.319,5.771-41.167,30.974-35.396,56.294
		c5.771,25.319,30.974,41.167,56.294,35.396c25.319-5.771,41.167-30.974,35.396-56.294c-4.016-17.62-17.775-31.38-35.396-35.396
		V107.095h78.367v189.649c-25.319,5.771-41.167,30.974-35.396,56.294c5.771,25.319,30.974,41.167,56.294,35.396
		c25.319-5.771,41.167-30.974,35.396-56.294c-4.016-17.62-17.775-31.38-35.396-35.396V107.095h62.694
		c5.771,0,10.449-4.678,10.449-10.449C476.458,90.876,471.779,86.197,466.009,86.197z M48.049,368.32
		c-14.427,0-26.122-11.695-26.122-26.122c0-14.427,11.695-26.122,26.122-26.122c14.31,0.278,25.845,11.812,26.122,26.122
		C74.172,356.624,62.476,368.32,48.049,368.32z M220.458,342.197c0,14.427-11.695,26.122-26.122,26.122
		c-14.427,0-26.122-11.695-26.122-26.122c0-14.427,11.695-26.122,26.122-26.122C208.645,316.353,220.18,327.887,220.458,342.197z
		 M319.723,342.197c0,14.427-11.695,26.122-26.122,26.122s-26.122-11.695-26.122-26.122c0-14.427,11.695-26.122,26.122-26.122
		C307.911,316.353,319.445,327.887,319.723,342.197z M418.988,342.197c0,14.427-11.695,26.122-26.122,26.122
		c-14.427,0-26.122-11.695-26.122-26.122c0-14.427,11.695-26.122,26.122-26.122C407.176,316.353,418.71,327.887,418.988,342.197z"/>
</g>
<g>
</g>
<g>
</g>
<g>
</g>
<g>
</g>
<g>
</g>
<g>
</g>
<g>
</g>
<g>
</g>
<g>
</g>
<g>
</g>
<g>
</g>
<g>
</g>
<g>
</g>
<g>
</g>
<g>
</g>
</svg>
