<?xml version="1.0" encoding="iso-8859-1"?>
<!-- Generator: Adobe Illustrator 19.0.0, SVG Export Plug-In . SVG Version: 6.00 Build 0)  -->
<svg version="1.1" id="Capa_1" xmlns="http://www.w3.org/2000/svg" xmlns:xlink="http://www.w3.org/1999/xlink" x="0px" y="0px"
	 viewBox="0 0 459.76 459.76" style="enable-background:new 0 0 459.76 459.76;" xml:space="preserve">
<g>
	<path style="fill:#00EFD1;" d="M301.458,223.613v5.224c0.144,39.53-31.784,71.692-71.314,71.837
		c-39.53,0.144-71.692-31.784-71.837-71.314l0,0V82.029c0-39.53,32.045-71.576,71.576-71.576s71.576,32.045,71.576,71.576
		L301.458,223.613L301.458,223.613z"/>
	<g>
		<path style="fill:#083863;" d="M229.883,311.384c-45.301,0-82.024-36.724-82.024-82.024V82.029
			c0-45.301,36.724-82.024,82.024-82.024l0,0c21.799-0.232,42.747,8.449,57.992,24.033c15.584,15.245,24.265,36.193,24.033,57.992
			v146.808c0.289,45.3-36.2,82.257-81.5,82.545C230.232,311.384,230.057,311.384,229.883,311.384z M229.883,20.903
			c-33.759,0-61.127,27.367-61.127,61.127l0,0V229.36c0.144,33.759,27.629,61.01,61.388,60.865s61.01-27.628,60.865-61.388l0,0
			V82.029c0.29-33.469-26.608-60.837-60.077-61.127C230.582,20.899,230.232,20.899,229.883,20.903z"/>
		<path style="fill:#083863;" d="M355.27,159.874c-5.771,0-10.449,4.678-10.449,10.449v59.037
			c0.001,63.853-51.609,115.696-115.461,115.984c-30.617,0.041-59.972-12.191-81.502-33.959
			c-21.319-21.957-33.142-51.421-32.914-82.024v-59.037c0-5.771-4.678-10.449-10.449-10.449c-5.771,0-10.449,4.678-10.449,10.449
			v59.037c-0.418,36.269,13.912,71.152,39.706,96.653c22.579,23.5,53.156,37.67,85.682,39.706v73.143h-46.498
			c-5.771,0-10.449,4.678-10.449,10.449c0,5.771,4.678,10.449,10.449,10.449H286.83c5.771,0,10.449-4.678,10.449-10.449
			c0-5.771-4.678-10.449-10.449-10.449h-46.498v-73.143c71.114-5.485,125.873-65.036,125.388-136.359v-59.037
			C365.719,164.552,361.041,159.874,355.27,159.874z"/>
		<path style="fill:#083863;" d="M206.372,129.572h-48.065c-5.771,0-10.449-4.678-10.449-10.449c0-5.771,4.678-10.449,10.449-10.449
			h48.065c5.771,0,10.449,4.678,10.449,10.449C216.821,124.894,212.143,129.572,206.372,129.572z"/>
		<path style="fill:#083863;" d="M206.372,181.817h-48.065c-5.771,0-10.449-4.678-10.449-10.449c0-5.771,4.678-10.449,10.449-10.449
			h48.065c5.771,0,10.449,4.678,10.449,10.449C216.821,177.139,212.143,181.817,206.372,181.817z"/>
		<path style="fill:#083863;" d="M206.372,234.062h-48.065c-5.771,0-10.449-4.678-10.449-10.449c0-5.771,4.678-10.449,10.449-10.449
			h48.065c5.771,0,10.449,4.678,10.449,10.449C216.821,229.383,212.143,234.062,206.372,234.062z"/>
		<path style="fill:#083863;" d="M301.458,129.572h-48.065c-5.771,0-10.449-4.678-10.449-10.449c0-5.771,4.678-10.449,10.449-10.449
			h48.065c5.771,0,10.449,4.678,10.449,10.449C311.907,124.894,307.229,129.572,301.458,129.572z"/>
		<path style="fill:#083863;" d="M301.458,181.817h-48.065c-5.771,0-10.449-4.678-10.449-10.449c0-5.771,4.678-10.449,10.449-10.449
			h48.065c5.771,0,10.449,4.678,10.449,10.449C311.907,177.139,307.229,181.817,301.458,181.817z"/>
		<path style="fill:#083863;" d="M301.458,234.062h-48.065c-5.771,0-10.449-4.678-10.449-10.449c0-5.771,4.678-10.449,10.449-10.449
			h48.065c5.771,0,10.449,4.678,10.449,10.449C311.907,229.383,307.229,234.062,301.458,234.062z"/>
		<path style="fill:#083863;" d="M229.883,75.237c-5.771,0-10.449-4.678-10.449-10.449V14.633c0-5.771,4.678-10.449,10.449-10.449
			c5.771,0,10.449,4.678,10.449,10.449v50.155C240.332,70.559,235.653,75.237,229.883,75.237z"/>
	</g>
</g>
<g>
</g>
<g>
</g>
<g>
</g>
<g>
</g>
<g>
</g>
<g>
</g>
<g>
</g>
<g>
</g>
<g>
</g>
<g>
</g>
<g>
</g>
<g>
</g>
<g>
</g>
<g>
</g>
<g>
</g>
</svg>
