<?xml version="1.0" encoding="iso-8859-1"?>
<!-- Generator: Adobe Illustrator 19.0.0, SVG Export Plug-In . SVG Version: 6.00 Build 0)  -->
<svg version="1.1" id="Capa_1" xmlns="http://www.w3.org/2000/svg" xmlns:xlink="http://www.w3.org/1999/xlink" x="0px" y="0px"
	 viewBox="0 0 463.904 463.904" style="enable-background:new 0 0 463.904 463.904;" xml:space="preserve">
<g>
	<g>
		<path style="fill:#00ACEA;" d="M442.526,64.194c13.398,15.877,11.388,39.61-4.489,53.008c-14.119,11.914-34.8,11.812-48.801-0.24
			c-2.026-2.031-3.781-4.313-5.225-6.792l-61.649,61.127l-5.747,4.702c-3.776-5.68-8.155-10.935-13.061-15.673l-15.673-13.584
			l4.18-5.747l61.126-61.127c-2.504-1.405-4.792-3.165-6.792-5.224c-14.571-14.4-14.71-37.886-0.31-52.458
			c0.103-0.104,0.206-0.207,0.31-0.31c13.987-14.571,37.138-15.045,51.709-1.058c0.36,0.346,0.713,0.698,1.058,1.058
			c8.601,8.42,12.509,20.533,10.449,32.392C421.551,51.892,433.89,55.613,442.526,64.194z"/>
		<path style="fill:#00EFD1;" d="M316.615,175.998c39.884,54.564,34.354,129.991-13.061,178.155l-87.771,87.249
			c-2.612-20.376-35.004-66.351-80.98-112.327s-91.951-78.367-112.849-80.98l87.771-87.771
			c47.933-47.791,123.53-53.555,178.155-13.584l15.673,13.584C308.46,165.063,312.84,170.318,316.615,175.998z"/>
		<path style="fill:#00CEB4;" d="M21.954,248.096c20.898,2.612,66.351,34.482,112.849,80.98s78.367,91.951,80.98,112.327
			c0.79,3.289,0.019,6.759-2.09,9.404c-12.016,12.016-66.351-23.51-121.731-78.89S1.056,261.68,13.073,250.186
			C14.64,248.096,17.775,247.573,21.954,248.096z M141.073,378.186c3.135-3.135-6.792-18.286-21.943-33.437
			s-30.302-25.078-33.437-21.943s6.269,18.286,21.943,33.437S137.938,381.32,141.073,378.186z"/>
	</g>
	<g>
		<path style="fill:#083863;" d="M139.505,389.157c-9.404,0-22.465-8.359-39.706-25.6c-17.241-17.241-30.302-39.184-21.42-48.065
			c2.241-2.519,5.516-3.868,8.882-3.657l0,0c12.539,0,31.869,17.763,39.184,25.078c23.336,23.684,30.65,39.88,21.943,48.588
			C146.102,387.957,142.858,389.293,139.505,389.157z"/>
		<path style="fill:#083863;" d="M449.84,56.88c-7.871-7.799-18.22-12.604-29.257-13.584c-1.078-11.118-6.078-21.49-14.106-29.257
			c-18.522-18.611-48.625-18.683-67.236-0.16c-0.054,0.053-0.107,0.107-0.16,0.16c-18.343,18.355-18.805,47.955-1.045,66.873
			l-52.245,52.245c-58.314-36.796-134.292-28.571-183.38,19.853l-84.637,84.637c-4.731-0.111-9.287,1.787-12.539,5.224
			c-3.524,3.835-5.401,8.901-5.224,14.106c0,26.122,42.318,80.457,84.637,122.253c24.154,24.546,50.567,46.762,78.89,66.351
			c18.808,12.016,32.914,18.286,43.363,18.286c5.29,0.096,10.389-1.981,14.106-5.747c3.334-3.322,5.213-7.832,5.224-12.539
			l84.637-84.114c48.609-49,56.849-125.112,19.853-183.38l52.245-52.245c19.022,17.49,48.407,17.031,66.873-1.045
			C468.587,106.031,468.597,75.636,449.84,56.88z M99.277,364.602c-49.633-49.633-72.62-86.727-77.322-101.878l2.09-1.567
			l1.567-1.567c18.286,5.747,57.469,32.914,101.878,76.8s71.053,83.592,76.8,101.878l-1.567,1.567l-1.567,2.09
			C186.003,436.7,148.387,413.712,99.277,364.602z M295.717,346.839l-75.233,75.233c-12.016-25.6-40.229-62.694-78.367-100.31
			s-74.71-66.351-100.833-78.367l75.755-75.755c44.383-43.921,114.047-49.228,164.571-12.539l14.106,12.539
			c4.602,4.497,8.798,9.392,12.539,14.629C345.17,232.728,339.85,302.553,295.717,346.839z M435.211,109.647
			c-10.577,10.423-27.562,10.423-38.139,0c-1.678-1.289-3.096-2.884-4.18-4.702c-1.792-2.735-4.622-4.622-7.837-5.224
			c-3.147-0.533-6.339,0.664-8.359,3.135l-58.514,57.992l-7.314-7.837c-2.537-2.71-5.337-5.16-8.359-7.314l57.992-57.992
			c2.472-2.245,3.65-5.582,3.135-8.882c-0.399-3.294-2.338-6.202-5.224-7.837l-4.702-3.657
			c-11.814-9.249-13.893-26.325-4.644-38.139c9.249-11.814,26.325-13.893,38.139-4.644c1.73,1.354,3.289,2.914,4.644,4.644
			c6.122,5.962,8.866,14.585,7.314,22.988c-0.511,3.455,0.653,6.947,3.135,9.404c2.51,2.371,6.03,3.349,9.404,2.612
			c8.543-1.291,17.207,1.405,23.51,7.314C445.634,82.085,445.634,99.07,435.211,109.647z"/>
	</g>
</g>
<g>
</g>
<g>
</g>
<g>
</g>
<g>
</g>
<g>
</g>
<g>
</g>
<g>
</g>
<g>
</g>
<g>
</g>
<g>
</g>
<g>
</g>
<g>
</g>
<g>
</g>
<g>
</g>
<g>
</g>
</svg>
