<?xml version="1.0" encoding="iso-8859-1"?>
<!-- Generator: Adobe Illustrator 19.0.0, SVG Export Plug-In . SVG Version: 6.00 Build 0)  -->
<svg version="1.1" id="Capa_1" xmlns="http://www.w3.org/2000/svg" xmlns:xlink="http://www.w3.org/1999/xlink" x="0px" y="0px"
	 viewBox="0 0 428.408 428.408" style="enable-background:new 0 0 428.408 428.408;" xml:space="preserve">
<g>
	<g>
		<g>
			<polygon style="fill:#00EFD1;" points="416.392,125.781 416.392,303.414 214.204,396.41 214.204,219.3 			"/>
			<path style="fill:#00EFD1;" d="M416.392,125.781L214.204,219.3L12.016,125.781l202.188-92.996L416.392,125.781z M323.918,127.349
				c0-8.882-12.539-16.196-27.69-16.196s-28.212,7.314-28.212,16.196s12.539,16.718,28.212,16.718S323.918,136.753,323.918,127.349z
				 M240.327,163.92c0-8.882-12.539-16.196-27.69-16.196s-28.212,7.314-28.212,16.196c0,8.882,12.539,16.718,28.212,16.718
				S240.327,173.324,240.327,163.92z M235.102,85.553c0-8.882-12.539-16.196-27.69-16.196c-15.151,0-28.212,7.314-28.212,16.196
				s12.539,16.718,28.212,16.718S235.102,94.957,235.102,85.553z M151.51,122.124c0-8.882-12.539-16.196-27.69-16.196
				s-28.212,7.314-28.212,16.196s12.539,16.718,28.212,16.718S151.51,131.528,151.51,122.124z"/>
		</g>
		<g>
			<path style="fill:#00ACEA;" d="M296.229,111.153c15.151,0,27.69,7.314,27.69,16.196c0,8.882-12.539,16.718-27.69,16.718
				s-28.212-7.314-28.212-16.718S280.555,111.153,296.229,111.153z"/>
			<path style="fill:#00ACEA;" d="M212.637,147.724c15.151,0,27.69,7.314,27.69,16.196c0,8.882-12.539,16.718-27.69,16.718
				s-28.212-7.314-28.212-16.718C184.424,154.516,196.963,147.724,212.637,147.724z"/>
			<path style="fill:#00ACEA;" d="M207.412,69.357c15.151,0,27.69,7.314,27.69,16.196s-12.539,16.718-27.69,16.718
				c-15.151,0-28.212-7.314-28.212-16.718S191.739,69.357,207.412,69.357z"/>
		</g>
		<polygon style="fill:#00CEB4;" points="214.204,219.3 214.204,396.41 12.016,303.414 12.016,125.781 		"/>
		<path style="fill:#00ACEA;" d="M123.82,105.928c15.151,0,27.69,7.314,27.69,16.196s-12.539,16.718-27.69,16.718
			s-28.212-7.314-28.212-16.718S108.147,105.928,123.82,105.928z"/>
	</g>
	<g>
		<path style="fill:#083863;" d="M427.363,125.781c0-1.045-0.522-1.567-0.522-2.612h-0.522v-1.045c0-0.522-0.522-0.522-0.522-1.045
			c0-0.289-0.234-0.522-0.522-0.522l-1.567-2.09l0,0l-2.09-1.567h-0.522l-202.71-93.518c-2.688-1.049-5.672-1.049-8.359,0
			L7.837,116.377H7.314l-2.09,1.567l0,0l-1.567,2.09c-0.289,0-0.522,0.234-0.522,0.522l0,0c0,0.522-0.522,0.522-0.522,1.045
			c-0.033,0.403-0.22,0.777-0.522,1.045l0,0c0,1.045-1.045,1.567-1.045,2.612H0v178.155c0.286,4.173,2.92,7.82,6.792,9.404
			l202.71,92.996h8.882l203.233-92.996c3.872-1.584,6.506-5.231,6.792-9.404V125.781H427.363z M214.204,44.279l177.11,81.502
			l-177.11,82.024l-177.11-82.024L214.204,44.279z M20.898,142.5l182.857,83.592v154.122L20.898,296.622V142.5z M224.653,380.214
			V226.091L407.51,142.5v154.122L224.653,380.214z"/>
		<path style="fill:#083863;" d="M207.412,112.72c-21.943,0-38.661-11.494-38.661-27.167s16.718-26.645,38.661-26.645
			s38.139,11.494,38.139,26.645S228.833,112.72,207.412,112.72z M207.412,79.806c-6.447-0.498-12.83,1.567-17.763,5.747
			c0.522,1.567,6.269,6.269,17.763,6.269s16.718-4.702,17.241-6.269C225.175,83.985,217.861,79.806,207.412,79.806z"/>
		<path style="fill:#083863;" d="M296.229,154.516c-21.943,0-38.661-11.494-38.661-27.167s16.718-26.645,38.661-26.645
			c21.943,0,38.139,11.494,38.139,26.645S317.649,154.516,296.229,154.516z M296.229,121.602c-6.447-0.498-12.83,1.567-17.763,5.747
			c0.522,1.567,6.269,6.269,17.763,6.269s16.718-4.702,17.241-6.269C313.992,125.781,306.678,121.602,296.229,121.602z"/>
		<path style="fill:#083863;" d="M123.82,149.291c-21.943,0-38.661-11.494-38.661-27.167s16.718-26.645,38.661-26.645
			s38.139,11.494,38.139,26.645C161.959,137.275,145.241,149.291,123.82,149.291z M123.82,116.377
			c-6.447-0.498-12.83,1.567-17.763,5.747c0.522,1.567,6.269,6.269,17.763,6.269s16.718-4.702,17.241-6.269
			C141.584,120.557,134.269,116.377,123.82,116.377z"/>
		<path style="fill:#083863;" d="M212.637,191.087c-21.943,0-38.661-11.494-38.661-27.167s16.718-26.645,38.661-26.645
			s38.139,11.494,38.139,26.645C250.776,179.071,234.057,191.087,212.637,191.087z M212.637,158.173
			c-6.447-0.498-12.83,1.567-17.763,5.747c0.522,1.567,6.269,6.269,17.763,6.269s16.718-4.702,17.241-6.269
			C230.4,162.353,223.086,158.173,212.637,158.173z"/>
	</g>
</g>
<g>
</g>
<g>
</g>
<g>
</g>
<g>
</g>
<g>
</g>
<g>
</g>
<g>
</g>
<g>
</g>
<g>
</g>
<g>
</g>
<g>
</g>
<g>
</g>
<g>
</g>
<g>
</g>
<g>
</g>
</svg>
