<?xml version="1.0" encoding="iso-8859-1"?>
<!-- Generator: Adobe Illustrator 19.0.0, SVG Export Plug-In . SVG Version: 6.00 Build 0)  -->
<svg version="1.1" id="Capa_1" xmlns="http://www.w3.org/2000/svg" xmlns:xlink="http://www.w3.org/1999/xlink" x="0px" y="0px"
	 viewBox="0 0 437.812 437.812" style="enable-background:new 0 0 437.812 437.812;" xml:space="preserve">
<g>
	<g>
		<path style="fill:#00EFD1;" d="M422.139,47.543v343.249c0,20.198-16.374,36.571-36.571,36.571H52.245
			c-20.198,0-36.571-16.374-36.571-36.571V47.543c0-20.198,16.374-36.571,36.571-36.571h333.322
			C405.765,10.971,422.139,27.345,422.139,47.543z M369.894,375.118V245.551H245.029v129.567H369.894z M369.894,192.261V62.694
			H67.918v129.567H369.894z M192.784,375.118V245.551H67.918v129.567H192.784z"/>
		<g>
			<rect x="245.029" y="245.551" style="fill:#00ACEA;" width="124.865" height="129.567"/>
			<rect x="67.918" y="62.694" style="fill:#00ACEA;" width="301.976" height="129.567"/>
			<rect x="67.918" y="245.551" style="fill:#00ACEA;" width="124.865" height="129.567"/>
		</g>
	</g>
	<g>
		<path style="fill:#083863;" d="M385.567,437.812H52.245c-25.969,0-47.02-21.052-47.02-47.02V47.02C5.224,21.052,26.276,0,52.245,0
			h333.322c25.969,0,47.02,21.052,47.02,47.02v343.771C432.588,416.76,411.536,437.812,385.567,437.812z M52.245,20.898
			c-14.427,0-26.122,11.695-26.122,26.122v343.771c0,14.427,11.695,26.122,26.122,26.122h333.322
			c14.427,0,26.122-11.695,26.122-26.122V47.02c0-14.427-11.695-26.122-26.122-26.122H52.245z"/>
		<path style="fill:#083863;" d="M369.894,202.71H67.918c-5.771,0-10.449-4.678-10.449-10.449V62.171
			c0-5.771,4.678-10.449,10.449-10.449h301.976c5.771,0,10.449,4.678,10.449,10.449v130.09
			C380.343,198.032,375.665,202.71,369.894,202.71z M78.367,181.812h281.078V72.62H78.367L78.367,181.812z"/>
		<path style="fill:#083863;" d="M369.894,385.567H245.029c-5.771,0-10.449-4.678-10.449-10.449v-130.09
			c0-5.771,4.678-10.449,10.449-10.449h124.865c5.771,0,10.449,4.678,10.449,10.449v130.09
			C380.343,380.889,375.665,385.567,369.894,385.567z M255.478,364.669h103.967V255.478H255.478V364.669z"/>
		<path style="fill:#083863;" d="M192.784,385.567H67.918c-5.771,0-10.449-4.678-10.449-10.449v-130.09
			c0-5.771,4.678-10.449,10.449-10.449h124.865c5.771,0,10.449,4.678,10.449,10.449v130.09
			C203.233,380.889,198.554,385.567,192.784,385.567z M78.367,364.669h103.967V255.478H78.367V364.669z"/>
	</g>
</g>
<g>
</g>
<g>
</g>
<g>
</g>
<g>
</g>
<g>
</g>
<g>
</g>
<g>
</g>
<g>
</g>
<g>
</g>
<g>
</g>
<g>
</g>
<g>
</g>
<g>
</g>
<g>
</g>
<g>
</g>
</svg>
