<?xml version="1.0" encoding="iso-8859-1"?>
<!-- Generator: Adobe Illustrator 19.0.0, SVG Export Plug-In . SVG Version: 6.00 Build 0)  -->
<svg version="1.1" id="Capa_1" xmlns="http://www.w3.org/2000/svg" xmlns:xlink="http://www.w3.org/1999/xlink" x="0px" y="0px"
	 viewBox="0 0 491.12 491.12" style="enable-background:new 0 0 491.12 491.12;" xml:space="preserve">
<g>
	<g>
		<path style="fill:#00CEB4;" d="M481.707,363.112v18.808c0,28.854-23.391,52.245-52.245,52.245H61.658
			c-28.854,0-52.245-23.391-52.245-52.245v-18.808H481.707z"/>
		<path style="fill:#00EFD1;" d="M460.287,362.067v1.045H31.879V88.303c0-17.312,14.035-31.347,31.347-31.347H428.94
			c17.312,0,31.347,14.035,31.347,31.347V362.067z M412.221,314.001V100.842h-332.8v213.159H412.221z"/>
		<rect x="79.944" y="100.842" style="fill:#00ACEA;" width="332.8" height="213.159"/>
	</g>
	<g>
		<path style="fill:#083863;" d="M412.744,324.45H79.421c-5.771,0-10.449-4.678-10.449-10.449V100.842
			c0-5.771,4.678-10.449,10.449-10.449h333.322c5.771,0,10.449,4.678,10.449,10.449v213.159
			C423.193,319.772,418.515,324.45,412.744,324.45z M89.87,303.552h312.424V111.291H89.87V303.552z"/>
		<path style="fill:#083863;" d="M481.707,355.275h-11.494V88.303c0.002-22.795-18.475-41.275-41.27-41.277
			c-0.175,0-0.351,0.001-0.526,0.003H62.703C39.91,46.741,21.199,64.985,20.91,87.778c-0.002,0.175-0.003,0.35-0.003,0.526v266.971
			H9.413c-6.269,0-9.404,2.09-9.404,7.837v18.808c-0.578,33.754,26.316,61.586,60.07,62.165c0.526,0.009,1.052,0.011,1.579,0.007
			h367.804c33.758,0.293,61.362-26.835,61.656-60.593c0.005-0.526,0.002-1.052-0.007-1.579v-18.808
			C491.111,357.365,487.977,355.275,481.707,355.275z M41.805,88.303c-0.004-11.253,9.116-20.379,20.369-20.382
			c0.176,0,0.353,0.002,0.529,0.007h365.714c11.249-0.289,20.603,8.597,20.891,19.846c0.005,0.176,0.007,0.353,0.007,0.529v266.971
			H41.805V88.303z M470.213,381.92c0.579,22.21-16.956,40.684-39.166,41.263c-0.528,0.014-1.056,0.017-1.585,0.01H61.658
			c-22.216,0.296-40.465-17.473-40.761-39.689c-0.007-0.528-0.004-1.056,0.01-1.585v-5.747h449.306V381.92z"/>
	</g>
</g>
<g>
</g>
<g>
</g>
<g>
</g>
<g>
</g>
<g>
</g>
<g>
</g>
<g>
</g>
<g>
</g>
<g>
</g>
<g>
</g>
<g>
</g>
<g>
</g>
<g>
</g>
<g>
</g>
<g>
</g>
</svg>
