<?xml version="1.0" encoding="iso-8859-1"?>
<!-- Generator: Adobe Illustrator 19.0.0, SVG Export Plug-In . SVG Version: 6.00 Build 0)  -->
<svg version="1.1" id="Capa_1" xmlns="http://www.w3.org/2000/svg" xmlns:xlink="http://www.w3.org/1999/xlink" x="0px" y="0px"
	 viewBox="0 0 488.108 488.108" style="enable-background:new 0 0 488.108 488.108;" xml:space="preserve">
<g>
	<g>
		<polygon style="fill:#00ACEA;" points="467.095,381.98 476.499,437.36 421.642,437.36 421.642,411.238 379.846,411.238 
			379.846,437.36 324.989,437.36 334.393,381.98 		"/>
		<polygon style="fill:#00EFD1;" points="467.095,381.458 467.095,381.98 334.393,381.98 334.393,381.458 334.393,306.748 
			467.095,306.748 		"/>
		<rect x="379.846" y="411.238" style="fill:#00CEB4;" width="41.273" height="26.018"/>
		<polygon style="fill:#00ACEA;" points="310.361,120.756 319.765,176.136 264.907,176.136 264.907,150.013 223.112,150.013 
			223.112,176.136 168.254,176.136 177.658,120.756 		"/>
		<polygon style="fill:#00EFD1;" points="310.361,120.233 310.361,120.756 177.658,120.756 177.658,120.233 177.658,45.523 
			310.361,45.523 		"/>
		<rect x="223.112" y="150.013" style="fill:#00CEB4;" width="41.273" height="26.018"/>
		<polygon style="fill:#00ACEA;" points="153.626,381.98 163.03,437.36 108.173,437.36 108.173,411.238 66.377,411.238 
			66.377,437.36 11.52,437.36 20.924,381.98 		"/>
		<polygon style="fill:#00EFD1;" points="153.626,381.458 153.626,381.98 20.924,381.98 20.924,381.458 20.924,306.748 
			153.626,306.748 		"/>
		<rect x="66.377" y="411.238" style="fill:#00CEB4;" width="41.273" height="26.018"/>
	</g>
	<g>
		<path style="fill:#083863;" d="M331.258,174.046l-8.882-54.335V45.523c-0.792-6.018-5.947-10.501-12.016-10.449H177.658
			c-6.07-0.052-11.225,4.431-12.016,10.449v74.188l-8.882,54.335c-0.196,3.175,0.728,6.318,2.612,8.882
			c2.416,2.26,5.575,3.56,8.882,3.657h151.51c3.307-0.097,6.465-1.397,8.882-3.657C330.53,180.364,331.455,177.221,331.258,174.046z
			 M301.479,55.972v52.245H186.54V55.972H301.479z M254.458,165.687h-20.898v-5.224h20.898V165.687z M275.356,165.687v-15.673
			c0-5.771-4.678-10.449-10.449-10.449h-41.796c-5.771,0-10.449,4.678-10.449,10.449v15.673h-32.392l6.269-36.571h114.939
			l6.269,36.571H275.356z"/>
		<path style="fill:#083863;" d="M487.993,435.27l-8.882-54.335v-74.188c-0.791-6.018-5.947-10.501-12.016-10.449H334.393
			c-6.07-0.052-11.225,4.431-12.016,10.449v74.188l-8.882,54.335c-0.876,5.996,3.275,11.566,9.27,12.442
			c0.736,0.107,1.481,0.14,2.224,0.097h151.51c6.049,0.352,11.238-4.266,11.591-10.315
			C488.133,436.751,488.101,436.006,487.993,435.27z M458.214,317.197v52.245H343.275v-52.245H458.214z M411.193,426.911h-20.898
			v-5.224h20.898V426.911z M432.091,426.911v-15.673c0-5.771-4.678-10.449-10.449-10.449h-41.796
			c-5.771,0-10.449,4.678-10.449,10.449v15.673h-32.392l6.269-36.571h114.939l6.269,36.571H432.091z"/>
		<path style="fill:#083863;" d="M174.524,435.27l-8.882-54.335v-74.188c-0.791-6.018-5.947-10.501-12.016-10.449H20.924
			c-6.07-0.052-11.225,4.431-12.016,10.449v74.188L0.026,435.27c-0.196,3.175,0.728,6.318,2.612,8.882
			c2.416,2.26,5.575,3.56,8.882,3.657h151.51c3.307-0.097,6.465-1.397,8.882-3.657C173.795,441.588,174.72,438.445,174.524,435.27z
			 M144.744,317.197v52.245H29.805v-52.245H144.744z M97.724,426.911H76.826v-5.224h20.898V426.911z M118.622,426.911v-15.673
			c0-5.771-4.678-10.449-10.449-10.449H66.377c-5.771,0-10.449,4.678-10.449,10.449v15.673H23.536l6.269-36.571h114.939
			l6.269,36.571H118.622z"/>
		<path style="fill:#083863;" d="M74.214,283.238c-5.771,0-10.449-4.678-10.449-10.449c-0.074-54.657,24.729-106.378,67.396-140.539
			c4.811-3.187,11.295-1.87,14.481,2.942c2.772,4.186,2.176,9.751-1.42,13.254c-37.684,30.269-59.592,76.007-59.559,124.343
			C84.663,278.559,79.984,283.238,74.214,283.238z"/>
		<path style="fill:#083863;" d="M244.01,453.033c-19.37,0.019-38.611-3.158-56.947-9.404c-5.229-1.648-8.132-7.223-6.484-12.451
			c0.065-0.206,0.136-0.409,0.214-0.61c1.749-5.467,7.581-8.5,13.061-6.792c32.897,10.955,68.458,10.955,101.355,0
			c5.331-1.758,11.098,1.011,13.061,6.269c1.742,5.616-1.253,11.608-6.792,13.584C282.975,449.923,263.554,453.101,244.01,453.033z"
			/>
		<path style="fill:#083863;" d="M413.805,283.238c-5.771,0-10.449-4.678-10.449-10.449c0.072-51.754-25.077-100.297-67.396-130.09
			c-4.761-3.318-5.93-9.868-2.612-14.629c3.318-4.761,9.868-5.93,14.629-2.612c47.724,33.913,76.133,88.785,76.278,147.331
			C424.254,278.559,419.576,283.238,413.805,283.238z"/>
	</g>
</g>
<g>
</g>
<g>
</g>
<g>
</g>
<g>
</g>
<g>
</g>
<g>
</g>
<g>
</g>
<g>
</g>
<g>
</g>
<g>
</g>
<g>
</g>
<g>
</g>
<g>
</g>
<g>
</g>
<g>
</g>
</svg>
