<?xml version="1.0" encoding="iso-8859-1"?>
<!-- Generator: Adobe Illustrator 19.0.0, SVG Export Plug-In . SVG Version: 6.00 Build 0)  -->
<svg version="1.1" id="Capa_1" xmlns="http://www.w3.org/2000/svg" xmlns:xlink="http://www.w3.org/1999/xlink" x="0px" y="0px"
	 viewBox="0 0 476.544 476.544" style="enable-background:new 0 0 476.544 476.544;" xml:space="preserve">
<g>
	<g>
		<polygon style="fill:#00ACEA;" points="466.102,217.41 411.245,217.41 65.906,217.41 10.526,217.41 240.404,23.581 		"/>
		<path style="fill:#00EFD1;" d="M411.245,218.455v204.278c0,17.312-14.035,31.347-31.347,31.347H356.91V328.692
			c0-14.427-11.695-26.122-26.122-26.122H278.02c-14.427,0-26.122,11.695-26.122,26.122v124.865H97.253
			c-17.312,0-31.347-14.035-31.347-31.347v-204.8h345.339V218.455z M198.608,361.606v-53.812h-68.441v53.812H198.608z"/>
		<g>
			<path style="fill:#87E680;" d="M356.91,453.557H251.898V328.692c0-14.427,11.695-26.122,26.122-26.122h52.767
				c14.427,0,26.122,11.695,26.122,26.122V453.557z"/>
			<rect x="130.167" y="307.794" style="fill:#87E680;" width="68.441" height="53.812"/>
		</g>
	</g>
	<g>
		<path style="fill:#083863;" d="M198.608,372.055h-68.441c-5.771,0-10.449-4.678-10.449-10.449v-53.812
			c0-5.771,4.678-10.449,10.449-10.449h68.441c5.771,0,10.449,4.678,10.449,10.449v53.812
			C209.057,367.377,204.379,372.055,198.608,372.055z M140.616,351.157h47.543v-32.914h-47.543V351.157z"/>
		<path style="fill:#083863;" d="M472.894,209.573L247.196,15.745c-3.819-3.583-9.765-3.583-13.584,0L3.735,209.573
			c-3.341,2.802-4.59,7.384-3.135,11.494c1.496,4.243,5.431,7.142,9.927,7.314h44.931v194.351
			c0.287,22.793,18.996,41.038,41.789,40.751c0.002,0,0.004,0,0.007,0h282.645c22.504,0.289,40.982-17.721,41.27-40.225
			c0.002-0.175,0.003-0.351,0.003-0.526V228.381h44.931c4.495-0.172,8.43-3.072,9.927-7.314
			C477.336,216.953,476.109,212.454,472.894,209.573z M348.029,442.585h-83.592V328.692c0-8.882,4.702-16.718,13.584-16.718h52.767
			c9.214,0.255,16.702,7.516,17.241,16.718V442.585z M400.273,422.732c0.004,10.965-8.882,19.856-19.846,19.86
			c-0.176,0-0.353-0.002-0.529-0.007h-10.971V328.692c-0.559-20.742-17.391-37.343-38.139-37.616H278.02
			c-20.376,0-34.482,17.241-34.482,37.616v113.894H97.253c-10.949,0.577-20.293-7.831-20.87-18.781
			c-0.019-0.357-0.028-0.715-0.028-1.072V228.381h323.918V422.732z M39.261,207.483L240.404,37.687L437.89,207.483H39.261z"/>
	</g>
</g>
<g>
</g>
<g>
</g>
<g>
</g>
<g>
</g>
<g>
</g>
<g>
</g>
<g>
</g>
<g>
</g>
<g>
</g>
<g>
</g>
<g>
</g>
<g>
</g>
<g>
</g>
<g>
</g>
<g>
</g>
</svg>
