<?xml version="1.0" encoding="iso-8859-1"?>
<!-- Generator: Adobe Illustrator 19.0.0, SVG Export Plug-In . SVG Version: 6.00 Build 0)  -->
<svg version="1.1" id="Capa_1" xmlns="http://www.w3.org/2000/svg" xmlns:xlink="http://www.w3.org/1999/xlink" x="0px" y="0px"
	 viewBox="0 0 355.265 355.265" style="enable-background:new 0 0 355.265 355.265;" xml:space="preserve">
<path style="fill:#00EFD1;" d="M286.302,200.098c8.882,46.498-19.853,109.714-106.057,144.196c-1.045,0.522-2.09,0.522-2.612,0.522
	c-1.045,0-2.09,0-2.612-0.522C89.339,309.812,59.559,246.596,68.963,199.575c6.269-31.869,28.212-52.245,57.469-52.245
	c16.196,0,33.959,6.269,51.2,19.853c17.241-12.539,34.482-19.331,50.678-19.331C257.567,147.853,280.033,168.751,286.302,200.098z"
	/>
<g>
	<path style="fill:#083863;" d="M177.633,73.143c-5.747,0-10.449-4.702-10.449-10.449V10.449C167.184,4.702,171.886,0,177.633,0
		c5.747,0,10.449,4.702,10.449,10.449v52.245C188.082,68.441,183.38,73.143,177.633,73.143z"/>
	<path style="fill:#083863;" d="M297.796,112.327c-2.09,0-4.18-0.522-6.269-2.09c-4.702-3.657-5.747-9.926-2.09-14.629
		l31.347-41.796c3.657-4.702,9.927-5.747,14.629-2.09c4.702,3.657,5.747,9.926,2.09,14.629l-31.347,41.796
		C304.065,111.282,300.931,112.327,297.796,112.327z"/>
	<path style="fill:#083863;" d="M57.469,112.327c-3.135,0-6.269-1.567-8.359-4.18L17.763,66.351
		c-3.657-4.702-2.612-10.971,2.09-14.629c4.702-3.657,10.971-2.612,14.629,2.09l31.347,41.796c3.657,4.702,2.612,10.971-2.09,14.629
		C61.649,111.804,59.559,112.327,57.469,112.327z"/>
	<path style="fill:#083863;" d="M177.633,355.265c-1.567,0-4.18,0-6.792-1.567C79.412,316.604,48.588,248.686,59.037,197.486
		c6.792-36.571,33.437-60.604,67.396-60.604c16.718,0,34.482,5.747,51.2,17.241c17.241-10.971,33.959-16.718,50.678-16.718
		c33.959,0,60.604,24.033,67.918,60.604l0,0c9.926,51.2-21.42,119.118-111.804,155.69
		C181.812,355.265,179.2,355.265,177.633,355.265z M126.433,157.78c-24.033,0-41.796,16.718-47.02,43.886
		c-8.359,42.841,18.808,99.788,98.22,132.702c78.89-32.392,106.58-89.339,98.22-132.18c-5.747-27.167-24.033-43.886-47.543-43.886
		c-14.106,0-29.257,5.747-44.931,17.241c-3.657,2.612-8.882,2.612-12.539,0C156.212,164.049,140.539,157.78,126.433,157.78z"/>
</g>
<g>
</g>
<g>
</g>
<g>
</g>
<g>
</g>
<g>
</g>
<g>
</g>
<g>
</g>
<g>
</g>
<g>
</g>
<g>
</g>
<g>
</g>
<g>
</g>
<g>
</g>
<g>
</g>
<g>
</g>
</svg>
