<?xml version="1.0" encoding="iso-8859-1"?>
<!-- Generator: Adobe Illustrator 19.0.0, SVG Export Plug-In . SVG Version: 6.00 Build 0)  -->
<svg version="1.1" id="Capa_1" xmlns="http://www.w3.org/2000/svg" xmlns:xlink="http://www.w3.org/1999/xlink" x="0px" y="0px"
	 viewBox="0 0 462.89 462.89" style="enable-background:new 0 0 462.89 462.89;" xml:space="preserve">
<g>
	<g>
		<path style="fill:#00EFD1;" d="M308.245,68.963v67.918c0,28.854-23.391,52.245-52.245,52.245c0,0,0,0,0,0h-47.02
			c-28.854,0-52.245-23.391-52.245-52.245V68.963L308.245,68.963z"/>
		<path style="fill:#87E680;" d="M229.878,326.008v15.151h-14.629c-55.438-2.407-99.754-46.95-101.878-102.4v-15.151h15.151
			C183.757,226.279,227.774,270.75,229.878,326.008z"/>
		<path style="fill:#3BB54A;" d="M350.041,300.408v15.151c-2.651,55.33-47.057,99.509-102.4,101.878H232.49v-14.629
			c2.651-55.33,47.057-99.509,102.4-101.878L350.041,300.408z"/>
	</g>
	<path style="fill:#083863;" d="M357.355,293.094c-2.055-2.1-4.9-3.238-7.837-3.135h-15.673
		c-37.077,1.828-71.136,20.986-91.951,51.722V200.098H256c34.973-0.272,63.416-28.253,64.261-63.216V68.963
		c-0.808-5.934-6.036-10.253-12.016-9.927H283.69V10.449C283.69,4.678,279.012,0,273.241,0c-5.771,0-10.449,4.678-10.449,10.449
		v48.588h-62.694V10.449C200.098,4.678,195.42,0,189.649,0C183.878,0,179.2,4.678,179.2,10.449v48.588h-22.465
		c-4.905-0.034-8.909,3.915-8.943,8.82c-0.003,0.37,0.018,0.74,0.061,1.107v67.918c-0.582,34.331,26.778,62.634,61.109,63.216
		c0.006,0,0.012,0,0.018,0h12.016v67.396c-20.32-32.08-55.057-52.18-92.996-53.812h-15.151c-2.756,0.039-5.385,1.166-7.314,3.135
		c-2.1,2.055-3.238,4.9-3.135,7.837v15.151c2.422,60.629,51.165,109.143,111.804,111.282h6.792v101.355
		c0,5.771,4.678,10.449,10.449,10.449c5.771,0,10.449-4.678,10.449-10.449v-24.555h5.747
		c60.509-2.893,108.912-51.295,111.804-111.804l1.045-15.151C360.593,297.994,359.456,295.149,357.355,293.094z M168.751,136.882
		V79.935h130.612v56.947c-0.836,23.422-19.928,42.054-43.363,42.318h-47.02c-22.788-0.57-40.799-19.504-40.229-42.292
		C168.751,136.899,168.751,136.89,168.751,136.882z M215.771,330.188c-49.985-1.878-90.073-41.966-91.951-91.951v-3.657h3.657
		c49.985,1.878,90.073,41.966,91.951,91.951v3.657L215.771,330.188z M339.069,315.037c-2.368,49.769-42.182,89.583-91.951,91.951
		h-3.657v-3.657c2.368-49.769,42.182-89.583,91.951-91.951h3.657V315.037z"/>
</g>
<g>
</g>
<g>
</g>
<g>
</g>
<g>
</g>
<g>
</g>
<g>
</g>
<g>
</g>
<g>
</g>
<g>
</g>
<g>
</g>
<g>
</g>
<g>
</g>
<g>
</g>
<g>
</g>
<g>
</g>
</svg>
