<?xml version="1.0" encoding="iso-8859-1"?>
<!-- Generator: Adobe Illustrator 19.0.0, SVG Export Plug-In . SVG Version: 6.00 Build 0)  -->
<svg version="1.1" id="Capa_1" xmlns="http://www.w3.org/2000/svg" xmlns:xlink="http://www.w3.org/1999/xlink" x="0px" y="0px"
	 viewBox="0 0 476.811 476.811" style="enable-background:new 0 0 476.811 476.811;" xml:space="preserve">
<g>
	<g>
		<polygon style="fill:#00ACEA;" points="276.379,115.63 276.379,139.14 203.236,139.14 203.236,65.997 276.379,65.997 
			276.379,102.569 		"/>
		<g>
			<rect x="318.175" y="332.446" style="fill:#00EFD1;" width="73.143" height="73.143"/>
			<polygon style="fill:#00EFD1;" points="161.44,332.446 161.44,405.589 88.297,405.589 88.297,332.446 122.256,332.446 			"/>
			<ellipse style="fill:#00EFD1;" cx="435.726" cy="102.569" rx="34.482" ry="35.527"/>
			<ellipse style="fill:#00EFD1;" cx="44.934" cy="102.569" rx="34.482" ry="35.527"/>
		</g>
	</g>
	<path style="fill:#083863;" d="M435.726,58.161c-21.419,0.326-39.702,15.563-43.886,36.571H287.35V58.161h-94.041v36.571H88.82
		c-4.183-21.009-22.467-36.245-43.886-36.571c-24.814,0-44.931,20.116-44.931,44.931c-0.298,25.283,19.661,46.17,44.931,47.02
		c21.42,0,39.184-18.808,43.886-34.482h95.086c-43.886,20.898-74.188,62.694-74.188,112.327v96.653H78.371v94.041h94.041V324.61
		h-41.796v-96.653c0-41.273,26.122-78.367,62.694-96.131v20.376h94.041v-20.898c36.571,17.763,57.469,54.335,57.469,96.131v97.175
		h-36.571v94.041h94.041V324.61h-36.571v-97.175c1.046-47.454-25.704-91.152-68.441-111.804h94.563
		c4.702,15.673,22.465,33.959,43.886,33.959c25.247-2.703,43.523-25.361,40.82-50.608C474.242,77.463,457.244,60.464,435.726,58.161
		z M151.514,397.752H99.269v-52.245h52.245V397.752z M381.391,397.752h-52.245v-52.245h52.245V397.752z M44.934,127.646
		c-13.85,0-25.078-11.228-25.078-25.078s11.228-25.078,25.078-25.078s25.078,11.228,25.078,25.078S58.784,127.646,44.934,127.646
		L44.934,127.646z M266.452,131.303h-52.245V79.059h52.245V131.303z M435.726,127.646c-13.838,0.577-25.524-10.173-26.101-24.011
		c-0.577-13.838,10.173-25.524,24.011-26.101c13.838-0.577,25.524,10.173,26.101,24.011c0.014,0.341,0.021,0.682,0.022,1.023
		C459.77,116.021,449.166,127.086,435.726,127.646z"/>
</g>
<g>
</g>
<g>
</g>
<g>
</g>
<g>
</g>
<g>
</g>
<g>
</g>
<g>
</g>
<g>
</g>
<g>
</g>
<g>
</g>
<g>
</g>
<g>
</g>
<g>
</g>
<g>
</g>
<g>
</g>
</svg>
