<?xml version="1.0" encoding="iso-8859-1"?>
<!-- Generator: Adobe Illustrator 19.0.0, SVG Export Plug-In . SVG Version: 6.00 Build 0)  -->
<svg version="1.1" id="Capa_1" xmlns="http://www.w3.org/2000/svg" xmlns:xlink="http://www.w3.org/1999/xlink" x="0px" y="0px"
	 viewBox="0 0 469.159 469.159" style="enable-background:new 0 0 469.159 469.159;" xml:space="preserve">
<g>
	<g>
		<polygon style="fill:#FEDB41;" points="458.71,357.359 458.71,399.155 329.665,399.155 329.665,353.179 348.996,312.428 
			438.857,312.428 		"/>
		<polygon style="fill:#FEDB41;" points="299.363,357.359 299.363,399.155 169.796,399.155 169.796,353.179 189.649,312.428 
			279.51,312.428 		"/>
		<polygon style="fill:#FEDB41;" points="139.494,357.359 139.494,399.155 10.449,399.155 10.449,353.179 30.302,312.428 
			120.163,312.428 		"/>
		<polygon style="fill:#FEDB41;" points="390.792,236.151 390.792,277.947 261.747,277.947 261.747,232.494 281.6,191.22 
			371.461,191.22 		"/>
		<polygon style="fill:#FEDB41;" points="234.057,236.151 234.057,277.947 105.012,277.947 105.012,232.494 124.865,191.22 
			214.727,191.22 		"/>
		<polygon style="fill:#FEDB41;" points="299.363,115.465 299.363,156.739 169.796,156.739 169.796,111.286 189.649,70.012 
			279.51,70.012 		"/>
	</g>
	<g>
		<path style="fill:#083863;" d="M139.494,409.604H10.449C4.678,409.604,0,404.926,0,399.155v-45.976
			c0.095-1.613,0.448-3.2,1.045-4.702l19.853-40.751c1.686-3.64,5.396-5.907,9.404-5.747h89.861
			c4.092,0.068,7.768,2.518,9.404,6.269l19.331,44.931c0.587,1.322,0.94,2.737,1.045,4.18v41.796
			C149.943,404.926,145.265,409.604,139.494,409.604z M20.898,388.706h108.147v-29.257l-15.673-36.571H37.094l-16.196,32.914
			L20.898,388.706z"/>
		<rect x="32.392" y="347.955" style="fill:#083863;" width="20.898" height="28.735"/>
		<rect x="96.653" y="347.955" style="fill:#083863;" width="20.898" height="28.735"/>
		<rect x="64.784" y="347.955" style="fill:#083863;" width="20.898" height="28.735"/>
		<path style="fill:#083863;" d="M299.363,409.604H169.796c-5.771,0-10.449-4.678-10.449-10.449v-45.976
			c0.095-1.613,0.448-3.2,1.045-4.702l19.853-40.751c1.686-3.64,5.396-5.907,9.404-5.747h89.861
			c4.092,0.068,7.768,2.518,9.404,6.269l19.853,44.931c0.65,1.3,1.007,2.727,1.045,4.18v41.796
			C309.812,404.926,305.134,409.604,299.363,409.604z M180.245,388.706h108.669v-29.257l-16.196-36.571h-76.278l-16.196,32.914
			V388.706z"/>
		<rect x="192.261" y="347.955" style="fill:#083863;" width="20.898" height="28.735"/>
		<rect x="256" y="347.955" style="fill:#083863;" width="20.898" height="28.735"/>
		<rect x="224.131" y="347.955" style="fill:#083863;" width="20.898" height="28.735"/>
		<path style="fill:#083863;" d="M458.71,409.604H329.665c-5.771,0-10.449-4.678-10.449-10.449v-45.976
			c0.095-1.613,0.448-3.2,1.045-4.702l19.331-40.751c1.686-3.64,5.396-5.907,9.404-5.747h89.861
			c4.092,0.068,7.768,2.518,9.404,6.269l19.853,44.931c0.65,1.3,1.007,2.727,1.045,4.18v41.796
			C469.159,404.926,464.481,409.604,458.71,409.604z M340.114,388.706h108.147v-29.257l-16.196-36.571h-76.278l-15.673,32.914
			V388.706z"/>
		<rect x="351.608" y="347.955" style="fill:#083863;" width="20.898" height="28.735"/>
		<rect x="415.869" y="347.955" style="fill:#083863;" width="20.898" height="28.735"/>
		<rect x="383.478" y="347.955" style="fill:#083863;" width="20.898" height="28.735"/>
		<path style="fill:#083863;" d="M234.057,288.396H105.012c-5.771,0-10.449-4.678-10.449-10.449v-45.453
			c0.095-1.613,0.448-3.2,1.045-4.702l19.853-41.273c1.686-3.64,5.396-5.907,9.404-5.747h89.861
			c4.092,0.068,7.768,2.518,9.404,6.269l19.331,44.931c0.587,1.322,0.94,2.737,1.045,4.18v41.796
			C244.506,283.718,239.828,288.396,234.057,288.396z M115.461,267.498h108.147v-29.257l-15.673-36.571h-76.278l-16.196,33.437
			L115.461,267.498z"/>
		<rect x="126.955" y="226.747" style="fill:#083863;" width="20.898" height="28.735"/>
		<rect x="191.216" y="226.747" style="fill:#083863;" width="20.898" height="28.735"/>
		<rect x="159.347" y="226.747" style="fill:#083863;" width="20.898" height="28.735"/>
		<path style="fill:#083863;" d="M390.792,288.396H261.747c-5.771,0-10.449-4.678-10.449-10.449v-45.453
			c0.095-1.613,0.448-3.2,1.045-4.702l19.853-41.273c1.686-3.64,5.396-5.907,9.404-5.747h89.861
			c4.092,0.068,7.768,2.518,9.404,6.269l19.331,44.931c0.587,1.322,0.94,2.737,1.045,4.18v41.796
			C401.241,283.718,396.563,288.396,390.792,288.396z M272.196,267.498h108.147v-29.257l-15.673-36.571h-76.278l-16.196,33.437
			V267.498z"/>
		<rect x="283.69" y="226.747" style="fill:#083863;" width="20.898" height="28.735"/>
		<rect x="347.951" y="226.747" style="fill:#083863;" width="20.898" height="28.735"/>
		<rect x="316.082" y="226.747" style="fill:#083863;" width="20.898" height="28.735"/>
		<path style="fill:#083863;" d="M299.363,167.188H169.796c-5.771,0-10.449-4.678-10.449-10.449v-45.453
			c0.095-1.613,0.448-3.2,1.045-4.702l19.853-41.273c1.686-3.64,5.396-5.907,9.404-5.747h89.861
			c4.092,0.068,7.768,2.518,9.404,6.269l19.853,45.453c0.587,1.322,0.94,2.737,1.045,4.18v41.273
			C309.812,162.509,305.134,167.188,299.363,167.188z M180.245,146.29h108.669v-28.735l-16.196-37.094h-76.278l-16.196,33.437
			V146.29z"/>
		<rect x="192.261" y="106.061" style="fill:#083863;" width="20.898" height="28.735"/>
		<rect x="256" y="106.061" style="fill:#083863;" width="20.898" height="28.735"/>
		<rect x="224.131" y="106.061" style="fill:#083863;" width="20.898" height="28.735"/>
	</g>
</g>
<g>
</g>
<g>
</g>
<g>
</g>
<g>
</g>
<g>
</g>
<g>
</g>
<g>
</g>
<g>
</g>
<g>
</g>
<g>
</g>
<g>
</g>
<g>
</g>
<g>
</g>
<g>
</g>
<g>
</g>
</svg>
