<?xml version="1.0" encoding="iso-8859-1"?>
<!-- Generator: Adobe Illustrator 19.0.0, SVG Export Plug-In . SVG Version: 6.00 Build 0)  -->
<svg version="1.1" id="Capa_1" xmlns="http://www.w3.org/2000/svg" xmlns:xlink="http://www.w3.org/1999/xlink" x="0px" y="0px"
	 viewBox="0 0 428.408 428.408" style="enable-background:new 0 0 428.408 428.408;" xml:space="preserve">
<g>
	<g>
		<path style="fill:#00EFD1;" d="M295.706,196.441v5.224c0.006,45.012-36.479,81.507-81.492,81.512
			c-45.012,0.006-81.507-36.479-81.512-81.492c0-0.007,0-0.014,0-0.021v-33.437c27.167,0,27.167,28.212,54.335,28.212
			s27.167-28.212,54.335-28.212S268.539,196.441,295.706,196.441z"/>
		<path style="fill:#D4E1F4;" d="M295.706,10.971v185.469c-27.167,0-27.167-28.212-54.335-28.212s-27.167,28.212-54.335,28.212
			s-27.167-28.212-54.335-28.212V10.971H295.706z"/>
	</g>
	<path style="fill:#083863;" d="M295.706,0H132.702c-6.272,0.171-11.537,4.777-12.539,10.971v190.694
		c0,47.02,37.616,86.204,83.592,91.429V407.51h-39.184c-5.771,0-10.449,4.678-10.449,10.449s4.678,10.449,10.449,10.449h99.265
		c5.771,0,10.449-4.678,10.449-10.449s-4.678-10.449-10.449-10.449h-39.184V293.094c45.976-5.224,83.592-44.408,83.592-91.429
		V10.971C307.243,4.777,301.978,0.171,295.706,0z M287.347,20.898V183.38c-4.114-1.89-7.702-4.76-10.449-8.359
		c-7.314-7.837-16.718-17.241-35.004-17.241s-27.69,9.404-35.004,17.241c-7.314,7.837-10.971,10.971-19.853,10.971
		s-13.584-3.657-20.376-10.971s-9.927-13.061-25.6-16.196V20.898H287.347z M213.159,272.718
		c-39.414,0.004-71.527-31.643-72.098-71.053V181.29c4.114,1.89,7.702,4.76,10.449,8.359c7.314,7.837,16.718,17.241,35.004,17.241
		s27.69-9.404,35.004-17.241c7.314-7.837,10.971-10.971,19.853-10.971s12.539,3.657,19.331,10.971
		c6.792,7.314,12.539,13.061,24.033,15.673C282.267,243.093,251.01,272.525,213.159,272.718z"/>
</g>
<g>
</g>
<g>
</g>
<g>
</g>
<g>
</g>
<g>
</g>
<g>
</g>
<g>
</g>
<g>
</g>
<g>
</g>
<g>
</g>
<g>
</g>
<g>
</g>
<g>
</g>
<g>
</g>
<g>
</g>
</svg>
