<?xml version="1.0" encoding="iso-8859-1"?>
<!-- Generator: Adobe Illustrator 19.0.0, SVG Export Plug-In . SVG Version: 6.00 Build 0)  -->
<svg version="1.1" id="Capa_1" xmlns="http://www.w3.org/2000/svg" xmlns:xlink="http://www.w3.org/1999/xlink" x="0px" y="0px"
	 viewBox="0 0 452.503 452.503" style="enable-background:new 0 0 452.503 452.503;" xml:space="preserve">
<g>
	<g>
		<g>
			<path style="fill:#D4E1F4;" d="M356.446,87.311c-5.224,8.882-31.347,16.718-68.441,20.376l17.763-44.408
				c31.347,4.702,51.722,12.016,51.722,20.898C357.386,85.287,357.028,86.359,356.446,87.311z"/>
			<path style="fill:#D4E1F4;" d="M356.446,87.311l-21.943,149.42h-0.522c0-10.449-38.661-18.808-88.816-20.376
				c12.016-29.257,28.212-71.053,42.841-108.669C325.099,104.029,351.221,96.192,356.446,87.311z"/>
		</g>
		<path style="fill:#00EFD1;" d="M334.503,236.731L306.29,425.335c0,9.404-33.437,16.718-75.233,16.718s-76.278-7.314-76.278-16.718
			l-27.69-188.082h1.567c0,10.971,44.931,20.376,100.833,20.376h2.09c56.424,0,102.4-8.882,102.4-20.376L334.503,236.731z"/>
		<path style="fill:#00CEB4;" d="M245.164,216.356c50.155,1.567,88.816,9.927,88.816,20.376c0,10.449-45.975,20.376-102.4,20.376
			h-2.09L245.164,216.356z"/>
		<g>
			<path style="fill:#D4E1F4;" d="M305.768,63.278l-17.763,44.408c-18.903,2.174-37.919,3.22-56.947,3.135
				c-26.039,0.093-52.052-1.653-77.845-5.224v-2.612c3.087-7.476,4.854-15.431,5.224-23.51c-0.062-5.498-0.942-10.957-2.612-16.196
				l0,0c24.745-3.543,49.713-5.289,74.71-5.224C255.706,57.964,280.851,59.71,305.768,63.278z"/>
			<path style="fill:#D4E1F4;" d="M111.417,133.286l-6.792-47.02c2.09,7.837,20.898,14.629,48.588,19.331
				c25.793,3.571,51.806,5.317,77.845,5.224c19.028,0.086,38.044-0.961,56.947-3.135c-14.629,37.616-30.824,79.412-42.841,108.669
				H231.58c-56.947,0-102.922,8.882-102.922,20.376h-1.567L111.417,133.286z"/>
		</g>
		<path style="fill:#00CEB4;" d="M231.58,216.356h13.584l-15.673,40.751c-55.902,0-100.833-9.404-100.833-20.376
			C128.658,225.76,174.633,216.356,231.58,216.356z"/>
		<path style="fill:#00ACEA;" d="M156.348,63.278c1.67,5.239,2.55,10.698,2.612,16.196c-0.37,8.08-2.138,16.034-5.224,23.51v2.612
			c-27.69-4.702-46.498-11.494-48.588-19.331v-1.567c0,0.522,0.522,1.045,0.522,1.567l6.792,47.02h-8.359
			c-30.008,0-54.335-24.326-54.335-54.335s24.326-54.335,54.335-54.335C128.044,24.855,149.121,40.452,156.348,63.278z"/>
	</g>
	<path style="fill:#083863;" d="M404.511,2.674L361.67,0.062c-24.822-1.137-47.655,13.526-56.947,36.571l-5.747,15.151
		c-22.53-2.807-45.214-4.203-67.918-4.18c-22.703,0.01-45.385,1.406-67.918,4.18c-11.166-22.457-33.959-36.778-59.037-37.094
		c-35.779-0.433-65.135,28.221-65.567,64c-0.433,35.779,28.221,65.135,64,65.567l42.318,282.122
		c1.567,23.51,60.604,26.122,86.204,26.122s84.114-2.612,85.682-26.122l49.633-336.457c0.997-1.754,1.536-3.73,1.567-5.747
		c0-8.882-5.747-20.898-48.065-29.257l4.702-10.971c5.757-14.431,20.004-23.65,35.527-22.988l42.841,2.612
		c5.452,0.577,10.339-3.375,10.916-8.826c0.039-0.365,0.057-0.733,0.055-1.1c0.583-5.451-3.363-10.343-8.814-10.926
		C404.905,2.698,404.708,2.683,404.511,2.674z M326.666,217.923c-12.539-5.224-33.437-9.404-66.351-10.971l35.004-89.339
		c16.134-1.746,32.058-5.071,47.543-9.927L326.666,217.923z M144.854,236.731c12.539-4.702,41.273-9.927,85.159-9.927l-7.837,19.853
		C182.992,246.135,156.87,240.911,144.854,236.731z M121.866,131.719L121.866,131.719l-3.657-23.51
		c10.828,3.817,22.04,6.445,33.437,7.837c26.28,3.985,52.832,5.906,79.412,5.747c14.106,0,27.69-0.522,41.273-1.567l-34.482,85.682
		h-6.792c-24.033,0-71.053,1.567-96.131,12.539L121.866,131.719z M251.956,227.327c34.482,1.567,55.38,5.747,65.829,9.404
		c-11.494,4.18-36.049,8.882-73.143,9.927L251.956,227.327z M291.139,71.637L280.69,98.282c-15.673,1.045-32.392,2.09-49.633,2.09
		c-21.478,0.206-42.945-1.016-64.261-3.657c1.631-5.606,2.51-11.403,2.612-17.241c0-2.612-0.522-4.702-0.522-7.314
		c20.644-2.322,41.397-3.543,62.171-3.657C251.128,68.436,271.186,69.482,291.139,71.637z M60.739,79.474
		c-0.002-24.035,19.33-43.6,43.363-43.886c19.307-0.017,36.413,12.443,42.318,30.824c1.242,4.249,1.944,8.637,2.09,13.061
		c-0.152,4.807-1.033,9.563-2.612,14.106c-20.376-4.18-29.257-8.882-31.347-10.449c-0.787-5.425-5.824-9.185-11.249-8.398
		c-0.082,0.012-0.163,0.025-0.244,0.039c-5.152,0.781-8.941,5.239-8.882,10.449h-0.522c0.265,1.028,0.44,2.077,0.522,3.135
		l5.224,35.004C77.223,120.701,60.581,101.81,60.739,79.474z M296.364,422.201c-5.747,3.657-28.212,9.404-65.306,9.404
		s-60.082-5.747-65.829-9.404l-24.555-164.571c25.6,8.882,66.351,10.449,88.294,10.449h2.09c22.465,0,63.739-1.567,89.861-9.927
		L296.364,422.201z M344.429,84.176c-5.224,3.135-17.241,7.314-40.229,10.971l7.837-19.853h0.522
		C323.58,76.578,334.333,79.575,344.429,84.176L344.429,84.176z"/>
</g>
<g>
</g>
<g>
</g>
<g>
</g>
<g>
</g>
<g>
</g>
<g>
</g>
<g>
</g>
<g>
</g>
<g>
</g>
<g>
</g>
<g>
</g>
<g>
</g>
<g>
</g>
<g>
</g>
<g>
</g>
</svg>
