<?xml version="1.0" encoding="iso-8859-1"?>
<!-- Generator: Adobe Illustrator 19.0.0, SVG Export Plug-In . SVG Version: 6.00 Build 0)  -->
<svg version="1.1" id="Capa_1" xmlns="http://www.w3.org/2000/svg" xmlns:xlink="http://www.w3.org/1999/xlink" x="0px" y="0px"
	 viewBox="0 0 370.939 370.939" style="enable-background:new 0 0 370.939 370.939;" xml:space="preserve">
<g>
	<circle style="fill:#00EFD1;" cx="185.469" cy="185.469" r="60.082"/>
	<g>
		<path style="fill:#083863;" d="M10.449,143.151C4.678,143.151,0,138.473,0,132.702V47.02C0,21.052,21.052,0,47.02,0h85.682
			c5.771,0,10.449,4.678,10.449,10.449s-4.678,10.449-10.449,10.449H47.02c-14.427,0-26.122,11.695-26.122,26.122v85.682
			C20.898,138.473,16.22,143.151,10.449,143.151z"/>
		<path style="fill:#083863;" d="M360.49,143.151c-5.771,0-10.449-4.678-10.449-10.449V47.02c0-14.427-11.695-26.122-26.122-26.122
			h-85.682c-5.771,0-10.449-4.678-10.449-10.449S232.466,0,238.237,0h85.682c25.969,0,47.02,21.052,47.02,47.02v85.682
			C370.939,138.473,366.261,143.151,360.49,143.151z"/>
		<path style="fill:#083863;" d="M323.918,370.939h-85.682c-5.771,0-10.449-4.678-10.449-10.449c0-5.771,4.678-10.449,10.449-10.449
			h85.682c14.427,0,26.122-11.695,26.122-26.122v-85.682c0-5.771,4.678-10.449,10.449-10.449c5.771,0,10.449,4.678,10.449,10.449
			v85.682C370.939,349.887,349.887,370.939,323.918,370.939z"/>
		<path style="fill:#083863;" d="M132.702,370.939H47.02c-25.969,0-47.02-21.052-47.02-47.02v-85.682
			c0-5.771,4.678-10.449,10.449-10.449s10.449,4.678,10.449,10.449v85.682c0,14.427,11.695,26.122,26.122,26.122h85.682
			c5.771,0,10.449,4.678,10.449,10.449C143.151,366.261,138.473,370.939,132.702,370.939z"/>
		<path style="fill:#083863;" d="M185.469,256c-38.953,0-70.531-31.578-70.531-70.531s31.578-70.531,70.531-70.531
			S256,146.516,256,185.469C255.715,224.304,224.304,255.715,185.469,256z M185.469,135.837c-27.411,0-49.633,22.221-49.633,49.633
			s22.221,49.633,49.633,49.633s49.633-22.221,49.633-49.633C234.819,158.176,212.763,136.12,185.469,135.837z"/>
	</g>
</g>
<g>
</g>
<g>
</g>
<g>
</g>
<g>
</g>
<g>
</g>
<g>
</g>
<g>
</g>
<g>
</g>
<g>
</g>
<g>
</g>
<g>
</g>
<g>
</g>
<g>
</g>
<g>
</g>
<g>
</g>
</svg>
