<?xml version="1.0" encoding="iso-8859-1"?>
<!-- Generator: Adobe Illustrator 19.0.0, SVG Export Plug-In . SVG Version: 6.00 Build 0)  -->
<svg version="1.1" id="Capa_1" xmlns="http://www.w3.org/2000/svg" xmlns:xlink="http://www.w3.org/1999/xlink" x="0px" y="0px"
	 viewBox="0 0 426.318 426.318" style="enable-background:new 0 0 426.318 426.318;" xml:space="preserve">
<g>
	<g>
		<path style="fill:#00EFD1;" d="M353.176,212.637c9.233,0,16.718,7.485,16.718,16.718c-0.101,4.435-1.767,8.691-4.702,12.016
			c-3.162,3.255-7.479,5.132-12.016,5.224h-19.853v-33.437h19.853V212.637z"/>
		<g>
			<path style="fill:#00ACEA;" d="M333.322,215.771v30.302c-1.293,6.999-6.639,12.55-13.584,14.106l-26.645,8.882h-4.18v-78.89h4.18
				l26.645,8.882c7.096,1.281,12.572,6.967,13.584,14.106V215.771z"/>
			<rect x="137.404" y="366.759" style="fill:#00ACEA;" width="151.51" height="47.02"/>
		</g>
		<path style="fill:#00EFD1;" d="M288.914,269.061v97.698h-151.51V150.988h151.51V269.061z M260.702,229.355
			c-0.289-26.256-21.807-47.306-48.062-47.018c-26.256,0.289-47.306,21.807-47.018,48.062c0.286,26.051,21.485,47.019,47.537,47.02
			c26.257,0.002,47.544-21.283,47.546-47.54C260.705,229.705,260.704,229.53,260.702,229.355L260.702,229.355z"/>
		<path style="fill:#00ACEA;" d="M288.914,131.135v19.853h-151.51v-19.853c0.019-33.572,22.132-63.128,54.335-72.62
			c13.974-4.182,28.867-4.182,42.841,0c12.127,3.634,23.225,10.078,32.392,18.808C281.005,91.724,288.875,111.026,288.914,131.135z"
			/>
		<path style="fill:#00CEB4;" d="M213.159,181.812c26.544-0.287,48.295,20.999,48.582,47.543s-20.999,48.295-47.543,48.582
			c-26.544,0.287-48.295-20.999-48.582-47.543c-0.004-0.346-0.004-0.693,0-1.039C165.616,203.098,186.902,181.812,213.159,181.812
			L213.159,181.812z M230.922,229.355c-0.005-9.81-7.962-17.759-17.772-17.754c-9.803,0.005-17.749,7.951-17.754,17.754
			c0.005,9.81,7.962,17.759,17.772,17.754C222.972,247.104,230.917,239.158,230.922,229.355z"/>
		<g>
			<path style="fill:#00EFD1;" d="M235.624,32.914V55.38l-1.045,3.135c-13.974-4.182-28.867-4.182-42.841,0l-1.045-3.135V32.914
				c0-12.407,10.058-22.465,22.465-22.465c0,0,0,0,0,0c5.953-0.072,11.655,2.399,15.673,6.792
				C233.226,21.259,235.697,26.961,235.624,32.914z"/>
			<path style="fill:#00EFD1;" d="M213.159,211.592c9.81,0,17.763,7.953,17.763,17.763v0c-0.005,9.81-7.962,17.759-17.772,17.754
				c-9.803-0.005-17.749-7.951-17.754-17.754C195.396,219.545,203.349,211.592,213.159,211.592z"/>
		</g>
		<path style="fill:#00ACEA;" d="M137.404,190.171v78.89h-4.18l-26.122-8.882c-7.148-1.368-12.738-6.958-14.106-14.106v-32.914
			c1.074-7.3,6.807-13.032,14.106-14.106l26.122-8.882H137.404z"/>
		<path style="fill:#00EFD1;" d="M92.996,246.073H73.143c-9.233,0-16.718-7.485-16.718-16.718l0,0
			c0.033-4.293,1.717-8.408,4.702-11.494c3.162-3.255,7.479-5.132,12.016-5.224h19.853v32.914V246.073z"/>
	</g>
	<g>
		<path style="fill:#083863;" d="M213.159,287.869c-32.315,0.289-58.746-25.674-59.034-57.989s25.674-58.746,57.989-59.034
			s58.746,25.674,59.034,57.99c0.002,0.173,0.002,0.347,0.002,0.52C271.152,261.469,245.272,287.583,213.159,287.869z
			 M213.159,192.261c-20.773-0.287-37.845,16.321-38.132,37.094s16.321,37.845,37.094,38.132s37.845-16.321,38.132-37.094
			c0.005-0.346,0.005-0.692,0-1.038C250.253,208.869,233.646,192.261,213.159,192.261z"/>
		<path style="fill:#083863;" d="M213.159,257.567c-15.581,0-28.212-12.631-28.212-28.212c0,0,0,0,0,0
			c0.007-15.581,12.644-28.207,28.225-28.2c15.571,0.007,28.193,12.628,28.2,28.2C241.371,244.936,228.74,257.567,213.159,257.567z
			 M213.159,222.041c-4.04,0-7.314,3.275-7.314,7.314v0c0.003,4.04,3.28,7.312,7.319,7.309c4.036-0.003,7.306-3.274,7.309-7.309
			C220.473,225.316,217.199,222.041,213.159,222.041z"/>
		<path style="fill:#083863;" d="M353.176,201.665h-13.061c-3.703-6.327-9.684-10.999-16.718-13.061l-21.42-7.314v-50.155
			c-0.798-23.125-10.537-45.038-27.167-61.127c-9.045-7.829-19.272-14.177-30.302-18.808V32.914
			c0.324-8.713-2.878-17.188-8.882-23.51C229.837,3.498,221.95,0.118,213.682,0c-17.601-0.009-31.877,14.251-31.887,31.852
			c0,0.354,0.006,0.708,0.017,1.062v18.808c-31.347,13.061-57.469,44.408-57.469,79.412v50.155l-21.42,7.314
			c-7.035,2.062-13.016,6.734-16.718,13.061H73.143c-7.305,0.074-14.273,3.087-19.331,8.359c-4.93,5.657-7.705,12.873-7.837,20.376
			c-0.023,15.277,11.913,27.901,27.167,28.735h13.061c3.875,6.062,9.814,10.516,16.718,12.539l21.42,6.269V413.78
			c1.103,6.607,6.414,11.706,13.061,12.539h151.51c6.647-0.833,11.958-5.931,13.061-12.539V277.943l21.42-6.269
			c6.904-2.023,12.843-6.477,16.718-12.539h13.061c7.418-0.516,14.346-3.886,19.331-9.404c5.019-5.395,7.818-12.485,7.837-19.853
			C380.353,214.695,368.347,202.228,353.176,201.665z M244.506,322.873c-5.771,0-10.449,4.678-10.449,10.449V358.4h-10.449v-25.078
			c0-5.771-4.678-10.449-10.449-10.449s-10.449,4.678-10.449,10.449V358.4h-10.449v-25.078c0-5.771-4.678-10.449-10.449-10.449
			c-5.771,0-10.449,4.678-10.449,10.449V358.4h-26.122V159.869h135.837V358.4h-26.122v-25.078
			C254.955,327.552,250.277,322.873,244.506,322.873z M213.682,20.898c3.051-0.126,5.973,1.238,7.837,3.657
			c1.754,2.41,2.503,5.407,2.09,8.359v13.061c-6.927-1.046-13.971-1.046-20.898,0V32.914c-0.295-6.341,4.607-11.72,10.948-12.015
			C213.666,20.899,213.674,20.898,213.682,20.898z M193.306,68.441c12.448-3.672,25.691-3.672,38.139,0
			c10.79,3.166,20.65,8.903,28.735,16.718c12.849,11.903,20.379,28.468,20.898,45.976v7.837H145.241v-7.837
			C145.888,101.995,165.334,76.631,193.306,68.441L193.306,68.441z M66.873,230.922c-0.11-2.12,0.644-4.193,2.09-5.747
			c0.522-0.522,2.09-2.612,4.18-2.612h9.404v15.673h-9.404C70.008,238.237,66.873,234.057,66.873,230.922z M108.669,250.253h-0.522
			c-2.574-0.468-4.506-2.616-4.702-5.224v-29.78l0,0c0.497-2.758,2.526-4.99,5.224-5.747l0,0l15.673-5.747V256L108.669,250.253z
			 M145.241,405.42v-26.122h135.837v26.122H145.241z M322.873,243.984L322.873,243.984c-0.559,2.619-2.605,4.665-5.224,5.224
			c-0.522,0,0,0.522,0,0.522l-15.673,5.747v-52.245l15.673,5.747h0.522c2.655,0.682,4.56,3.009,4.702,5.747c0.522,0,0,0.522,0,0.522
			V243.984z M357.355,235.102c-0.733,1.716-2.326,2.911-4.18,3.135h-9.404v-15.673h9.404c3.627,0.523,6.307,3.65,6.269,7.314
			C359.536,231.839,358.774,233.745,357.355,235.102L357.355,235.102z"/>
	</g>
</g>
<g>
</g>
<g>
</g>
<g>
</g>
<g>
</g>
<g>
</g>
<g>
</g>
<g>
</g>
<g>
</g>
<g>
</g>
<g>
</g>
<g>
</g>
<g>
</g>
<g>
</g>
<g>
</g>
<g>
</g>
</svg>
