<?xml version="1.0" encoding="iso-8859-1"?>
<!-- Generator: Adobe Illustrator 19.0.0, SVG Export Plug-In . SVG Version: 6.00 Build 0)  -->
<svg version="1.1" id="Capa_1" xmlns="http://www.w3.org/2000/svg" xmlns:xlink="http://www.w3.org/1999/xlink" x="0px" y="0px"
	 viewBox="0 0 428.934 428.934" style="enable-background:new 0 0 428.934 428.934;" xml:space="preserve">
<g>
	<g>
		<path style="fill:#00EFD1;" d="M414.042,138.449v244.506c0,20.198-16.374,36.571-36.571,36.571H51.463
			c-20.198,0-36.571-16.374-36.571-36.571V138.449H414.042z M353.438,231.445c0.002-17.11-13.716-31.062-30.824-31.347
			c-17.31-0.289-31.577,13.51-31.865,30.82c-0.289,17.31,13.51,31.576,30.82,31.865s31.577-13.51,31.865-30.82
			C353.437,231.79,353.438,231.618,353.438,231.445z M353.438,323.396c0.291-16.733-13.038-30.533-29.77-30.824
			c-0.351-0.006-0.703-0.006-1.054,0c-16.733-0.291-30.533,13.038-30.824,29.77c-0.006,0.351-0.006,0.703,0,1.054
			c0.279,16.907,13.918,30.545,30.824,30.824C339.638,354.22,353.438,340.42,353.438,323.396L353.438,323.396z M245.291,231.445
			c0.002-17.11-13.716-31.062-30.824-31.347c-17.31-0.289-31.576,13.51-31.865,30.82c-0.289,17.31,13.51,31.576,30.82,31.865
			s31.576-13.51,31.865-30.82C245.29,231.79,245.291,231.618,245.291,231.445z M245.291,323.396
			c0.291-16.733-13.038-30.533-29.77-30.824c-0.351-0.006-0.703-0.006-1.054,0c-16.733-0.291-30.533,13.038-30.824,29.77
			c-0.006,0.351-0.006,0.703,0,1.054c0.28,16.907,13.918,30.545,30.824,30.824C231.491,354.22,245.291,340.42,245.291,323.396z
			 M137.144,231.445c0-17.024-13.801-30.824-30.824-30.824s-30.824,13.801-30.824,30.824c0,17.024,13.801,30.824,30.825,30.824
			S137.144,248.469,137.144,231.445L137.144,231.445z M137.144,323.396c-0.007-17.024-13.813-30.819-30.837-30.812
			c-17.014,0.007-30.805,13.798-30.812,30.812c0.28,16.907,13.918,30.545,30.824,30.824
			C123.344,354.22,137.144,340.42,137.144,323.396L137.144,323.396z"/>
		<path style="fill:#00ACEA;" d="M311.642,46.498h65.829c20.198,0,36.571,16.374,36.571,36.571v55.38H14.891v-55.38
			c0-20.198,16.374-36.571,36.571-36.571H311.642z"/>
		<g>
			<circle style="fill:#87E680;" cx="322.614" cy="231.445" r="30.824"/>
			<circle style="fill:#87E680;" cx="322.614" cy="323.396" r="30.824"/>
			<circle style="fill:#87E680;" cx="214.467" cy="231.445" r="30.824"/>
			<circle style="fill:#87E680;" cx="214.467" cy="323.396" r="30.824"/>
			<circle style="fill:#87E680;" cx="106.32" cy="231.445" r="30.824"/>
			<circle style="fill:#87E680;" cx="106.32" cy="323.396" r="30.824"/>
		</g>
	</g>
	<g>
		<path style="fill:#083863;" d="M377.471,37.094h-53.29V10.449C324.181,4.678,319.503,0,313.732,0s-10.449,4.678-10.449,10.449
			v26.645H125.65V10.449C125.65,4.678,120.972,0,115.201,0c-5.771,0-10.449,4.678-10.449,10.449v26.645h-53.29
			C26.655,36.51,6.071,56.147,5.487,80.955c-0.017,0.705-0.017,1.41,0,2.115v299.363c-0.579,25.096,19.297,45.91,44.393,46.489
			c0.527,0.012,1.055,0.015,1.583,0.009h326.008c25.101,0.295,45.689-19.814,45.984-44.915c0.006-0.528,0.003-1.055-0.009-1.583
			V83.069c0.584-24.808-19.053-45.392-43.861-45.976C378.881,37.077,378.176,37.077,377.471,37.094z M402.548,382.433
			c0.58,13.549-9.933,25.003-23.482,25.584c-0.532,0.023-1.064,0.028-1.596,0.016H51.463c-13.558,0.301-24.793-10.446-25.094-24.004
			c-0.012-0.532-0.006-1.064,0.016-1.596V146.808h376.163V382.433z M402.548,125.91H26.385V83.069
			c-0.59-13.26,9.68-24.487,22.94-25.078c0.712-0.032,1.425-0.032,2.137,0h53.29v26.122c0,5.771,4.678,10.449,10.449,10.449
			c5.771,0,10.449-4.678,10.449-10.449V57.992h177.633v26.122c0,5.771,4.678,10.449,10.449,10.449s10.449-4.678,10.449-10.449
			V57.992h53.29c13.26-0.59,24.487,9.68,25.078,22.94c0.032,0.712,0.032,1.425,0,2.137V125.91z"/>
		<path style="fill:#083863;" d="M106.32,272.196c-22.795,0-41.273-18.479-41.273-41.273c0-22.795,18.479-41.273,41.273-41.273
			s41.273,18.479,41.273,41.273S129.115,272.196,106.32,272.196C106.32,272.196,106.32,272.196,106.32,272.196z M106.32,210.547
			c-11.253,0-20.376,9.122-20.376,20.376l0,0c0,11.253,9.122,20.376,20.376,20.376c11.253,0,20.376-9.122,20.376-20.376
			C126.695,219.669,117.573,210.547,106.32,210.547L106.32,210.547z"/>
		<path style="fill:#083863;" d="M214.467,272.196c-22.795,0-41.273-18.479-41.273-41.273s18.479-41.273,41.273-41.273
			s41.273,18.479,41.273,41.273S237.262,272.196,214.467,272.196L214.467,272.196z M214.467,210.547
			c-11.253,0-20.376,9.122-20.376,20.376c0,0,0,0,0,0c0.006,11.253,9.133,20.371,20.386,20.365
			c11.245-0.006,20.359-9.12,20.365-20.365C234.842,219.669,225.72,210.547,214.467,210.547z"/>
		<path style="fill:#083863;" d="M322.614,272.196c-22.795,0-41.273-18.479-41.273-41.273s18.479-41.273,41.273-41.273
			c22.795,0,41.273,18.479,41.273,41.273S345.408,272.196,322.614,272.196L322.614,272.196z M322.614,210.547
			c-11.253,0-20.376,9.122-20.376,20.376c0,0,0,0,0,0c0,11.253,9.122,20.376,20.376,20.376c11.253,0,20.376-9.122,20.376-20.376
			C342.989,219.669,333.867,210.547,322.614,210.547L322.614,210.547z"/>
		<path style="fill:#083863;" d="M106.32,364.147c-22.795-0.002-41.272-18.482-41.27-41.277
			c0.002-22.795,18.482-41.272,41.277-41.27c22.795,0.002,41.272,18.482,41.27,41.277c0,0.173-0.001,0.346-0.003,0.519
			c0.002,22.506-18.242,40.753-40.748,40.754C106.67,364.15,106.495,364.149,106.32,364.147z M106.32,303.02
			c-11.253,0-20.376,9.122-20.376,20.376c0,11.253,9.122,20.376,20.376,20.376s20.376-9.122,20.376-20.376
			c0.292-10.961-8.356-20.083-19.316-20.376C107.026,303.011,106.673,303.011,106.32,303.02z"/>
		<path style="fill:#083863;" d="M214.467,364.147c-22.795-0.002-41.272-18.482-41.27-41.277
			c0.002-22.795,18.482-41.272,41.277-41.27c22.795,0.002,41.272,18.482,41.27,41.277c0,0.173-0.001,0.346-0.003,0.519
			c0.002,22.506-18.242,40.753-40.748,40.754C214.817,364.15,214.642,364.149,214.467,364.147z M214.467,303.02
			c-11.253,0-20.376,9.122-20.376,20.376c0,11.253,9.122,20.376,20.376,20.376s20.376-9.122,20.376-20.376
			c0.292-10.961-8.356-20.083-19.316-20.376C215.173,303.011,214.82,303.011,214.467,303.02z"/>
		<path style="fill:#083863;" d="M322.614,364.147c-22.795-0.002-41.272-18.482-41.27-41.277
			c0.002-22.795,18.482-41.272,41.277-41.27c22.795,0.002,41.272,18.482,41.27,41.277c0,0.173-0.001,0.346-0.003,0.519
			c0.002,22.506-18.242,40.753-40.748,40.754C322.964,364.15,322.789,364.149,322.614,364.147z M322.614,303.02
			c-11.253,0-20.376,9.122-20.376,20.376c0,11.253,9.122,20.376,20.376,20.376c11.253,0,20.376-9.122,20.376-20.376
			c0.292-10.961-8.356-20.083-19.316-20.376C323.32,303.011,322.967,303.011,322.614,303.02z"/>
	</g>
</g>
<g>
</g>
<g>
</g>
<g>
</g>
<g>
</g>
<g>
</g>
<g>
</g>
<g>
</g>
<g>
</g>
<g>
</g>
<g>
</g>
<g>
</g>
<g>
</g>
<g>
</g>
<g>
</g>
<g>
</g>
</svg>
