<?xml version="1.0" encoding="iso-8859-1"?>
<!-- Generator: Adobe Illustrator 19.0.0, SVG Export Plug-In . SVG Version: 6.00 Build 0)  -->
<svg version="1.1" id="Capa_1" xmlns="http://www.w3.org/2000/svg" xmlns:xlink="http://www.w3.org/1999/xlink" x="0px" y="0px"
	 viewBox="0 0 440.968 440.968" style="enable-background:new 0 0 440.968 440.968;" xml:space="preserve">
<g>
	<path style="fill:#00EFD1;" d="M299.901,367.282v13.061c0,28.854-23.391,52.245-52.245,52.245h-54.335
		c-28.854,0-52.245-23.391-52.245-52.245V239.282c0.044-17.891,9.331-34.489,24.555-43.886l134.269-85.159V367.282z
		 M247.656,327.053c0-15.004-12.163-27.167-27.167-27.167s-27.167,12.163-27.167,27.167c0,15.004,12.163,27.167,27.167,27.167h0
		C235.493,354.22,247.656,342.057,247.656,327.053L247.656,327.053L247.656,327.053z"/>
	<g>
		<path style="fill:#083863;" d="M246.612,0c-16.61,0.127-32.525,6.68-44.408,18.286c-11.828,11.949-18.408,28.118-18.286,44.931
			v22.465c0,5.771,4.678,10.449,10.449,10.449c5.771,0,10.449-4.678,10.449-10.449V63.216c-0.231-11.255,4.327-22.079,12.539-29.78
			c7.5-8.187,18.157-12.754,29.257-12.539c23.083-0.002,41.797,18.709,41.799,41.793c0,0.175-0.001,0.35-0.003,0.526v41.273
			l-128.522,82.024c-17.959,11.469-28.648,31.463-28.212,52.767v141.061c-0.3,33.181,26.355,60.322,59.536,60.622
			c0.704,0.006,1.409,0,2.113-0.018h54.335c33.171,0.867,60.764-25.32,61.631-58.491c0.018-0.704,0.024-1.408,0.018-2.113V63.216
			c0.289-34.624-27.546-62.926-62.169-63.214C246.961,0.001,246.786,0,246.612,0z M288.407,380.343
			c0.306,21.638-16.987,39.428-38.626,39.734c-0.709,0.01-1.417,0.001-2.125-0.028h-54.335
			c-21.623,0.868-39.856-15.958-40.723-37.581c-0.028-0.708-0.038-1.417-0.028-2.125V239.282
			c-0.446-14.063,6.489-27.337,18.286-35.004l117.551-75.233V380.343z"/>
		<path style="fill:#083863;" d="M220.489,364.669c-20.775,0-37.616-16.841-37.616-37.616c0-20.775,16.841-37.616,37.616-37.616
			s37.616,16.841,37.616,37.616l0,0C258.105,347.828,241.264,364.669,220.489,364.669z M220.489,310.335
			c-9.233,0-16.718,7.485-16.718,16.718s7.485,16.718,16.718,16.718c9.233,0,16.718-7.485,16.718-16.718l0,0
			C237.207,317.82,229.722,310.335,220.489,310.335z"/>
	</g>
</g>
<g>
</g>
<g>
</g>
<g>
</g>
<g>
</g>
<g>
</g>
<g>
</g>
<g>
</g>
<g>
</g>
<g>
</g>
<g>
</g>
<g>
</g>
<g>
</g>
<g>
</g>
<g>
</g>
<g>
</g>
</svg>
