<?xml version="1.0" encoding="iso-8859-1"?>
<!-- Generator: Adobe Illustrator 19.0.0, SVG Export Plug-In . SVG Version: 6.00 Build 0)  -->
<svg version="1.1" id="Capa_1" xmlns="http://www.w3.org/2000/svg" xmlns:xlink="http://www.w3.org/1999/xlink" x="0px" y="0px"
	 viewBox="0 0 365.763 365.763" style="enable-background:new 0 0 365.763 365.763;" xml:space="preserve">
<g>
	<g>
		<path style="fill:#00ACEA;" d="M178.24,86.228l152.555,10.449c10.637,0.821,18.84,9.707,18.808,20.376
			c-0.069,5.163-1.914,10.144-5.224,14.106c-3.654,3.616-8.461,5.835-13.584,6.269L178.24,147.877l0,0l-52.767,3.657h-3.657
			c-18.312-1.094-32.673-16.139-32.914-34.482c-0.019-18.448,14.485-33.643,32.914-34.482h3.657L178.24,86.228z"/>
		<path style="fill:#00EFD1;" d="M178.24,149.967v165.094c0,23.083-18.713,41.796-41.796,41.796H59.121
			c-23.083,0-41.796-18.713-41.796-41.796V50.702c0-23.083,18.713-41.796,41.796-41.796h77.322
			c23.083,0,41.796,18.713,41.796,41.796v35.527l-52.767-3.657h-3.657v-1.045c-7.086-4.814-15.466-7.365-24.033-7.314
			c-23.66,0.003-42.838,19.186-42.836,42.846c0.003,23.656,19.179,42.833,42.836,42.836c8.567,0.051,16.947-2.5,24.033-7.314v-1.045
			h3.657l52.767-3.657V149.967z M115.546,261.771c3.73-4.974,5.747-11.023,5.747-17.241c0.003-12.696-10.286-22.99-22.982-22.994
			c-0.176,0-0.352,0.002-0.528,0.006c-12.984,0-23.51,10.526-23.51,23.51c0.146,6.032,2.153,11.872,5.747,16.718l6.269,46.498h23.51
			L115.546,261.771z"/>
		<g>
			<path style="fill:#00CEB4;" d="M121.815,151.534v1.045c-7.086,4.814-15.466,7.365-24.033,7.314
				c-23.66-0.003-42.838-19.186-42.836-42.846c0.003-23.656,19.179-42.833,42.836-42.836c8.567-0.051,16.947,2.5,24.033,7.314v1.045
				c-18.429,0.839-32.933,16.034-32.914,34.482C89.142,135.396,103.503,150.441,121.815,151.534z"/>
			<path style="fill:#00CEB4;" d="M121.293,244.53c0,6.217-2.017,12.267-5.747,17.241l-5.747,46.498h-23.51l-6.269-46.498
				c-3.594-4.847-5.601-10.686-5.747-16.718c0-12.984,10.526-23.51,23.51-23.51c12.692-0.289,23.216,9.767,23.504,22.459
				C121.291,244.178,121.293,244.354,121.293,244.53z"/>
		</g>
	</g>
	<g>
		<path style="fill:#083863;" d="M331.317,86.228l-142.629-9.927v-25.6C188.702,22.713,166.024,0.013,138.035,0
			c-0.531,0-1.061,0.008-1.592,0.024H59.121c-28.735,0-53.29,21.42-53.29,50.678v264.359c0,29.257,24.555,50.678,53.29,50.678
			h77.322c27.975,0.866,51.355-21.111,52.221-49.086c0.016-0.53,0.024-1.061,0.024-1.592V157.804l142.629-9.927
			c7.82-0.549,15.123-4.107,20.376-9.927c11.585-12.474,10.865-31.977-1.608-43.563C344.94,89.61,338.32,86.732,331.317,86.228z
			 M136.444,344.841H59.121c-17.001,0.875-31.493-12.199-32.367-29.2c-0.01-0.193-0.018-0.386-0.024-0.579V50.702
			c0.555-17.015,14.797-30.359,31.812-29.804c0.193,0.006,0.386,0.014,0.58,0.024h77.322c16.725-0.579,30.754,12.509,31.333,29.235
			c0.006,0.182,0.011,0.363,0.014,0.545v24.033l-41.796-2.612c-8.421-5.405-18.206-8.304-28.212-8.359
			c-29.431,0.012-53.28,23.88-53.268,53.311c0.012,29.415,23.854,53.257,53.268,53.268c10.16-0.123,20.094-3.013,28.735-8.359
			l41.273-3.135v156.212c-0.279,16.733-14.069,30.072-30.802,29.794C136.807,344.852,136.625,344.847,136.444,344.841z
			 M92.035,148.922c-17.601-3.2-29.275-20.063-26.075-37.664c2.413-13.274,12.801-23.662,26.075-26.075
			c-17.601,17.08-18.023,45.195-0.943,62.796C91.402,148.298,91.716,148.613,92.035,148.922z M336.542,123.845
			c-1.8,1.847-4.219,2.964-6.792,3.135l-152.033,10.449h-1.045l-51.722,3.657h-2.612c-13.273-0.144-23.916-11.021-23.771-24.294
			c0.144-13.273,11.021-23.916,24.294-23.771h2.09l204.8,14.106c5.277,0.278,9.411,4.642,9.404,9.927
			C339.042,119.54,338.125,121.923,336.542,123.845z"/>
		<path style="fill:#083863;" d="M109.799,318.718h-23.51c-5.386,0.027-9.91-4.045-10.449-9.404l-5.747-43.363
			c-3.933-6.082-6.103-13.135-6.269-20.375c-0.289-18.753,14.68-34.189,33.433-34.478c0.175-0.003,0.351-0.004,0.526-0.004
			c18.464-0.289,33.667,14.446,33.955,32.91c0.003,0.176,0.004,0.351,0.004,0.527c0.001,7.593-2.175,15.027-6.269,21.42
			l-5.747,43.363C119.447,314.591,115.083,318.725,109.799,318.718z M95.17,297.82h5.224l4.702-37.094
			c0.086-2.183,1.024-4.246,2.612-5.747c2.115-3.068,3.212-6.723,3.135-10.449c0.006-6.925-5.603-12.544-12.528-12.55
			c-0.178,0-0.356,0.003-0.533,0.011c-7.297,0.281-13.067,6.281-13.061,13.584c0.159,3.364,1.244,6.618,3.135,9.404
			c1.588,1.501,2.526,3.564,2.612,5.747L95.17,297.82z"/>
	</g>
</g>
<g>
</g>
<g>
</g>
<g>
</g>
<g>
</g>
<g>
</g>
<g>
</g>
<g>
</g>
<g>
</g>
<g>
</g>
<g>
</g>
<g>
</g>
<g>
</g>
<g>
</g>
<g>
</g>
<g>
</g>
</svg>
