<?xml version="1.0" encoding="iso-8859-1"?>
<!-- Generator: Adobe Illustrator 19.0.0, SVG Export Plug-In . SVG Version: 6.00 Build 0)  -->
<svg version="1.1" id="Capa_1" xmlns="http://www.w3.org/2000/svg" xmlns:xlink="http://www.w3.org/1999/xlink" x="0px" y="0px"
	 viewBox="0 0 407.51 407.51" style="enable-background:new 0 0 407.51 407.51;" xml:space="preserve">
<g>
	<g>
		<polygon style="fill:#46C43D;" points="283.167,229.878 283.167,303.02 231.967,280.033 231.967,252.865 		"/>
		<polygon style="fill:#87E680;" points="231.967,280.033 231.967,317.127 124.343,317.127 124.343,215.249 231.967,215.249 
			231.967,252.865 		"/>
		<path style="fill:#00ACEA;" d="M352.653,118.073l-2.612,2.09h-88.816c-8.363,0.294-15.38-6.247-15.673-14.61
			c-0.012-0.354-0.012-0.709,0-1.064V15.673l2.09-2.09L352.653,118.073z"/>
		<path style="fill:#00EFD1;" d="M355.265,120.686v234.58c0,23.083-18.713,41.796-41.796,41.796H94.041
			c-23.083,0-41.796-18.713-41.796-41.796V52.245c0-23.083,18.713-41.796,41.796-41.796h150.465l3.135,3.135l-2.09,2.09v88.816
			c-0.294,8.363,6.247,15.38,14.61,15.673c0.354,0.012,0.709,0.012,1.064,0h88.816l2.612-2.09L355.265,120.686z M283.167,303.02
			v-73.143l-51.2,22.988v-37.616H124.343v101.878h107.624v-37.094L283.167,303.02z"/>
	</g>
	<g>
		<path style="fill:#083863;" d="M288.392,220.996c-3.421-1.711-7.404-1.901-10.971-0.522l-37.094,16.196v-21.42
			c0-5.747-2.612-11.494-8.359-11.494H124.343c-5.745,0.546-9.96,5.645-9.414,11.39c0.003,0.035,0.007,0.069,0.01,0.104v101.878
			c0,5.747,3.657,12.016,9.404,12.016h107.624c5.747,0,8.359-6.269,8.359-12.016v-20.898l37.616,16.196l4.702,1.045
			c1.863,0.038,3.69-0.51,5.224-1.567c2.982-1.963,4.755-5.312,4.702-8.882v-73.143
			C292.842,226.387,291.254,223.012,288.392,220.996z M219.429,308.245h-83.592v-83.592h83.592V308.245z M271.673,286.824
			l-31.347-13.584v-13.584l31.347-13.584V286.824z"/>
		<path style="fill:#083863;" d="M362.58,113.371L254.955,6.269l-3.135-3.135c-1.929-1.969-4.558-3.095-7.314-3.135H94.041
			C65.187,0,41.796,23.391,41.796,52.245l0,0v303.02c0,28.854,23.391,52.245,52.245,52.245h219.429
			c28.854,0,52.245-23.391,52.245-52.245v-234.58C365.675,117.93,364.548,115.301,362.58,113.371z M256,36.571l73.665,73.143
			h-68.441c-2.579,0.307-4.918-1.535-5.224-4.114c-0.044-0.369-0.044-0.742,0-1.111V36.571z M313.469,386.612H94.041
			c-17.312,0-31.347-14.035-31.347-31.347V52.245c0-17.312,14.035-31.347,31.347-31.347h141.061v83.592
			c0,14.427,11.695,26.122,26.122,26.122h83.592v224.653C344.816,372.578,330.782,386.612,313.469,386.612z"/>
	</g>
</g>
<g>
</g>
<g>
</g>
<g>
</g>
<g>
</g>
<g>
</g>
<g>
</g>
<g>
</g>
<g>
</g>
<g>
</g>
<g>
</g>
<g>
</g>
<g>
</g>
<g>
</g>
<g>
</g>
<g>
</g>
</svg>
