<?xml version="1.0" encoding="iso-8859-1"?>
<!-- Generator: Adobe Illustrator 19.0.0, SVG Export Plug-In . SVG Version: 6.00 Build 0)  -->
<svg version="1.1" id="Capa_1" xmlns="http://www.w3.org/2000/svg" xmlns:xlink="http://www.w3.org/1999/xlink" x="0px" y="0px"
	 viewBox="0 0 407.51 407.51" style="enable-background:new 0 0 407.51 407.51;" xml:space="preserve">
<g>
	<g>
		<g>
			<path style="fill:#87E680;" d="M268.539,289.959L268.539,289.959c0,12.407-10.058,22.465-22.465,22.465
				c-12.407,0-22.465-10.058-22.465-22.465c0-12.407,10.058-22.465,22.465-22.465c0,0,0,0,0,0
				C258.364,267.77,268.262,277.668,268.539,289.959z"/>
			<circle style="fill:#87E680;" cx="150.988" cy="308.767" r="22.465"/>
			<polygon style="fill:#87E680;" points="268.539,184.424 268.539,225.176 172.931,244.506 172.931,204.278 			"/>
		</g>
		<path style="fill:#00ACEA;" d="M352.653,118.073l-2.612,2.09h-88.816c-8.363,0.294-15.38-6.247-15.673-14.61
			c-0.012-0.354-0.012-0.709,0-1.064V15.673l2.09-2.09L352.653,118.073z"/>
		<path style="fill:#00EFD1;" d="M172.931,308.767c-1.887-12.263-13.357-20.675-25.62-18.788
			c-9.692,1.491-17.297,9.096-18.788,18.788c-1.887,12.263,6.525,23.733,18.788,25.62c12.263,1.887,23.733-6.525,25.62-18.788
			C173.279,313.335,173.279,311.031,172.931,308.767z M268.539,289.959c-0.547-12.087-10.369-21.68-22.465-21.943
			c-12.407,0-22.465,10.058-22.465,22.465c0,12.407,10.058,22.465,22.465,22.465c12.407,0,22.465-10.058,22.465-22.465l0,0V289.959z
			 M268.539,225.176v-40.751l-95.608,19.853v40.229L268.539,225.176z M355.265,120.686v234.58c0,23.083-18.713,41.796-41.796,41.796
			H94.041c-23.083,0-41.796-18.713-41.796-41.796V52.245c0-23.083,18.713-41.796,41.796-41.796h150.465l3.135,3.135l-2.09,2.09
			v88.816c-0.294,8.363,6.247,15.38,14.61,15.673c0.354,0.012,0.709,0.012,1.064,0h88.816l2.612-2.09L355.265,120.686z"/>
	</g>
	<g>
		<path style="fill:#083863;" d="M273.763,176.588c-2.077-2.002-5.039-2.792-7.837-2.09l-95.608,19.331
			c-4.944,1.008-8.461,5.405-8.359,10.449v74.188c-3.679-1.366-7.57-2.073-11.494-2.09c-18.176-0.286-33.142,14.216-33.429,32.392
			c-0.286,18.176,14.216,33.142,32.392,33.429c18.176,0.286,33.142-14.216,33.429-32.392c0.005-0.346,0.005-0.691,0-1.037v-55.902
			L256,237.714v21.943c0-1.045-6.792-2.09-10.971-2.09c-18.169-0.575-33.364,13.688-33.939,31.857
			c-0.575,18.169,13.688,33.364,31.857,33.939c18.169,0.575,33.364-13.688,33.939-31.857c0.016-0.516,0.021-1.031,0.013-1.547l0,0
			V184.424C277.24,181.451,276.062,178.505,273.763,176.588z M150.988,320.784c-6.492,1.376-12.871-2.771-14.247-9.263
			c-1.376-6.492,2.771-12.871,9.263-14.247c1.643-0.348,3.341-0.348,4.984,0c6.348,0,11.494,5.146,11.494,11.494
			c0.289,6.341-4.618,11.716-10.96,12.004C151.344,320.78,151.166,320.784,150.988,320.784z M182.857,231.445v-18.808L256,197.486
			v18.808L182.857,231.445z M246.073,301.976c-6.348,0.007-11.499-5.134-11.506-11.482c0-0.178,0.004-0.356,0.012-0.534
			c0-6.348,5.146-11.494,11.494-11.494l0,0c6.335,0.242,11.493,5.176,12.016,11.494C258.09,296.596,252.71,301.976,246.073,301.976
			C246.073,301.976,246.073,301.976,246.073,301.976z"/>
		<path style="fill:#083863;" d="M362.58,113.371L254.955,6.269l-3.135-3.135c-1.929-1.969-4.558-3.095-7.314-3.135H94.041
			C65.187,0,41.796,23.391,41.796,52.245l0,0v303.02c0,28.854,23.391,52.245,52.245,52.245h219.429
			c28.854,0,52.245-23.391,52.245-52.245v-234.58C365.675,117.93,364.548,115.301,362.58,113.371z M256,36.571l73.665,73.143
			h-68.441c-2.579,0.307-4.918-1.535-5.224-4.114c-0.044-0.369-0.044-0.742,0-1.111V36.571z M313.469,386.612H94.041
			c-17.312,0-31.347-14.035-31.347-31.347V52.245c0-17.312,14.035-31.347,31.347-31.347h141.061v83.592
			c0,14.427,11.695,26.122,26.122,26.122h83.592v224.653C344.816,372.578,330.782,386.612,313.469,386.612z"/>
	</g>
</g>
<g>
</g>
<g>
</g>
<g>
</g>
<g>
</g>
<g>
</g>
<g>
</g>
<g>
</g>
<g>
</g>
<g>
</g>
<g>
</g>
<g>
</g>
<g>
</g>
<g>
</g>
<g>
</g>
<g>
</g>
</svg>
