<?xml version="1.0" encoding="iso-8859-1"?>
<!-- Generator: Adobe Illustrator 19.0.0, SVG Export Plug-In . SVG Version: 6.00 Build 0)  -->
<svg version="1.1" id="Capa_1" xmlns="http://www.w3.org/2000/svg" xmlns:xlink="http://www.w3.org/1999/xlink" x="0px" y="0px"
	 viewBox="0 0 407.51 407.51" style="enable-background:new 0 0 407.51 407.51;" xml:space="preserve">
<g>
	<g>
		<path style="fill:#00ACEA;" d="M352.653,118.073l-2.612,2.09h-88.816c-8.363,0.294-15.38-6.247-15.673-14.61
			c-0.012-0.354-0.012-0.709,0-1.064V15.673l2.09-2.09L352.653,118.073z"/>
		<path style="fill:#00EFD1;" d="M355.265,120.686v234.58c0,23.083-18.713,41.796-41.796,41.796H94.041
			c-23.083,0-41.796-18.713-41.796-41.796V52.245c0-23.083,18.713-41.796,41.796-41.796h150.465l3.135,3.135l-2.09,2.09v88.816
			c-0.294,8.363,6.247,15.38,14.61,15.673c0.354,0.012,0.709,0.012,1.064,0h88.816l2.612-2.09L355.265,120.686z"/>
	</g>
	<g>
		<path style="fill:#083863;" d="M282.122,208.98h-61.127c-5.771,0-10.449,4.678-10.449,10.449c0,5.771,4.678,10.449,10.449,10.449
			h38.139l-40.751,44.931l-44.931-41.796c-2.143-1.91-4.977-2.855-7.837-2.612c-3.013-0.027-5.808,1.57-7.314,4.18l-43.363,60.604
			c-3.522,4.201-2.971,10.462,1.231,13.984c0.275,0.23,0.561,0.445,0.859,0.644c4.3,3.4,10.543,2.671,13.943-1.629
			c0.248-0.314,0.477-0.642,0.685-0.983l36.571-51.2l43.886,40.229c1.982,1.828,4.623,2.771,7.314,2.612
			c2.756-0.039,5.385-1.166,7.314-3.135l44.931-50.678v33.959c0,5.771,4.678,10.449,10.449,10.449
			c5.771,0,10.449-4.678,10.449-10.449v-61.649C292.571,211.592,287.869,208.98,282.122,208.98z"/>
		<path style="fill:#083863;" d="M362.58,113.371L254.955,6.269l-3.135-3.135c-1.929-1.969-4.558-3.095-7.314-3.135H94.041
			C65.187,0,41.796,23.391,41.796,52.245l0,0v303.02c0,28.854,23.391,52.245,52.245,52.245h219.429
			c28.854,0,52.245-23.391,52.245-52.245v-234.58C365.675,117.93,364.548,115.301,362.58,113.371z M256,36.571l73.665,73.143
			h-68.441c-2.579,0.307-4.918-1.535-5.224-4.114c-0.044-0.369-0.044-0.742,0-1.111V36.571z M313.469,386.612H94.041
			c-17.312,0-31.347-14.035-31.347-31.347V52.245c0-17.312,14.035-31.347,31.347-31.347h141.061v83.592
			c0,14.427,11.695,26.122,26.122,26.122h83.592v224.653C344.816,372.578,330.782,386.612,313.469,386.612z"/>
	</g>
</g>
<g>
</g>
<g>
</g>
<g>
</g>
<g>
</g>
<g>
</g>
<g>
</g>
<g>
</g>
<g>
</g>
<g>
</g>
<g>
</g>
<g>
</g>
<g>
</g>
<g>
</g>
<g>
</g>
<g>
</g>
</svg>
