<?xml version="1.0" encoding="iso-8859-1"?>
<!-- Generator: Adobe Illustrator 19.0.0, SVG Export Plug-In . SVG Version: 6.00 Build 0)  -->
<svg version="1.1" id="Capa_1" xmlns="http://www.w3.org/2000/svg" xmlns:xlink="http://www.w3.org/1999/xlink" x="0px" y="0px"
	 viewBox="0 0 407.51 407.51" style="enable-background:new 0 0 407.51 407.51;" xml:space="preserve">
<g>
	<g>
		<path style="fill:#00ACEA;" d="M352.653,118.073l-2.612,2.09h-88.816c-8.363,0.294-15.38-6.247-15.673-14.61
			c-0.012-0.354-0.012-0.709,0-1.064V15.673l2.09-2.09L352.653,118.073z"/>
		<g>
			<path style="fill:#00EFD1;" d="M256,203.755L256,203.755l-104.49,104.49l0,0c-14.087-13.725-22.005-32.577-21.943-52.245
				c0.285-40.854,33.334-73.903,74.188-74.188C223.423,181.75,242.275,189.668,256,203.755z"/>
			<path style="fill:#00EFD1;" d="M256,203.755c14.087,13.725,22.005,32.577,21.943,52.245
				c-0.285,40.854-33.333,73.903-74.188,74.188c-19.668,0.062-38.52-7.856-52.245-21.943l0,0L256,203.755z"/>
			<path style="fill:#00EFD1;" d="M355.265,120.686v234.58c0,23.083-18.713,41.796-41.796,41.796H94.041
				c-23.083,0-41.796-18.713-41.796-41.796V52.245c0-23.083,18.713-41.796,41.796-41.796h150.465l3.135,3.135l-2.09,2.09v88.816
				c-0.294,8.363,6.247,15.38,14.61,15.673c0.354,0.012,0.709,0.012,1.064,0h88.816l2.612-2.09L355.265,120.686z M277.943,256
				c-0.285-40.854-33.333-73.903-74.188-74.188c-40.854,0.285-73.903,33.333-74.188,74.188
				c0.285,40.854,33.334,73.903,74.188,74.188C244.609,329.903,277.658,296.854,277.943,256z"/>
		</g>
	</g>
	<g>
		<path style="fill:#083863;" d="M263.837,195.918c-16.063-15.7-37.62-24.51-60.082-24.555
			c-46.625,0.285-84.352,38.012-84.637,84.637c-0.581,46.163,36.371,84.056,82.534,84.637c0.701,0.009,1.402,0.009,2.103,0
			c46.625-0.285,84.352-38.012,84.637-84.637C288.347,233.539,279.537,211.982,263.837,195.918z M140.016,256
			c0-35.202,28.537-63.739,63.739-63.739l0,0c13.328-0.039,26.321,4.17,37.094,12.016l-88.816,88.816
			C144.186,282.321,139.977,269.328,140.016,256z M203.755,319.739c-13.328,0.039-26.321-4.17-37.094-12.016l88.816-88.816
			c7.846,10.773,12.055,23.766,12.016,37.094C267.494,291.202,238.957,319.739,203.755,319.739z"/>
		<path style="fill:#083863;" d="M313.469,407.51H94.041c-28.854,0-52.245-23.391-52.245-52.245V52.245
			C41.796,23.391,65.187,0,94.041,0h150.465c2.756,0.039,5.385,1.166,7.314,3.135l3.135,3.135L362.58,113.371
			c1.969,1.929,3.095,4.558,3.135,7.314v234.58C365.714,384.119,342.323,407.51,313.469,407.51z M94.041,20.898
			c-17.312,0-31.347,14.034-31.347,31.347v303.02c0,17.312,14.035,31.347,31.347,31.347h219.429
			c17.312,0,31.347-14.035,31.347-31.347v-230.4L240.327,20.898H94.041z"/>
		<path style="fill:#083863;" d="M350.041,130.612h-88.816c-14.427,0-26.122-11.695-26.122-26.122V15.673
			c0-5.771,4.678-10.449,10.449-10.449c5.771,0,10.449,4.678,10.449,10.449v88.816c-0.307,2.579,1.535,4.918,4.114,5.224
			c0.369,0.044,0.742,0.044,1.111,0h88.816c5.771,0,10.449,4.678,10.449,10.449C360.49,125.934,355.812,130.612,350.041,130.612z"/>
	</g>
</g>
<g>
</g>
<g>
</g>
<g>
</g>
<g>
</g>
<g>
</g>
<g>
</g>
<g>
</g>
<g>
</g>
<g>
</g>
<g>
</g>
<g>
</g>
<g>
</g>
<g>
</g>
<g>
</g>
<g>
</g>
</svg>
