<?xml version="1.0" encoding="iso-8859-1"?>
<!-- Generator: Adobe Illustrator 19.0.0, SVG Export Plug-In . SVG Version: 6.00 Build 0)  -->
<svg version="1.1" id="Capa_1" xmlns="http://www.w3.org/2000/svg" xmlns:xlink="http://www.w3.org/1999/xlink" x="0px" y="0px"
	 viewBox="0 0 407.51 407.51" style="enable-background:new 0 0 407.51 407.51;" xml:space="preserve">
<g>
	<g>
		<path style="fill:#87E680;" d="M203.755,190.171v71.053h-71.053C132.702,221.983,164.514,190.171,203.755,190.171z"/>
		<path style="fill:#D4E1F4;" d="M132.702,261.224h71.053v-71.053c39.242,0,71.053,31.812,71.053,71.053
			c0,39.242-31.812,71.053-71.053,71.053S132.702,300.466,132.702,261.224L132.702,261.224z"/>
		<path style="fill:#00ACEA;" d="M352.131,118.073l-2.09,2.09h-88.816c-8.363,0.294-15.38-6.247-15.673-14.61
			c-0.012-0.354-0.012-0.709,0-1.064V15.673l2.09-2.09L352.131,118.073z"/>
		<path style="fill:#00EFD1;" d="M203.755,190.171c-39.242,0-71.053,31.812-71.053,71.053c0,39.242,31.812,71.053,71.053,71.053
			s71.053-31.811,71.053-71.053l0,0C274.808,221.983,242.997,190.171,203.755,190.171z M355.265,120.686v234.58
			c0,23.083-18.713,41.796-41.796,41.796H94.041c-23.083,0-41.796-18.713-41.796-41.796V52.245
			c0-23.083,18.713-41.796,41.796-41.796h150.465l3.135,3.135l-2.09,2.09v88.816c-0.294,8.363,6.247,15.38,14.61,15.673
			c0.354,0.012,0.709,0.012,1.064,0h88.816l2.09-2.09L355.265,120.686z"/>
	</g>
	<g>
		<path style="fill:#083863;" d="M362.58,113.371L254.955,6.269l-3.135-3.135c-1.929-1.969-4.558-3.095-7.314-3.135H94.041
			C65.187,0,41.796,23.391,41.796,52.245l0,0v303.02c0,28.854,23.391,52.245,52.245,52.245h219.429
			c28.854,0,52.245-23.391,52.245-52.245v-234.58C365.675,117.93,364.548,115.301,362.58,113.371z M256,36.571l73.665,73.143
			h-68.441c-2.579,0.307-4.918-1.535-5.224-4.114c-0.044-0.369-0.044-0.742,0-1.111V36.571z M313.469,386.612H94.041
			c-17.312,0-31.347-14.035-31.347-31.347V52.245c0-17.312,14.035-31.347,31.347-31.347h141.061v83.592
			c0,14.427,11.695,26.122,26.122,26.122h83.592v224.653C344.816,372.578,330.782,386.612,313.469,386.612z"/>
		<path style="fill:#083863;" d="M203.755,179.722c-45.012,0-81.502,36.49-81.502,81.502s36.49,81.502,81.502,81.502
			s81.502-36.49,81.502-81.502c0,0,0,0,0,0C285.257,216.212,248.767,179.722,203.755,179.722z M193.306,201.665v49.11h-49.11
			C148.488,225.644,168.174,205.957,193.306,201.665L193.306,201.665z M203.755,321.829c-29.388-0.067-54.492-21.208-59.559-50.155
			h59.559c5.771,0,10.449-4.678,10.449-10.449v-59.559c32.896,6.176,54.557,37.849,48.382,70.745
			C257.257,300.798,232.636,321.479,203.755,321.829L203.755,321.829z"/>
	</g>
</g>
<g>
</g>
<g>
</g>
<g>
</g>
<g>
</g>
<g>
</g>
<g>
</g>
<g>
</g>
<g>
</g>
<g>
</g>
<g>
</g>
<g>
</g>
<g>
</g>
<g>
</g>
<g>
</g>
<g>
</g>
</svg>
