<?xml version="1.0" encoding="iso-8859-1"?>
<!-- Generator: Adobe Illustrator 19.0.0, SVG Export Plug-In . SVG Version: 6.00 Build 0)  -->
<svg version="1.1" id="Capa_1" xmlns="http://www.w3.org/2000/svg" xmlns:xlink="http://www.w3.org/1999/xlink" x="0px" y="0px"
	 viewBox="0 0 364.621 364.621" style="enable-background:new 0 0 364.621 364.621;" xml:space="preserve">
<g>
	<g>
		<polygon style="fill:#00CEB4;" points="267.469,143.151 312.922,216.816 238.212,216.816 238.212,216.294 223.061,144.718 
			223.061,143.151 		"/>
		<g>
			<polygon style="fill:#00EFD1;" points="312.922,216.816 182.31,355.265 182.31,355.265 182.31,355.265 238.212,216.816 			"/>
			<polygon style="fill:#00EFD1;" points="223.061,144.718 238.212,216.294 238.212,216.816 126.931,216.816 141.559,143.151 
				223.061,143.151 			"/>
		</g>
		<polygon style="fill:#00CEB4;" points="238.212,216.816 182.31,355.265 182.31,355.265 126.931,216.816 		"/>
		<polygon style="fill:#00EFD1;" points="182.31,355.265 182.31,355.265 51.698,216.816 126.931,216.816 		"/>
		<polygon style="fill:#00CEB4;" points="141.559,143.151 126.931,216.816 51.698,216.816 97.151,143.151 		"/>
	</g>
	<g>
		<path style="fill:#083863;" d="M322.849,220.996c0-1.045,0.522-2.09,0.522-3.135l0,0v-3.657l0,0l-1.567-2.612l0,0l-45.453-75.233
			c-2.018-3.082-5.243-5.17-8.882-5.747H97.151c-3.639,0.577-6.864,2.664-8.882,5.747l-45.453,74.188l0,0l-1.567,3.657l0,0v2.612
			l0,0c0,1.045,0.522,2.09,0.522,3.135h0.522l1.567,2.612l0,0l130.612,138.971c4.414,4.114,11.259,4.114,15.673,0l130.612-138.971
			l0,0l1.567-2.612L322.849,220.996z M119.616,224.653l32.392,80.98l-76.278-80.98H119.616z M214.18,151.51l11.494,52.245h-86.204
			l10.449-52.245H214.18z M222.539,224.653l-40.229,99.788l-40.229-99.788H222.539z M245.004,224.653h43.886l-76.278,80.98
			L245.004,224.653z M294.114,203.755h-47.02L235.6,151.51h26.122L294.114,203.755z M102.898,151.51h25.6l-10.449,52.245H70.506
			L102.898,151.51z"/>
		<path style="fill:#083863;" d="M182.31,73.143c-5.771,0-10.449-4.678-10.449-10.449V10.449C171.861,4.678,176.539,0,182.31,0
			c5.771,0,10.449,4.678,10.449,10.449v52.245C192.759,68.465,188.081,73.143,182.31,73.143z"/>
		<path style="fill:#083863;" d="M302.474,113.894c-2.267,0.04-4.48-0.698-6.269-2.09c-4.557-3.047-5.781-9.212-2.734-13.769
			c0.199-0.298,0.414-0.585,0.644-0.859l31.347-41.796c3.723-4.154,9.891-5.035,14.629-2.09c4.617,3.462,5.552,10.012,2.09,14.629
			l-31.347,41.796C308.985,112.491,305.804,114.082,302.474,113.894z"/>
		<path style="fill:#083863;" d="M62.147,113.894c-3.33,0.188-6.511-1.402-8.359-4.18L22.441,67.918
			c-3.462-4.617-2.527-11.166,2.09-14.629c4.737-2.946,10.906-2.064,14.629,2.09l31.347,41.796
			c3.522,4.201,2.971,10.462-1.231,13.984c-0.275,0.23-0.561,0.445-0.859,0.644C66.627,113.196,64.414,113.934,62.147,113.894z"/>
	</g>
</g>
<g>
</g>
<g>
</g>
<g>
</g>
<g>
</g>
<g>
</g>
<g>
</g>
<g>
</g>
<g>
</g>
<g>
</g>
<g>
</g>
<g>
</g>
<g>
</g>
<g>
</g>
<g>
</g>
<g>
</g>
</svg>
