<?xml version="1.0" encoding="iso-8859-1"?>
<!-- Generator: Adobe Illustrator 19.0.0, SVG Export Plug-In . SVG Version: 6.00 Build 0)  -->
<svg version="1.1" id="Capa_1" xmlns="http://www.w3.org/2000/svg" xmlns:xlink="http://www.w3.org/1999/xlink" x="0px" y="0px"
	 viewBox="0 0 472.294 472.294" style="enable-background:new 0 0 472.294 472.294;" xml:space="preserve">
<g>
	<g>
		<g>
			<polygon style="fill:#00ACEA;" points="334.367,52.767 334.367,357.878 137.404,357.878 137.404,52.767 334.367,52.767 			"/>
			<circle style="fill:#00ACEA;" cx="236.147" cy="410.645" r="16.196"/>
		</g>
		<path style="fill:#00EFD1;" d="M376.686,39.706v390.792c0.291,17.021-13.272,31.056-30.293,31.347
			c-0.351,0.006-0.703,0.006-1.054,0H124.343c-15.282,0.58-28.14-11.338-28.72-26.62c-0.02-0.531-0.025-1.062-0.015-1.593V39.706
			c-0.003-15.956,12.781-28.972,28.735-29.257h223.608C363.905,10.734,376.688,23.75,376.686,39.706z M334.89,358.4V52.767H137.404
			V358.4H334.89z M252.343,410.645c0-9.233-7.485-16.718-16.718-16.718c-8.94,0.284-15.958,7.761-15.674,16.702
			c0,0.006,0,0.011,0.001,0.017c-0.294,8.363,6.247,15.38,14.61,15.673c0.354,0.012,0.709,0.012,1.064,0
			c8.94,0.293,16.425-6.717,16.718-15.657C252.342,410.656,252.343,410.651,252.343,410.645L252.343,410.645z"/>
	</g>
	<g>
		<path style="fill:#083863;" d="M345.861,472.294H123.82c-21.438,0.002-38.898-17.225-39.184-38.661V39.706
			C84.918,17.895,102.531,0.281,124.343,0h223.608c21.811,0.281,39.425,17.895,39.706,39.706v390.792
			C387.657,453.581,368.944,472.294,345.861,472.294z M124.343,20.898c-10.387,0-18.808,8.421-18.808,18.808l0,0v393.927
			c0.283,9.894,8.387,17.767,18.286,17.763h222.041c11.249,0.292,20.606-8.59,20.898-19.839c0.009-0.353,0.009-0.706,0-1.059V39.706
			c0-10.387-8.421-18.808-18.808-18.808L124.343,20.898z"/>
		<path style="fill:#083863;" d="M334.89,368.849H137.404c-5.771,0-10.449-4.678-10.449-10.449V53.29
			c-0.297-5.474,3.901-10.152,9.375-10.449c0.358-0.019,0.716-0.019,1.074,0H334.89c5.474-0.297,10.152,3.901,10.449,9.375
			c0.019,0.358,0.019,0.716,0,1.074V358.4C345.339,364.171,340.661,368.849,334.89,368.849z M147.853,347.951h176.588V63.739
			H147.853L147.853,347.951z"/>
		<path style="fill:#083863;" d="M236.147,437.29c-14.993,0.574-27.613-11.114-28.188-26.107
			c-0.574-14.993,11.114-27.613,26.107-28.188c14.993-0.574,27.613,11.114,28.188,26.107c0.02,0.514,0.025,1.028,0.015,1.543
			C262.272,425.159,250.658,437.005,236.147,437.29z M236.147,404.375c-3.174-0.013-5.758,2.549-5.771,5.723
			c-0.001,0.182,0.007,0.365,0.024,0.546c-0.305,2.869,1.774,5.442,4.644,5.747c0.367,0.039,0.737,0.039,1.103,0
			c2.885,0.014,5.236-2.313,5.251-5.198c0.001-0.183-0.008-0.366-0.026-0.549C241.371,406.988,239.282,404.375,236.147,404.375z"/>
	</g>
</g>
<g>
</g>
<g>
</g>
<g>
</g>
<g>
</g>
<g>
</g>
<g>
</g>
<g>
</g>
<g>
</g>
<g>
</g>
<g>
</g>
<g>
</g>
<g>
</g>
<g>
</g>
<g>
</g>
<g>
</g>
</svg>
