<?xml version="1.0" encoding="iso-8859-1"?>
<!-- Generator: Adobe Illustrator 19.0.0, SVG Export Plug-In . SVG Version: 6.00 Build 0)  -->
<svg version="1.1" id="Capa_1" xmlns="http://www.w3.org/2000/svg" xmlns:xlink="http://www.w3.org/1999/xlink" x="0px" y="0px"
	 viewBox="0 0 447.379 447.379" style="enable-background:new 0 0 447.379 447.379;" xml:space="preserve">
<g>
	<g>
		<g>
			<path style="fill:#00EFD1;" d="M425.796,311.461v31.347h-94.041v-31.347c0-25.969,21.052-47.02,47.02-47.02
				c12.476,0.067,24.449,4.931,33.437,13.584C421.057,286.886,425.955,298.941,425.796,311.461z"/>
			<path style="fill:#00EFD1;" d="M259.135,104.571v280.555c0,25.969-21.052,47.02-47.02,47.02H59.037
				c-25.969,0-47.02-21.052-47.02-47.02V62.775c0-25.969,21.052-47.02,47.02-47.02h153.078c25.969,0,47.02,21.052,47.02,47.02
				V104.571z M212.114,374.677v-66.351H59.037v66.351H212.114z M212.114,259.738v-66.351H59.037v66.351H212.114z M212.114,139.575
				V73.224H59.037v66.351H212.114z"/>
		</g>
		<g>
			<rect x="59.037" y="308.326" style="fill:#00ACEA;" width="153.078" height="66.351"/>
			<rect x="59.037" y="193.387" style="fill:#00ACEA;" width="153.078" height="66.351"/>
			<rect x="59.037" y="73.224" style="fill:#00ACEA;" width="153.078" height="66.351"/>
		</g>
	</g>
	<g>
		<path style="fill:#083863;" d="M108.669,117.11H98.22c-5.474,0.297-10.152-3.901-10.449-9.375c-0.019-0.358-0.019-0.716,0-1.074
			c0-5.771,4.678-10.449,10.449-10.449h10.449c5.771,0,10.449,4.678,10.449,10.449c0.297,5.474-3.901,10.152-9.375,10.449
			C109.386,117.129,109.027,117.129,108.669,117.11z"/>
		<path style="fill:#083863;" d="M108.669,237.273H98.22c-5.474,0.297-10.152-3.901-10.449-9.375c-0.019-0.358-0.019-0.716,0-1.074
			c0-5.771,4.678-10.449,10.449-10.449h10.449c5.771,0,10.449,4.678,10.449,10.449c0.297,5.474-3.901,10.152-9.375,10.449
			C109.386,237.292,109.027,237.292,108.669,237.273z"/>
		<path style="fill:#083863;" d="M108.669,352.212H98.22c-5.474,0.297-10.152-3.901-10.449-9.375c-0.019-0.358-0.019-0.716,0-1.074
			c0-5.771,4.678-10.449,10.449-10.449h10.449c5.771,0,10.449,4.678,10.449,10.449c0.297,5.474-3.901,10.152-9.375,10.449
			C109.386,352.231,109.027,352.231,108.669,352.212z"/>
		<path style="fill:#083863;" d="M212.114,150.024H59.037c-5.771,0-10.449-4.678-10.449-10.449V72.702
			c0-5.771,4.678-10.449,10.449-10.449h153.078c5.771,0,10.449,4.678,10.449,10.449v66.873
			C222.563,145.346,217.885,150.024,212.114,150.024z M69.486,129.126h132.18V83.151H69.486V129.126z"/>
		<path style="fill:#083863;" d="M166.139,117.11H155.69c-5.474,0.297-10.152-3.901-10.449-9.375c-0.019-0.358-0.019-0.716,0-1.074
			c0-5.771,4.678-10.449,10.449-10.449h10.449c5.771,0,10.449,4.678,10.449,10.449c0.297,5.474-3.901,10.152-9.375,10.449
			C166.855,117.129,166.496,117.129,166.139,117.11z"/>
		<path style="fill:#083863;" d="M212.114,270.187H59.037c-5.771,0-10.449-4.678-10.449-10.449v-66.874
			c0-5.771,4.678-10.449,10.449-10.449h153.078c5.771,0,10.449,4.678,10.449,10.449v66.874
			C222.563,265.509,217.885,270.187,212.114,270.187z M69.486,249.289h132.18v-45.976H69.486V249.289z"/>
		<path style="fill:#083863;" d="M166.139,237.273H155.69c-5.474,0.297-10.152-3.901-10.449-9.375c-0.019-0.358-0.019-0.716,0-1.074
			c0-5.771,4.678-10.449,10.449-10.449h10.449c5.771,0,10.449,4.678,10.449,10.449c0.297,5.474-3.901,10.152-9.375,10.449
			C166.855,237.292,166.496,237.292,166.139,237.273z"/>
		<path style="fill:#083863;" d="M212.114,385.126H59.037c-5.771,0-10.449-4.678-10.449-10.449v-66.873
			c0-5.771,4.678-10.449,10.449-10.449h153.078c5.771,0,10.449,4.678,10.449,10.449v66.873
			C222.563,380.448,217.885,385.126,212.114,385.126z M69.486,364.228h132.18v-45.976H69.486V364.228z"/>
		<path style="fill:#083863;" d="M166.139,352.212H155.69c-5.474,0.297-10.152-3.901-10.449-9.375c-0.019-0.358-0.019-0.716,0-1.074
			c0-5.771,4.678-10.449,10.449-10.449h10.449c5.771,0,10.449,4.678,10.449,10.449c0.297,5.474-3.901,10.152-9.375,10.449
			C166.855,352.231,166.496,352.231,166.139,352.212z"/>
		<path style="fill:#083863;" d="M386.612,254.514v-54.857c0.212-6.443,5.093-11.769,11.494-12.539h2.09
			c12.445,0.298,24.489-4.407,33.437-13.061c18.467-18.665,18.307-48.767-0.359-67.235c-8.812-8.719-20.682-13.651-33.078-13.745
			H271.673V62.253c-1.118-32.162-27.379-57.731-59.559-57.992H59.037C26.949,4.531,0.843,30.175,0,62.253v322.873
			c0.843,32.078,26.949,57.721,59.037,57.992h153.078c32.18-0.26,58.441-25.83,59.559-57.992V113.975h128.522
			c14.8,0.285,26.648,12.365,26.645,27.167c0.069,6.774-2.787,13.248-7.837,17.763c-5.036,4.859-11.812,7.494-18.808,7.314h-2.09
			c-17.94,0.827-32.135,15.479-32.392,33.437v55.38c-26.889,5.582-46.379,28.969-47.02,56.424v31.347
			c1.191,6.38,6.582,11.123,13.061,11.494h7.837v35.527c0,5.771,4.678,10.449,10.449,10.449s10.449-4.678,10.449-10.449v-35.527
			h31.347v35.527c0,5.771,4.678,10.449,10.449,10.449s10.449-4.678,10.449-10.449v-35.527h13.061c5.747,0,7.837-5.747,7.837-11.494
			v-31.347c0.438-15.234-5.42-29.974-16.196-40.751C409.918,261.191,398.717,255.305,386.612,254.514z M245.551,385.649
			c0,20.198-16.374,36.571-36.571,36.571H57.469c-20.198,0-36.571-16.374-36.571-36.571V61.73c0-20.198,16.374-36.571,36.571-36.571
			h151.51c20.198,0,36.571,16.374,36.571,36.571V385.649z M412.735,333.404h-73.143v-21.943
			c0.286-20.484,17.125-36.858,37.609-36.572c0.002,0,0.005,0,0.007,0c9.594-0.117,18.828,3.652,25.6,10.449
			c6.687,7.019,10.265,16.434,9.927,26.122V333.404z"/>
	</g>
</g>
<g>
</g>
<g>
</g>
<g>
</g>
<g>
</g>
<g>
</g>
<g>
</g>
<g>
</g>
<g>
</g>
<g>
</g>
<g>
</g>
<g>
</g>
<g>
</g>
<g>
</g>
<g>
</g>
<g>
</g>
</svg>
