<?xml version="1.0" encoding="iso-8859-1"?>
<!-- Generator: Adobe Illustrator 19.0.0, SVG Export Plug-In . SVG Version: 6.00 Build 0)  -->
<svg version="1.1" id="Capa_1" xmlns="http://www.w3.org/2000/svg" xmlns:xlink="http://www.w3.org/1999/xlink" x="0px" y="0px"
	 viewBox="0 0 429.415 429.415" style="enable-background:new 0 0 429.415 429.415;" xml:space="preserve">
<g>
	<g>
		<path style="fill:#00EFD1;" d="M409.618,181.926v54.335l-17.241,3.135l-5.224-6.269c-23.714-23.74-57.105-35.128-90.384-30.825
			l0,0c-3.961-48.023-46.102-83.743-94.125-79.782c-48.023,3.961-83.743,46.102-79.782,94.125
			c3.477,42.162,36.701,75.755,78.822,79.698h0.522c-4.309,33.436,7.067,66.987,30.824,90.906l7.837,6.792l-1.567,2.09l-2.09,13.584
			h-54.857l-6.269-40.229c-19.526-4.003-38.132-11.623-54.857-22.465L87.79,370.53l-38.661-38.661l23.51-33.437
			c-10.667-16.817-18.272-35.389-22.465-54.857l-40.229-6.792v-54.335l40.229-6.792c4.095-19.498,11.708-38.087,22.465-54.857
			l-23.51-33.437L87.79,48.702l33.437,23.51c16.817-10.667,35.389-18.272,54.857-22.465l6.269-40.229h54.857l6.792,40.229
			c19.468,4.193,38.04,11.799,54.857,22.465l33.437-24.033l38.139,38.661l-23.51,33.437c10.614,16.904,18.379,35.436,22.988,54.857
			L409.618,181.926z"/>
		<path style="fill:#00ACEA;" d="M392.377,239.396c39.008,45.611,33.656,114.208-11.955,153.216
			c-40.026,34.232-98.837,34.834-139.555,1.429l-7.837-6.792c-39.911-45.208-35.617-114.211,9.591-154.122
			c41.284-36.447,103.248-36.447,144.532,0L392.377,239.396z"/>
	</g>
	<g>
		<path style="fill:#083863;" d="M410.663,246.71L410.663,246.71c4.788-1.045,7.972-5.592,7.314-10.449v-53.812
			c0.657-4.857-2.526-9.404-7.314-10.449l-32.914-5.747c-4.087-15.883-10.235-31.164-18.286-45.453l19.853-27.69
			c2.5-4.307,2.085-9.71-1.045-13.584L339.61,40.865c-3.737-3.458-9.362-3.891-13.584-1.045l-27.69,19.853
			c-14.352-7.92-29.615-14.06-45.453-18.286l-5.747-32.914c-0.548-4.989-4.917-8.668-9.927-8.359h-54.335
			c-5.12-0.333-9.65,3.291-10.449,8.359l-5.747,32.914c-15.901,4.275-31.18,10.597-45.453,18.808l-27.69-19.853
			c-4.307-2.5-9.71-2.085-13.584,1.045L41.292,80.049c-3.458,3.737-3.891,9.362-1.045,13.584l19.853,27.69
			c-8.3,14.229-14.627,29.52-18.808,45.453l-32.914,5.747c-4.989,0.548-8.668,4.917-8.359,9.927v54.857
			c-0.309,5.009,3.37,9.378,8.359,9.927l32.914,5.747c4.275,15.901,10.597,31.18,18.808,45.453l-19.853,27.69
			c-2.5,4.307-2.085,9.71,1.045,13.584l38.661,38.661c3.737,3.458,9.362,3.891,13.584,1.045l27.69-19.853
			c14.229,8.3,29.52,14.627,45.453,18.808l5.747,32.392c1.045,4.788,5.592,7.972,10.449,7.314h54.335
			c4.669,0.374,8.901-2.745,9.927-7.314l0,0c55.255,35.171,128.559,18.89,163.73-36.365
			C435.671,335.425,435.592,285.599,410.663,246.71z M191.234,397.175l-5.224-30.302c-0.462-4.122-3.715-7.375-7.837-7.837
			c-18.298-3.991-35.787-11.058-51.722-20.898c-3.591-2.141-8.112-1.935-11.494,0.522l-26.122,18.286l-26.122-26.122l18.286-26.122
			c2.296-3.487,2.296-8.007,0-11.494c-9.796-15.958-16.859-33.439-20.898-51.722c-0.632-4.038-3.799-7.205-7.837-7.837
			l-31.347-5.225V191.33l31.347-5.224c4.122-0.462,7.375-3.715,7.837-7.837c4.223-18.226,11.275-35.678,20.898-51.722
			c2.614-3.385,2.614-8.108,0-11.494L62.712,88.93l26.122-26.122l26.122,18.286c3.487,2.296,8.007,2.296,11.494,0
			c15.958-9.796,33.439-16.859,51.722-20.898c4.038-0.632,7.205-3.799,7.837-7.837l5.224-31.347h37.094l5.224,31.347
			c0.462,4.122,3.715,7.375,7.837,7.837c18.226,4.223,35.678,11.275,51.722,20.898c3.385,2.614,8.108,2.614,11.494,0l26.122-18.808
			l26.122,26.122l-18.286,26.122c-2.296,3.487-2.296,8.007,0,11.494c9.796,15.958,16.859,33.439,20.898,51.722
			c1.045,4.18,3.135,7.314,7.314,7.837l30.302,5.224v37.094h-1.567c-0.714-0.741-1.249-1.634-1.567-2.612
			c-23.287-23.376-55.328-35.889-88.294-34.482c-9.164-45.914-49.313-79.079-96.131-79.412c-53.957,0-97.698,43.741-97.698,97.698
			c-0.501,47.117,33.048,87.728,79.412,96.131c-1.509,33.292,10.997,65.694,34.482,89.339c1.045,1.045,2.09,0.522,2.612,1.567v1.045
			H191.234z M193.847,284.326c-41.465-8.93-67.84-49.783-58.91-91.248s49.783-67.84,91.248-58.91
			c29.819,6.422,53.012,29.882,59.09,59.774c-22.482,4.737-43.144,15.794-59.559,31.869
			C209.672,241.835,198.604,262.156,193.847,284.326z M379.316,379.412c-35.405,36.238-92.711,39.194-131.657,6.792l-7.314-6.792
			c-21.557-21.286-31.818-51.489-27.69-81.502c5.118-44.937,40.714-80.316,85.682-85.159l12.016-1.045
			c25.875,0.12,50.658,10.446,68.963,28.735l5.224,5.747l0,0C418.079,285.068,415.797,343.277,379.316,379.412z"/>
		<path style="fill:#083863;" d="M324.981,316.196l29.257-29.78c4.617-3.462,5.552-10.012,2.09-14.629
			c-3.462-4.617-10.012-5.552-14.629-2.09c-0.792,0.594-1.496,1.298-2.09,2.09l-29.78,29.78l-29.257-29.78
			c-3.462-4.617-10.012-5.552-14.629-2.09c-4.617,3.462-5.552,10.012-2.09,14.629c0.594,0.792,1.298,1.496,2.09,2.09l29.257,29.78
			l-29.257,29.257c-4.047,4.24-4.047,10.911,0,15.151c1.854,2.076,4.532,3.224,7.314,3.135c2.756-0.039,5.385-1.166,7.314-3.135
			l29.257-29.78l29.78,29.78c3.706,4.04,9.986,4.31,14.025,0.603c0.21-0.192,0.411-0.394,0.603-0.603
			c4.047-4.24,4.047-10.911,0-15.151L324.981,316.196z"/>
	</g>
</g>
<g>
</g>
<g>
</g>
<g>
</g>
<g>
</g>
<g>
</g>
<g>
</g>
<g>
</g>
<g>
</g>
<g>
</g>
<g>
</g>
<g>
</g>
<g>
</g>
<g>
</g>
<g>
</g>
<g>
</g>
</svg>
