<?xml version="1.0" encoding="iso-8859-1"?>
<!-- Generator: Adobe Illustrator 19.0.0, SVG Export Plug-In . SVG Version: 6.00 Build 0)  -->
<svg version="1.1" id="Capa_1" xmlns="http://www.w3.org/2000/svg" xmlns:xlink="http://www.w3.org/1999/xlink" x="0px" y="0px"
	 viewBox="0 0 480.653 480.653" style="enable-background:new 0 0 480.653 480.653;" xml:space="preserve">
<g>
	<g>
		<path style="fill:#00ACEA;" d="M461.845,362.58l-5.225,1.045c-3.086,0.067-6.079-1.055-8.359-3.135
			c-1.902-1.823-3.182-4.2-3.657-6.792v-17.763h24.033v15.673C468.695,356.274,466.047,360.551,461.845,362.58z"/>
		<g>
			<path style="fill:#00EFD1;" d="M461.845,362.58v79.412c0,6.636-5.38,12.016-12.016,12.016h0h-21.42v-50.155h-62.171v50.155
				h-21.943c-6.636,0-12.016-5.38-12.016-12.016v0V362.58c1.604,0.845,3.419,1.208,5.224,1.045c6.636,0,12.016-5.38,12.016-12.016v0
				l0,0v2.612c0,8.945,7.251,16.196,16.196,16.196c0,0,0,0,0,0c8.74-0.282,15.678-7.451,15.673-16.196
				c-0.147,4.327,1.564,8.51,4.702,11.494c2.925,2.907,6.849,4.589,10.971,4.702c8.656,0.005,15.677-7.009,15.682-15.665
				c0-0.177-0.003-0.354-0.009-0.531h0.522c-0.147,4.327,1.564,8.51,4.702,11.494c2.925,2.907,6.849,4.589,10.971,4.702
				c8.656,0.005,15.677-7.009,15.682-15.665c0-0.177-0.003-0.354-0.009-0.531l0,0c0.475,2.592,1.755,4.968,3.657,6.792
				c2.28,2.08,5.274,3.202,8.359,3.135L461.845,362.58z"/>
			<path style="fill:#00EFD1;" d="M461.845,335.412h-48.588v18.286h-0.522v-17.763h-63.216v15.673l0,0v-15.673h-17.241v-15.151
				c0-6.636,5.38-12.016,12.016-12.016l0,0h105.535c6.636,0,12.016,5.38,12.016,12.016l0,0V335.412z"/>
		</g>
		<g>
			<path style="fill:#00ACEA;" d="M444.604,353.698L444.604,353.698c0.289,8.651-6.491,15.899-15.142,16.187
				c-0.177,0.006-0.354,0.009-0.531,0.009c-4.051,0.028-7.966-1.463-10.971-4.18c-3.138-2.983-4.849-7.167-4.702-11.494v-18.286
				h31.347V353.698L444.604,353.698z"/>
			<rect x="366.237" y="403.853" style="fill:#00ACEA;" width="62.171" height="50.051"/>
			<path style="fill:#00ACEA;" d="M412.735,335.935v18.286c0.289,8.651-6.491,15.899-15.142,16.187
				c-0.177,0.006-0.354,0.009-0.531,0.009c-4.122-0.113-8.046-1.795-10.971-4.702c-3.138-2.983-4.849-7.167-4.702-11.494v-18.286
				H412.735z"/>
			<path style="fill:#00ACEA;" d="M381.388,335.935v18.286c0.005,8.745-6.933,15.914-15.673,16.196
				c-8.945,0-16.196-7.251-16.196-16.196v-18.286H381.388z"/>
			<path style="fill:#00ACEA;" d="M332.278,362.58l-3.135-2.09c-2.35-2.358-3.665-5.553-3.657-8.882v-15.673h24.033v15.673
				c0,6.636-5.38,12.016-12.016,12.016h0C335.696,363.787,333.882,363.424,332.278,362.58z"/>
			<path style="fill:#00ACEA;" d="M305.11,80.457l-5.224,1.045c-3.086,0.067-6.079-1.055-8.359-3.135
				c-1.902-1.823-3.182-4.2-3.657-6.792V53.812h24.033v15.673C311.96,74.151,309.312,78.429,305.11,80.457z"/>
		</g>
		<g>
			<path style="fill:#00EFD1;" d="M305.11,80.457v79.412c0,6.636-5.38,12.016-12.016,12.016h-21.42v-50.155h-62.171v50.155h-21.943
				c-6.636,0-12.016-5.38-12.016-12.016V80.457c1.604,0.845,3.419,1.208,5.224,1.045c6.636,0,12.016-5.38,12.016-12.016l0,0v2.612
				c0.133,4.272,1.803,8.353,4.702,11.494c3.141,2.899,7.222,4.569,11.494,4.702c8.74-0.282,15.678-7.451,15.673-16.196
				c-0.147,4.327,1.564,8.51,4.702,11.494c2.925,2.907,6.849,4.589,10.971,4.702c8.656,0.005,15.677-7.009,15.682-15.665
				c0-0.177-0.003-0.354-0.009-0.531h0.522c-0.147,4.327,1.564,8.51,4.702,11.494c2.925,2.907,6.849,4.589,10.971,4.702
				c8.656,0.005,15.677-7.009,15.682-15.665c0-0.177-0.003-0.354-0.009-0.531l0,0c0.475,2.592,1.755,4.968,3.657,6.792
				c2.28,2.08,5.274,3.202,8.359,3.135L305.11,80.457z"/>
			<path style="fill:#00EFD1;" d="M305.11,53.29h-48.588v18.286H256V53.812h-63.216v15.673l0,0V53.812h-17.241V38.661
				c0-6.636,5.38-12.016,12.016-12.016h105.535c6.636,0,12.016,5.38,12.016,12.016V53.29z"/>
		</g>
		<g>
			<path style="fill:#00ACEA;" d="M287.869,71.576L287.869,71.576c0.289,8.651-6.491,15.899-15.142,16.187
				c-0.177,0.006-0.354,0.009-0.531,0.009c-4.051,0.028-7.966-1.463-10.971-4.18c-3.138-2.983-4.849-7.167-4.702-11.494V53.812
				h31.347V71.576z"/>
			<rect x="209.502" y="121.731" style="fill:#00ACEA;" width="62.171" height="50.051"/>
			<path style="fill:#00ACEA;" d="M256,53.812v18.286c0.289,8.651-6.491,15.899-15.142,16.187c-0.177,0.006-0.354,0.009-0.531,0.009
				c-4.122-0.113-8.046-1.795-10.971-4.702c-3.138-2.983-4.849-7.167-4.702-11.494V53.812H256z"/>
			<path style="fill:#00ACEA;" d="M224.653,53.812v18.286c0.005,8.745-6.933,15.914-15.673,16.196
				c-4.272-0.133-8.353-1.803-11.494-4.702c-2.899-3.141-4.569-7.222-4.702-11.494V53.812H224.653z"/>
			<path style="fill:#00ACEA;" d="M175.543,80.457l-3.135-2.09c-2.35-2.358-3.665-5.553-3.657-8.882V53.812h24.033v15.673
				c0,6.636-5.38,12.016-12.016,12.016C178.962,81.665,177.147,81.302,175.543,80.457z"/>
			<path style="fill:#00ACEA;" d="M148.376,362.58l-5.224,1.045c-3.086,0.067-6.079-1.055-8.359-3.135
				c-1.902-1.823-3.182-4.2-3.657-6.792v-17.763h24.033v15.673C155.226,356.274,152.578,360.551,148.376,362.58z"/>
		</g>
		<g>
			<path style="fill:#00EFD1;" d="M148.376,362.58v79.412c0,6.636-5.38,12.016-12.016,12.016h0h-21.42v-50.155H52.767v50.155H30.824
				c-6.636,0-12.016-5.38-12.016-12.016l0,0V362.58c1.604,0.845,3.419,1.208,5.224,1.045c6.636,0,12.016-5.38,12.016-12.016l0,0l0,0
				v2.612c0.133,4.272,1.803,8.353,4.702,11.494c3.141,2.899,7.222,4.569,11.494,4.702c8.74-0.282,15.678-7.451,15.673-16.196
				c-0.147,4.327,1.564,8.51,4.702,11.494c2.925,2.907,6.849,4.589,10.971,4.702c8.656,0.005,15.677-7.009,15.682-15.665
				c0-0.177-0.003-0.354-0.009-0.531h0.522c-0.147,4.327,1.564,8.51,4.702,11.494c2.925,2.907,6.849,4.589,10.971,4.702
				c8.656,0.005,15.677-7.009,15.682-15.665c0-0.177-0.003-0.354-0.009-0.531l0,0c0.475,2.592,1.755,4.968,3.657,6.792
				c2.28,2.08,5.274,3.202,8.359,3.135L148.376,362.58z"/>
			<path style="fill:#00EFD1;" d="M148.376,335.412H99.788v18.286h-0.522v-17.763H36.049v15.673l0,0v-15.673H18.808v-15.151
				c0-6.636,5.38-12.016,12.016-12.016h105.535c6.636,0,12.016,5.38,12.016,12.016V335.412z"/>
		</g>
		<g>
			<path style="fill:#00ACEA;" d="M131.135,353.698L131.135,353.698c0.289,8.651-6.491,15.899-15.142,16.187
				c-0.177,0.006-0.354,0.009-0.531,0.009c-4.051,0.028-7.966-1.463-10.971-4.18c-3.138-2.983-4.849-7.167-4.702-11.494v-18.286
				h31.347V353.698L131.135,353.698z"/>
			<rect x="52.767" y="403.853" style="fill:#00ACEA;" width="62.171" height="50.051"/>
			<path style="fill:#00ACEA;" d="M99.265,335.935v18.286c0.289,8.651-6.491,15.899-15.142,16.187
				c-0.177,0.006-0.354,0.009-0.531,0.009c-4.122-0.113-8.046-1.795-10.971-4.702c-3.138-2.983-4.849-7.167-4.702-11.494v-18.286
				H99.265z"/>
			<path style="fill:#00ACEA;" d="M67.918,335.935v18.286c0.005,8.745-6.933,15.914-15.673,16.196
				c-4.272-0.133-8.353-1.803-11.494-4.702c-2.899-3.141-4.569-7.222-4.702-11.494v-18.286H67.918z"/>
			<path style="fill:#00ACEA;" d="M18.808,362.58l-3.135-2.09c-2.35-2.358-3.665-5.553-3.657-8.882v-15.673h24.033v15.673
				c0,6.636-5.38,12.016-12.016,12.016c0,0,0,0,0,0C22.227,363.787,20.413,363.424,18.808,362.58z"/>
		</g>
	</g>
	<g>
		<path style="fill:#083863;" d="M70.531,271.673c-5.771,0-10.449-4.678-10.449-10.449c-0.074-54.657,24.729-106.378,67.396-140.539
			c4.811-3.187,11.295-1.869,14.481,2.942c2.772,4.186,2.176,9.751-1.42,13.254c-37.684,30.269-59.592,76.007-59.559,124.343
			C80.98,266.995,76.301,271.673,70.531,271.673z"/>
		<path style="fill:#083863;" d="M240.327,441.469c-19.37,0.019-38.611-3.158-56.947-9.404c-5.229-1.648-8.132-7.223-6.484-12.451
			c0.065-0.206,0.136-0.409,0.214-0.61c1.749-5.467,7.581-8.5,13.061-6.792c32.897,10.955,68.458,10.955,101.355,0
			c5.331-1.758,11.098,1.01,13.061,6.269c1.742,5.616-1.253,11.608-6.792,13.584C279.292,438.359,259.871,441.537,240.327,441.469z"
			/>
		<path style="fill:#083863;" d="M410.122,271.673c-5.771,0-10.449-4.678-10.449-10.449c0.072-51.754-25.077-100.297-67.396-130.09
			c-4.761-3.318-5.93-9.868-2.612-14.629c3.318-4.761,9.868-5.93,14.629-2.612c47.724,33.913,76.133,88.785,76.278,147.331
			C420.571,266.995,415.893,271.673,410.122,271.673z"/>
		<path style="fill:#083863;" d="M313.469,43.363v-4.702c0-12.016-7.837-22.988-20.376-22.988H187.559
			c-12.539,0-20.376,10.971-20.376,22.988v4.702c-4.702,1.045-10.449,5.224-10.449,10.449v15.673
			c0.127,6.02,2.782,11.709,7.314,15.673c0.522,1.045,2.09,1.567,3.135,2.09v72.62c0,12.016,7.837,22.988,20.376,22.988h105.535
			c12.539,0,20.376-10.971,20.376-22.988v-72.62c5.919-4.102,9.739-10.596,10.449-17.763V53.812
			C323.918,48.588,318.171,44.408,313.469,43.363z M298.841,70.531h-0.522v-6.269h3.135v5.224h-2.612V70.531z M187.559,36.571
			h105.535c1.045,0-0.522,1.567-0.522,2.09v3.135h-104.49v-3.135C188.082,38.139,187.037,36.571,187.559,36.571z M276.898,71.576
			L276.898,71.576c0.289,2.871-1.805,5.432-4.676,5.721c-0.182,0.018-0.365,0.027-0.549,0.026c-1.367-0.07-2.664-0.626-3.657-1.567
			c-0.917-1.212-1.461-2.664-1.567-4.18v-8.882h10.449V71.576z M235.102,62.694h10.449v9.404c0.289,2.871-1.805,5.432-4.676,5.721
			c-0.182,0.018-0.365,0.027-0.549,0.026c-1.367-0.07-2.664-0.626-3.657-1.567c-0.917-1.212-1.461-2.664-1.567-4.18V62.694z
			 M214.204,72.098c0.012,2.981-2.256,5.476-5.224,5.747c-1.391,0.044-2.73-0.529-3.657-1.567c-1.121-1.089-1.696-2.622-1.567-4.18
			v-9.404h10.449V72.098z M179.2,70.008L179.2,70.008v-5.224h3.135v5.224c0,0.522,0,1.045-0.522,1.045L179.2,70.008z
			 M261.224,161.959h-41.796v-31.347h41.796V161.959z M293.094,161.959h-10.971v-40.229c0.052-6.07-4.431-11.225-10.449-12.016
			h-62.171c-6.112,0.766-10.763,5.86-10.971,12.016v40.229h-10.971c-0.522,0,0.522-1.567,0.522-2.09V90.906h2.09
			c5.045,4.908,11.771,7.71,18.808,7.837c5.743,0.019,11.304-2.02,15.673-5.747c4.415,3.649,9.946,5.677,15.673,5.747
			c5.9,0.008,11.621-2.022,16.196-5.747c4.37,3.727,9.93,5.766,15.673,5.747c7.177,0.033,14.024-3.01,18.808-8.359h1.567v69.486
			C292.571,160.392,294.139,161.959,293.094,161.959z"/>
		<path style="fill:#083863;" d="M167.184,335.935c0-4.702-5.224-8.359-10.449-9.927v-5.225c0-12.016-7.837-22.988-20.376-22.988
			H30.824c-12.539,0-20.376,10.971-20.376,22.988v5.225C5.224,327.576,0,331.233,0,335.935v15.673
			c0.515,6.151,3.538,11.819,8.359,15.673h2.09v74.71c0,12.016,7.837,22.988,20.376,22.988h105.535
			c12.539,0,20.376-10.971,20.376-22.988v-74.71c5.717-3.33,9.573-9.116,10.449-15.673V335.935z M142.106,352.653h-0.522v-6.269
			h3.135v5.224c0,1.045-0.522,1.567-1.045,1.567h-1.567V352.653z M30.824,318.694h105.535c1.045,0-0.522,1.567-0.522,2.09v3.135
			H31.347v-3.135C31.347,320.261,30.302,318.694,30.824,318.694z M120.163,353.698L120.163,353.698
			c0.289,2.871-1.805,5.432-4.676,5.721c-0.182,0.018-0.365,0.027-0.549,0.026c-1.367-0.07-2.664-0.626-3.657-1.567
			c-0.917-1.212-1.461-2.664-1.567-4.18v-8.882h10.449V353.698z M78.367,344.816h10.449v9.404c0.289,2.871-1.805,5.432-4.676,5.721
			c-0.182,0.018-0.365,0.027-0.549,0.026c-1.367-0.07-2.664-0.626-3.657-1.567c-0.917-1.212-1.461-2.664-1.567-4.18V344.816z
			 M57.469,354.22c0.012,2.981-2.256,5.476-5.224,5.747c-1.391,0.044-2.73-0.529-3.657-1.567c-1.121-1.089-1.696-2.622-1.567-4.18
			v-9.404h10.449V354.22z M22.988,352.653L22.988,352.653c-0.522,0-0.522-0.522-0.522-1.045v-5.224H25.6v5.224
			c0,0.866-0.702,1.567-1.567,1.567c0,0,0,0,0,0L22.988,352.653z M104.49,444.082H62.694v-31.347h41.796V444.082z M136.359,444.082
			h-10.971v-40.229c0.052-6.07-4.431-11.225-10.449-12.016H52.767c-6.112,0.767-10.763,5.86-10.971,12.016v40.229H30.824
			c-0.522,0,0.522-1.567,0.522-2.09v-68.441l2.612-1.045l0,0c4.833,4.979,11.358,7.962,18.286,8.359
			c5.76,0.116,11.354-1.935,15.673-5.747c4.415,3.649,9.946,5.677,15.673,5.747c5.9,0.008,11.621-2.022,16.196-5.747
			c4.37,3.727,9.93,5.766,15.673,5.747c6.873,0.009,13.39-3.057,17.763-8.359l2.612,1.045v68.441
			C135.837,442.514,137.404,444.082,136.359,444.082z"/>
		<path style="fill:#083863;" d="M480.653,335.935c0-4.702-5.224-8.359-10.449-9.927v-5.225c0-12.016-7.837-22.988-20.376-22.988
			H344.294c-12.539,0-20.376,10.971-20.376,22.988v5.225c-5.224,1.567-10.449,5.224-10.449,9.927v15.673
			c0.515,6.151,3.538,11.819,8.359,15.673h2.09v74.71c0,12.016,7.837,22.988,20.376,22.988h105.535
			c12.539,0,20.376-10.971,20.376-22.988v-74.71c5.717-3.33,9.573-9.116,10.449-15.673V335.935z M455.575,352.653h-0.522v-6.269
			h3.135v5.224c0,1.045-0.522,1.567-1.045,1.567h-1.567V352.653z M344.294,318.694h105.535c1.045,0-0.522,1.567-0.522,2.09v3.135
			h-104.49v-3.135C344.816,320.261,343.771,318.694,344.294,318.694z M433.633,353.698L433.633,353.698
			c0.289,2.871-1.805,5.432-4.676,5.721c-0.182,0.018-0.365,0.027-0.549,0.026c-1.367-0.07-2.664-0.626-3.657-1.567
			c-0.917-1.212-1.461-2.664-1.567-4.18v-8.882h10.449V353.698z M391.837,344.816h10.449v9.404c0.289,2.871-1.805,5.432-4.676,5.721
			c-0.182,0.018-0.365,0.027-0.549,0.026c-1.367-0.07-2.664-0.626-3.657-1.567c-0.917-1.212-1.461-2.664-1.567-4.18V344.816z
			 M370.939,354.22c0.012,2.981-2.256,5.476-5.225,5.747c-1.391,0.044-2.73-0.529-3.657-1.567c-1.121-1.089-1.696-2.622-1.567-4.18
			v-9.404h10.449V354.22z M336.457,352.653L336.457,352.653c-0.522,0-0.522-0.522-0.522-1.045v-5.224h3.135v5.224
			c0,0.866-0.702,1.567-1.567,1.567h0L336.457,352.653z M417.959,444.082h-41.796v-31.347h41.796V444.082z M449.829,444.082h-10.971
			v-40.229c0.052-6.07-4.431-11.225-10.449-12.016h-62.171c-6.112,0.767-10.763,5.86-10.971,12.016v40.229h-10.971
			c-0.522,0,0.522-1.567,0.522-2.09v-68.441l2.612-1.045l0,0c4.833,4.979,11.358,7.962,18.286,8.359
			c5.76,0.116,11.354-1.935,15.673-5.747c4.415,3.649,9.946,5.677,15.673,5.747c5.9,0.008,11.621-2.022,16.196-5.747
			c4.37,3.727,9.93,5.766,15.673,5.747c6.873,0.009,13.39-3.057,17.763-8.359l2.612,1.045v68.441
			C449.306,442.514,450.873,444.082,449.829,444.082z"/>
	</g>
</g>
<g>
</g>
<g>
</g>
<g>
</g>
<g>
</g>
<g>
</g>
<g>
</g>
<g>
</g>
<g>
</g>
<g>
</g>
<g>
</g>
<g>
</g>
<g>
</g>
<g>
</g>
<g>
</g>
<g>
</g>
</svg>
