<?xml version="1.0" encoding="iso-8859-1"?>
<!-- Generator: Adobe Illustrator 19.0.0, SVG Export Plug-In . SVG Version: 6.00 Build 0)  -->
<svg version="1.1" id="Capa_1" xmlns="http://www.w3.org/2000/svg" xmlns:xlink="http://www.w3.org/1999/xlink" x="0px" y="0px"
	 viewBox="0 0 459.755 459.755" style="enable-background:new 0 0 459.755 459.755;" xml:space="preserve">
<g>
	<g>
		<path style="fill:#00CEB4;" d="M448.784,359.445v54.335c0,12.539-28.212,22.465-62.171,22.465s-62.171-9.927-62.171-22.465
			v-54.335c0,12.539,28.212,22.465,62.171,22.465S448.784,371.984,448.784,359.445z"/>
		<path style="fill:#00ACEA;" d="M448.784,307.2v52.245c0,12.539-28.212,22.465-62.171,22.465s-62.171-9.927-62.171-22.465V307.2
			c0,12.539,28.212,22.465,62.171,22.465S448.784,319.739,448.784,307.2z"/>
		<path style="fill:#00EFD1;" d="M386.612,284.735c33.959,0,62.171,9.927,62.171,22.465s-28.212,22.465-62.171,22.465
			s-62.171-9.927-62.171-22.465S352.653,284.735,386.612,284.735z"/>
		<path style="fill:#00CEB4;" d="M292.049,98.22v54.335c0,12.539-28.212,22.465-62.171,22.465s-62.171-9.927-62.171-22.465V98.22
			c0,12.539,28.212,22.465,62.171,22.465S292.049,110.759,292.049,98.22z"/>
		<path style="fill:#00ACEA;" d="M292.049,45.976V98.22c0,12.539-28.212,22.465-62.171,22.465s-62.171-9.927-62.171-22.465V45.976
			c0,12.539,28.212,22.465,62.171,22.465S292.049,58.514,292.049,45.976z"/>
		<path style="fill:#00EFD1;" d="M229.878,23.51c33.959,0,62.171,9.927,62.171,22.465s-28.212,22.465-62.171,22.465
			s-62.171-9.927-62.171-22.465S195.918,23.51,229.878,23.51z"/>
		<path style="fill:#00CEB4;" d="M135.314,359.445v54.335c0,12.539-28.212,22.465-62.171,22.465s-62.171-9.927-62.171-22.465
			v-54.335c0,12.539,28.212,22.465,62.171,22.465S135.314,371.984,135.314,359.445z"/>
		<path style="fill:#00ACEA;" d="M135.314,307.2v52.245c0,12.539-28.212,22.465-62.171,22.465s-62.171-9.927-62.171-22.465V307.2
			c0,12.539,28.212,22.465,62.171,22.465S135.314,319.739,135.314,307.2z"/>
		<path style="fill:#00EFD1;" d="M73.143,284.735c33.959,0,62.171,9.927,62.171,22.465s-28.212,22.465-62.171,22.465
			s-62.171-9.927-62.171-22.465S39.184,284.735,73.143,284.735z"/>
	</g>
	<g>
		<path style="fill:#083863;" d="M302.498,43.886c-2.612-20.898-38.661-30.824-72.62-30.824s-70.008,9.927-72.62,30.824
			c0,0.522-0.522,1.567-0.522,2.09v106.58c0,22.465,38.139,32.914,73.143,32.914s73.143-10.449,73.143-32.914V45.976
			C303.02,45.453,302.498,44.408,302.498,43.886z M282.122,97.698c-5.224,3.657-20.898,12.539-52.245,12.539
			s-47.02-8.882-52.245-12.539v-27.69c16.774,5.945,34.449,8.949,52.245,8.882c17.796,0.068,35.471-2.937,52.245-8.882V97.698z
			 M229.878,33.959c30.302,0,48.065,7.837,51.2,12.016c3.135,4.18-20.898,12.016-51.2,12.016s-48.065-8.359-51.2-12.016
			C175.543,42.318,199.576,33.959,229.878,33.959z M229.878,164.571c-31.347,0-47.02-8.882-52.245-12.539v-29.78
			c33.826,11.826,70.664,11.826,104.49,0v29.78C276.898,155.69,261.224,164.571,229.878,164.571z"/>
		<path style="fill:#083863;" d="M235.624,106.057h-11.494c-5.771,0-10.449-4.678-10.449-10.449c0-5.771,4.678-10.449,10.449-10.449
			h11.494c5.771,0,10.449,4.678,10.449,10.449C246.073,101.379,241.395,106.057,235.624,106.057L235.624,106.057z"/>
		<path style="fill:#083863;" d="M235.624,157.257h-11.494c-5.771,0-10.449-4.678-10.449-10.449s4.678-10.449,10.449-10.449h11.494
			c5.771,0,10.449,4.678,10.449,10.449S241.395,157.257,235.624,157.257L235.624,157.257z"/>
		<path style="fill:#083863;" d="M60.082,258.612c-5.771,0-10.449-4.678-10.449-10.449c-0.074-54.657,24.729-106.378,67.396-140.539
			c4.811-3.187,11.295-1.869,14.481,2.942c2.772,4.186,2.176,9.751-1.42,13.254c-37.684,30.269-59.592,76.007-59.559,124.343
			C70.531,253.934,65.852,258.612,60.082,258.612z"/>
		<path style="fill:#083863;" d="M229.878,428.408c-19.37,0.019-38.611-3.158-56.947-9.404c-5.229-1.648-8.132-7.223-6.484-12.451
			c0.065-0.206,0.136-0.409,0.214-0.61c1.749-5.467,7.581-8.5,13.061-6.792c32.897,10.955,68.458,10.955,101.355,0
			c5.331-1.758,11.098,1.011,13.061,6.269c1.742,5.616-1.253,11.608-6.792,13.584C268.843,425.298,249.422,428.475,229.878,428.408z
			"/>
		<path style="fill:#083863;" d="M399.673,258.612c-5.771,0-10.449-4.678-10.449-10.449c0.072-51.754-25.077-100.297-67.396-130.09
			c-4.761-3.318-5.93-9.868-2.612-14.629c3.318-4.761,9.868-5.93,14.629-2.612c47.724,33.913,76.133,88.785,76.278,147.331
			C410.122,253.934,405.444,258.612,399.673,258.612z"/>
		<path style="fill:#083863;" d="M145.763,305.11c-2.612-20.898-38.661-30.824-72.62-30.824s-70.008,9.927-72.62,30.824
			c0,0.522-0.522,1.567-0.522,2.09v106.58c0,22.465,38.139,32.914,73.143,32.914s73.143-10.449,73.143-32.914V307.2
			C146.286,306.678,145.763,305.633,145.763,305.11z M125.388,358.922c-5.224,3.657-20.898,12.539-52.245,12.539
			s-47.02-8.882-52.245-12.539v-27.69c16.774,5.945,34.449,8.949,52.245,8.882c17.796,0.068,35.471-2.937,52.245-8.882V358.922z
			 M73.143,295.184c30.302,0,48.065,7.837,51.2,12.016c3.135,4.18-20.898,12.016-51.2,12.016s-48.065-8.359-51.2-12.016
			C18.808,303.543,42.841,295.184,73.143,295.184z M73.143,425.796c-31.347,0-47.02-8.882-52.245-12.539v-29.78
			c16.774,5.945,34.449,8.949,52.245,8.882c17.796,0.068,35.471-2.937,52.245-8.882v29.78
			C120.163,416.914,104.49,425.796,73.143,425.796z"/>
		<path style="fill:#083863;" d="M78.89,367.282H67.396c-5.771,0-10.449-4.678-10.449-10.449c0-5.771,4.678-10.449,10.449-10.449
			H78.89c5.771,0,10.449,4.678,10.449,10.449C89.339,362.603,84.661,367.282,78.89,367.282z"/>
		<path style="fill:#083863;" d="M78.89,418.482H67.396c-5.771,0-10.449-4.678-10.449-10.449c0-5.771,4.678-10.449,10.449-10.449
			H78.89c5.771,0,10.449,4.678,10.449,10.449C89.339,413.803,84.661,418.482,78.89,418.482z"/>
		<path style="fill:#083863;" d="M459.233,305.11c-2.612-20.898-38.661-30.824-72.62-30.824s-70.008,9.927-72.62,30.824
			c0,0.522-0.522,1.567-0.522,2.09v106.58c0,22.465,38.139,32.914,73.143,32.914s73.143-10.449,73.143-32.914V307.2
			C459.755,306.678,459.233,305.633,459.233,305.11z M438.857,358.922c-5.225,3.657-20.898,12.539-52.245,12.539
			s-47.02-8.882-52.245-12.539v-27.69c33.826,11.826,70.664,11.826,104.49,0V358.922z M386.612,295.184
			c30.302,0,48.065,7.837,51.2,12.016c3.135,4.18-20.898,12.016-51.2,12.016s-48.065-8.359-51.2-12.016
			C332.277,303.543,356.31,295.184,386.612,295.184z M386.612,425.796c-31.347,0-47.02-8.882-52.245-12.539v-29.78
			c33.826,11.826,70.664,11.826,104.49,0v29.78C433.633,416.914,417.959,425.796,386.612,425.796z"/>
		<path style="fill:#083863;" d="M392.359,367.282h-11.494c-5.771,0-10.449-4.678-10.449-10.449c0-5.771,4.678-10.449,10.449-10.449
			h11.494c5.771,0,10.449,4.678,10.449,10.449C402.808,362.603,398.13,367.282,392.359,367.282z"/>
		<path style="fill:#083863;" d="M392.359,418.482h-11.494c-5.771,0-10.449-4.678-10.449-10.449c0-5.771,4.678-10.449,10.449-10.449
			h11.494c5.771,0,10.449,4.678,10.449,10.449C402.808,413.803,398.13,418.482,392.359,418.482z"/>
	</g>
</g>
<g>
</g>
<g>
</g>
<g>
</g>
<g>
</g>
<g>
</g>
<g>
</g>
<g>
</g>
<g>
</g>
<g>
</g>
<g>
</g>
<g>
</g>
<g>
</g>
<g>
</g>
<g>
</g>
<g>
</g>
</svg>
