<?xml version="1.0" encoding="iso-8859-1"?>
<!-- Generator: Adobe Illustrator 19.0.0, SVG Export Plug-In . SVG Version: 6.00 Build 0)  -->
<svg version="1.1" id="Capa_1" xmlns="http://www.w3.org/2000/svg" xmlns:xlink="http://www.w3.org/1999/xlink" x="0px" y="0px"
	 viewBox="0 0 464.98 464.98" style="enable-background:new 0 0 464.98 464.98;" xml:space="preserve">
<polygon style="fill:#00EFD1;" points="453.486,301.453 453.486,395.494 415.347,395.494 362.057,395.494 323.918,395.494 
	323.918,301.453 "/>
<rect x="362.057" y="395.494" style="fill:#00ACEA;" width="53.29" height="29.257"/>
<polygon style="fill:#00EFD1;" points="296.751,40.229 296.751,134.269 258.612,134.269 205.322,134.269 167.184,134.269 
	167.184,40.229 "/>
<rect x="205.322" y="134.269" style="fill:#00ACEA;" width="53.29" height="29.257"/>
<polygon style="fill:#00EFD1;" points="140.016,301.453 140.016,395.494 101.878,395.494 48.588,395.494 10.449,395.494 
	10.449,301.453 "/>
<rect x="48.588" y="395.494" style="fill:#00ACEA;" width="53.29" height="29.257"/>
<g>
	<path style="fill:#083863;" d="M297.273,29.78h-130.09c-5.747,0-10.449,4.702-10.449,10.449v94.041
		c0,5.747,4.702,10.449,10.449,10.449h28.212v8.359h-9.926c-5.747,0-10.449,4.702-10.449,10.449c0,5.747,4.702,10.449,10.449,10.449
		h91.951c5.747,0,10.449-4.702,10.449-10.449c0-5.747-4.702-10.449-10.449-10.449h-7.837v-8.359h28.212
		c5.747,0,10.449-4.702,10.449-10.449V40.229C307.722,34.482,303.02,29.78,297.273,29.78z M248.163,153.077h-32.392v-8.359h32.392
		V153.077z M286.824,123.82H177.633V50.678h109.192V123.82z"/>
	<path style="fill:#083863;" d="M62.171,248.163c-5.747,0-10.449-4.702-10.449-10.449c0-54.857,24.555-106.057,67.396-140.539
		c4.702-3.657,10.971-3.135,14.629,1.567c3.657,4.702,3.135,10.971-1.567,14.629C94.041,143.673,72.62,189.126,72.62,237.714
		C72.62,243.461,67.918,248.163,62.171,248.163z"/>
	<path style="fill:#083863;" d="M231.967,417.959c-19.331,0-38.661-3.135-56.947-9.404c-5.224-1.567-8.359-7.837-6.792-13.061
		c1.567-5.224,7.837-8.359,13.061-6.792c32.392,10.971,68.441,10.971,101.355,0c5.747-2.09,11.494,1.045,13.061,6.792
		c2.09,5.224-1.045,11.494-6.792,13.061C271.151,414.824,251.82,417.959,231.967,417.959z"/>
	<path style="fill:#083863;" d="M401.763,248.163c-5.747,0-10.449-4.702-10.449-10.449c0-51.722-25.078-100.31-67.396-130.09
		c-4.702-3.135-5.747-9.926-2.612-14.629c3.135-4.702,9.926-5.747,14.629-2.612c47.543,33.959,76.278,88.816,76.278,147.331
		C412.212,243.461,407.51,248.163,401.763,248.163z"/>
	<path style="fill:#083863;" d="M140.539,291.004H10.449C4.702,291.004,0,295.706,0,301.453v94.041
		c0,5.747,4.702,10.449,10.449,10.449h28.212v8.359h-9.926c-5.747,0-10.449,4.702-10.449,10.449c0,5.747,4.702,10.449,10.449,10.449
		h91.429c5.747,0,10.449-4.702,10.449-10.449c0-5.747-4.702-10.449-10.449-10.449h-7.837v-8.359h28.212
		c5.747,0,10.449-4.702,10.449-10.449v-94.041C150.988,295.706,146.286,291.004,140.539,291.004z M91.429,414.302H59.037v-8.359
		h32.392V414.302z M130.09,385.045H20.898v-73.143H130.09V385.045z"/>
	<path style="fill:#083863;" d="M454.008,291.004h-130.09c-5.747,0-10.449,4.702-10.449,10.449v94.041
		c0,5.747,4.702,10.449,10.449,10.449h28.212v8.359h-9.927c-5.747,0-10.449,4.702-10.449,10.449c0,5.747,4.702,10.449,10.449,10.449
		h91.951c5.747,0,10.449-4.702,10.449-10.449c0-5.747-4.702-10.449-10.449-10.449h-7.837v-8.359h28.212
		c5.747,0,10.449-4.702,10.449-10.449v-94.041C464.457,295.706,459.755,291.004,454.008,291.004z M404.898,414.302h-32.392v-8.359
		h32.392V414.302z M443.559,385.045H334.367v-73.143h109.192V385.045z"/>
</g>
<g>
</g>
<g>
</g>
<g>
</g>
<g>
</g>
<g>
</g>
<g>
</g>
<g>
</g>
<g>
</g>
<g>
</g>
<g>
</g>
<g>
</g>
<g>
</g>
<g>
</g>
<g>
</g>
<g>
</g>
</svg>
