<?xml version="1.0" encoding="iso-8859-1"?>
<!-- Generator: Adobe Illustrator 19.0.0, SVG Export Plug-In . SVG Version: 6.00 Build 0)  -->
<svg version="1.1" id="Capa_1" xmlns="http://www.w3.org/2000/svg" xmlns:xlink="http://www.w3.org/1999/xlink" x="0px" y="0px"
	 viewBox="0 0 459.755 459.755" style="enable-background:new 0 0 459.755 459.755;" xml:space="preserve">
<g>
	<g>
		<path style="fill:#00EFD1;" d="M449.306,87.249v285.257c0,5.771-4.678,10.449-10.449,10.449h-92.996v-2.612l-20.898-48.065
			H134.792l-20.898,48.065v2.612H20.898c-5.771,0-10.449-4.678-10.449-10.449V87.249c0-5.771,4.678-10.449,10.449-10.449h417.959
			C444.628,76.8,449.306,81.478,449.306,87.249z M404.898,296.229V137.404H54.857v158.825H404.898z"/>
		<g>
			<path style="fill:#00ACEA;" d="M404.898,137.404v158.825H54.857V137.404H404.898z M356.31,216.816
				c0-23.372-18.947-42.318-42.318-42.318H140.539c-11.206,0.018-21.935,4.536-29.78,12.539c-7.86,7.941-12.352,18.608-12.539,29.78
				c0,23.372,18.947,42.318,42.318,42.318h0h173.453c11.206-0.018,21.935-4.536,29.78-12.539
				C351.631,238.655,356.123,227.988,356.31,216.816z"/>
			<polygon style="fill:#00ACEA;" points="345.861,380.343 345.861,382.955 113.894,382.955 113.894,380.343 134.792,332.278 
				324.963,332.278 			"/>
		</g>
		<path style="fill:#00EFD1;" d="M313.992,174.498c23.372,0,42.318,18.947,42.318,42.318c-0.187,11.171-4.679,21.839-12.539,29.78
			c-7.844,8.003-18.574,12.52-29.78,12.539H140.539c-23.372,0-42.318-18.947-42.318-42.318l0,0
			c0.187-11.171,4.679-21.839,12.539-29.78c7.844-8.003,18.574-12.52,29.78-12.539L313.992,174.498z M329.143,216.816
			c0-11.542-9.356-20.898-20.898-20.898c-11.542,0-20.898,9.356-20.898,20.898c0,11.542,9.356,20.898,20.898,20.898
			C319.786,237.714,329.143,228.358,329.143,216.816z M167.184,216.816c0-11.542-9.356-20.898-20.898-20.898
			c-11.542,0-20.898,9.356-20.898,20.898c0,11.542,9.356,20.898,20.898,20.898C157.827,237.714,167.184,228.358,167.184,216.816z"/>
		<g>
			<circle style="fill:#00ACEA;" cx="308.245" cy="216.816" r="20.898"/>
			<circle style="fill:#00ACEA;" cx="146.286" cy="216.816" r="20.898"/>
		</g>
	</g>
	<g>
		<path style="fill:#083863;" d="M459.755,88.816c0-11.542-9.356-20.898-20.898-20.898H20.898C9.356,67.918,0,77.275,0,88.816
			v282.122c0,11.542,9.356,20.898,20.898,20.898h417.959c11.542,0,20.898-9.356,20.898-20.898V88.816z M129.045,370.939
			l12.539-26.122h176.588l12.539,26.122H129.045z M438.857,370.939h-85.159l-19.331-42.841c-1.567-3.657-5.224-4.18-9.404-4.18
			H134.792c-4.18,0-7.837,0.522-9.404,4.18l-19.331,42.841H20.898V88.816h417.959V370.939z"/>
		<path style="fill:#083863;" d="M313.469,269.584H141.061c-29.228,0.001-53.003-23.54-53.29-52.767
			c0.147-14.097,5.767-27.586,15.673-37.616c9.987-9.909,23.549-15.372,37.616-15.151h172.408
			c29.228-0.001,53.003,23.54,53.29,52.767c-0.147,14.097-5.767,27.586-15.673,37.616
			C341.098,264.342,327.537,269.804,313.469,269.584z M141.061,184.947c-8.631-0.164-16.947,3.238-22.988,9.404
			c-5.938,5.98-9.311,14.039-9.404,22.465c-0.002,17.601,14.264,31.871,31.865,31.874c0.176,0,0.351-0.001,0.527-0.004h172.408
			c8.631,0.164,16.947-3.238,22.988-9.404c5.938-5.98,9.311-14.039,9.404-22.465c0.002-17.601-14.264-31.871-31.865-31.874
			c-0.176,0-0.351,0.001-0.527,0.004H141.061z"/>
		<path style="fill:#083863;" d="M146.286,248.163c-17.312,0-31.347-14.034-31.347-31.347s14.034-31.347,31.347-31.347
			s31.347,14.034,31.347,31.347S163.598,248.163,146.286,248.163z M146.286,206.367c-5.771,0-10.449,4.678-10.449,10.449
			c0,5.771,4.678,10.449,10.449,10.449s10.449-4.678,10.449-10.449C156.735,211.046,152.057,206.367,146.286,206.367z"/>
		<path style="fill:#083863;" d="M308.245,248.163c-17.312,0-31.347-14.034-31.347-31.347s14.035-31.347,31.347-31.347
			c17.312,0,31.347,14.034,31.347,31.347S325.557,248.163,308.245,248.163z M308.245,206.367c-5.771,0-10.449,4.678-10.449,10.449
			c0,5.771,4.678,10.449,10.449,10.449c5.771,0,10.449-4.678,10.449-10.449C318.694,211.046,314.016,206.367,308.245,206.367z"/>
		<path style="fill:#083863;" d="M404.898,306.678H54.857c-5.771,0-10.449-4.678-10.449-10.449V137.404
			c0-5.771,4.678-10.449,10.449-10.449h350.041c5.771,0,10.449,4.678,10.449,10.449v158.825
			C415.347,301.999,410.669,306.678,404.898,306.678z M65.306,285.78h329.143V147.853H65.306V285.78z"/>
	</g>
</g>
<g>
</g>
<g>
</g>
<g>
</g>
<g>
</g>
<g>
</g>
<g>
</g>
<g>
</g>
<g>
</g>
<g>
</g>
<g>
</g>
<g>
</g>
<g>
</g>
<g>
</g>
<g>
</g>
<g>
</g>
</svg>
