<?xml version="1.0" encoding="iso-8859-1"?>
<!-- Generator: Adobe Illustrator 19.0.0, SVG Export Plug-In . SVG Version: 6.00 Build 0)  -->
<svg version="1.1" id="Capa_1" xmlns="http://www.w3.org/2000/svg" xmlns:xlink="http://www.w3.org/1999/xlink" x="0px" y="0px"
	 viewBox="0 0 461.845 461.845" style="enable-background:new 0 0 461.845 461.845;" xml:space="preserve">
<g>
	<g>
		<polygon style="fill:#00ACEA;" points="450.88,79.935 434.684,138.449 100.839,138.449 100.317,138.449 90.39,80.98 
			95.615,79.935 		"/>
		<g>
			<path style="fill:#00EFD1;" d="M434.684,138.449l-20.376,72.098c-6.309,22.498-26.789,38.072-50.155,38.139H119.125
				l-18.808-110.237H434.684z"/>
			<circle style="fill:#00EFD1;" cx="344.823" cy="411.69" r="39.706"/>
			<circle style="fill:#00EFD1;" cx="156.219" cy="411.69" r="39.706"/>
		</g>
	</g>
	<g>
		<path style="fill:#083863;" d="M156.219,461.845c-27.7,0-50.155-22.455-50.155-50.155c0-27.7,22.455-50.155,50.155-50.155
			c27.7,0,50.155,22.455,50.155,50.155C206.374,439.39,183.919,461.845,156.219,461.845L156.219,461.845z M156.219,382.433
			c-16.158,0-29.257,13.099-29.257,29.257c0,16.158,13.099,29.257,29.257,29.257s29.257-13.099,29.257-29.257l0,0
			C185.476,395.532,172.377,382.433,156.219,382.433L156.219,382.433L156.219,382.433z"/>
		<path style="fill:#083863;" d="M344.823,461.845c-27.7,0-50.155-22.455-50.155-50.155c0-27.7,22.455-50.155,50.155-50.155
			c27.7,0,50.155,22.455,50.155,50.155l0,0C394.978,439.39,372.523,461.845,344.823,461.845z M344.823,382.433
			c-16.158,0-29.257,13.099-29.257,29.257c0,16.158,13.099,29.257,29.257,29.257c16.158,0,29.257-13.099,29.257-29.257l0,0
			C374.08,395.532,360.981,382.433,344.823,382.433C344.823,382.433,344.823,382.433,344.823,382.433L344.823,382.433z"/>
		<path style="fill:#083863;" d="M459.239,72.62c-1.968-2.711-5.021-4.428-8.359-4.702H99.272C90.913,26.122,54.864,0,12.023,0
			h-1.045C5.207,0,0.529,4.678,0.529,10.449s4.678,10.449,10.449,10.449h1.045c32.952-0.712,61.431,22.872,66.873,55.38
			l34.482,201.665c5.374,29.998,31.7,51.678,62.171,51.2h208.98c5.771,0,10.449-4.678,10.449-10.449s-4.678-10.449-10.449-10.449
			h-208.98c-20.206,0.813-37.876-13.501-41.273-33.437l-2.612-13.584h232.49c28.366-0.576,52.998-19.687,60.604-47.02
			l36.049-131.135C461.849,79.526,461.275,75.702,459.239,72.62z M426.847,130.612H109.198l-6.269-41.796h334.367L426.847,130.612z
			 M404.382,210.024c-5.135,17.953-21.556,30.322-40.229,30.302H128.007l-15.151-88.816h307.722L404.382,210.024z"/>
	</g>
</g>
<g>
</g>
<g>
</g>
<g>
</g>
<g>
</g>
<g>
</g>
<g>
</g>
<g>
</g>
<g>
</g>
<g>
</g>
<g>
</g>
<g>
</g>
<g>
</g>
<g>
</g>
<g>
</g>
<g>
</g>
</svg>
