<?xml version="1.0" encoding="iso-8859-1"?>
<!-- Generator: Adobe Illustrator 19.0.0, SVG Export Plug-In . SVG Version: 6.00 Build 0)  -->
<svg version="1.1" id="Capa_1" xmlns="http://www.w3.org/2000/svg" xmlns:xlink="http://www.w3.org/1999/xlink" x="0px" y="0px"
	 viewBox="0 0 482.235 482.235" style="enable-background:new 0 0 482.235 482.235;" xml:space="preserve">
<g>
	<g>
		<path style="fill:#00ACEA;" d="M418.209,178.716v45.453c0.005,21.057-14.14,39.489-34.482,44.931l-92.474,24.555l-1.567,1.045
			c-10.676,2.499-17.305,13.179-14.806,23.855c0.055,0.234,0.114,0.468,0.177,0.7c4.18,26.122,14.106,90.384,14.106,103.445
			c0,26.834-21.753,48.588-48.588,48.588c-26.834,0-48.588-21.754-48.588-48.588l0,0c0-13.061,9.927-77.322,14.106-103.445
			c0.522-1.045,0.522-1.045,0.522-1.567c1.575-10.926-5.838-21.119-16.718-22.988L98.47,269.622
			c-20.738-5.29-35.187-24.052-35.004-45.453v-45.453H418.209z"/>
		<path style="fill:#00EFD1;" d="M366.487,9.442h47.02c2.579-0.307,4.918,1.535,5.224,4.114c0.044,0.369,0.044,0.742,0,1.111
			v164.049H63.466V14.667c-0.307-2.579,1.535-4.918,4.114-5.224c0.369-0.044,0.742-0.044,1.111,0H366.487z"/>
	</g>
	<path style="fill:#083863;" d="M413.507,0.038H68.691c-8.059-0.577-15.059,5.488-15.636,13.546
		c-0.026,0.36-0.038,0.721-0.037,1.082v210.024c0.268,25.97,17.771,48.596,42.841,55.38l91.429,24.555h1.045
		c2.477,0.384,4.716,1.69,6.269,3.657c1.069,1.723,1.614,3.72,1.567,5.747v3.135c-2.09,9.404-14.629,89.861-14.629,106.057
		c0.013,32.605,26.455,59.026,59.06,59.014c32.587-0.013,59.001-26.427,59.014-59.014c0-15.673-10.971-85.159-14.106-106.057h-0.522
		c-1.347-5.182,1.658-10.498,6.792-12.016h2.612l91.429-24.555c24.968-6.824,42.293-29.496,42.318-55.38l1.045-208.98
		c0.583-8.347-5.712-15.587-14.059-16.169C414.584,0.027,414.045,0.018,413.507,0.038z M105.262,20.936v78.367
		c0,5.771,4.678,10.449,10.449,10.449c5.771,0,10.449-4.678,10.449-10.449V20.936h41.796v78.367c0,5.771,4.678,10.449,10.449,10.449
		c5.771,0,10.449-4.678,10.449-10.449V20.936h41.796v78.367c0,5.771,4.678,10.449,10.449,10.449c5.771,0,10.449-4.678,10.449-10.449
		V20.936h41.796v78.367c0,5.771,4.678,10.449,10.449,10.449s10.449-4.678,10.449-10.449V20.936h41.796v78.367
		c0,5.771,4.678,10.449,10.449,10.449s10.449-4.678,10.449-10.449V20.936h31.347v146.286H73.915V20.936H105.262z M380.593,259.173
		l-91.429,24.555h-2.612c-15.758,4.569-25.327,20.517-21.943,36.571c7.314,43.886,14.106,92.473,14.106,102.922
		c0,21.063-17.075,38.139-38.139,38.139c-21.063,0-38.139-17.075-38.139-38.139c0-10.971,7.837-65.306,13.584-100.833
		c0.65-1.3,1.007-2.727,1.045-4.18c1.054-7.786-1.012-15.673-5.747-21.943c-4.557-6.45-11.529-10.784-19.331-12.016l-90.906-24.555
		c-16.004-4.068-27.198-18.491-27.167-35.004V188.12H407.76v35.004C407.899,239.901,396.759,254.683,380.593,259.173z"/>
</g>
<g>
</g>
<g>
</g>
<g>
</g>
<g>
</g>
<g>
</g>
<g>
</g>
<g>
</g>
<g>
</g>
<g>
</g>
<g>
</g>
<g>
</g>
<g>
</g>
<g>
</g>
<g>
</g>
<g>
</g>
</svg>
