<?xml version="1.0" encoding="iso-8859-1"?>
<!-- Generator: Adobe Illustrator 19.0.0, SVG Export Plug-In . SVG Version: 6.00 Build 0)  -->
<svg version="1.1" id="Capa_1" xmlns="http://www.w3.org/2000/svg" xmlns:xlink="http://www.w3.org/1999/xlink" x="0px" y="0px"
	 viewBox="0 0 374.073 374.073" style="enable-background:new 0 0 374.073 374.073;" xml:space="preserve">
<g>
	<path style="fill:#00EFD1;" d="M72.62,187.037c0,63.19,51.226,114.416,114.416,114.416l0,0V72.62
		C123.846,72.62,72.62,123.846,72.62,187.037z"/>
	<g>
		<path style="fill:#083863;" d="M187.037,301.453c-63.19,0-114.416-51.226-114.416-114.416c0-63.19,51.226-114.416,114.416-114.416
			c63.19,0,114.416,51.226,114.416,114.416S250.227,301.453,187.037,301.453L187.037,301.453z M187.037,93.518
			c-51.649,0-93.518,41.87-93.518,93.518s41.87,93.518,93.518,93.518s93.518-41.87,93.518-93.518S238.686,93.518,187.037,93.518
			C187.037,93.518,187.037,93.518,187.037,93.518z"/>
		<g>
			<path style="fill:#00ACEA;" d="M286.302,98.22c-2.756-0.039-5.385-1.166-7.314-3.135c-4.04-3.706-4.31-9.986-0.603-14.025
				c0.192-0.21,0.394-0.411,0.603-0.603l25.6-25.6c3.462-4.617,10.012-5.552,14.629-2.09c4.617,3.463,5.552,10.012,2.09,14.629
				c-0.594,0.792-1.298,1.496-2.09,2.09l-25.6,25.6C291.687,97.054,289.058,98.181,286.302,98.22z"/>
			<path style="fill:#00ACEA;" d="M62.171,322.351c-2.756-0.039-5.385-1.166-7.314-3.135c-4.04-3.706-4.31-9.986-0.603-14.025
				c0.192-0.21,0.394-0.411,0.603-0.603l25.6-25.6c4.617-3.462,11.166-2.527,14.629,2.09c2.786,3.715,2.786,8.824,0,12.539
				l-25.6,25.6C67.557,321.185,64.928,322.312,62.171,322.351z"/>
			<path style="fill:#00ACEA;" d="M311.902,322.351c-2.756-0.039-5.385-1.166-7.314-3.135l-25.6-25.6
				c-3.463-4.617-2.527-11.166,2.09-14.629c3.715-2.786,8.824-2.786,12.539,0l25.6,25.6c4.04,3.706,4.31,9.986,0.603,14.025
				c-0.192,0.21-0.394,0.411-0.603,0.603C317.287,321.185,314.658,322.312,311.902,322.351z"/>
			<path style="fill:#00ACEA;" d="M87.771,98.22c-2.756-0.039-5.385-1.166-7.314-3.135l-25.6-25.6
				c-3.462-4.617-2.527-11.166,2.09-14.629c3.715-2.786,8.824-2.786,12.539,0l25.6,25.6c4.04,3.706,4.31,9.986,0.603,14.025
				c-0.192,0.21-0.394,0.411-0.603,0.603C93.157,97.054,90.528,98.181,87.771,98.22z"/>
			<path style="fill:#00ACEA;" d="M187.037,56.947c-5.771,0-10.449-4.678-10.449-10.449V10.449C176.588,4.678,181.266,0,187.037,0
				c5.771,0,10.449,4.678,10.449,10.449v36.049C197.486,52.269,192.808,56.947,187.037,56.947z"/>
			<path style="fill:#00ACEA;" d="M187.037,374.073c-5.771,0-10.449-4.678-10.449-10.449v-36.049
				c0-5.771,4.678-10.449,10.449-10.449c5.771,0,10.449,4.678,10.449,10.449v36.049
				C197.486,369.395,192.808,374.073,187.037,374.073z"/>
			<path style="fill:#00ACEA;" d="M363.625,197.486h-36.049c-5.771,0-10.449-4.678-10.449-10.449
				c0-5.771,4.678-10.449,10.449-10.449h36.049c5.771,0,10.449,4.678,10.449,10.449
				C374.073,192.808,369.395,197.486,363.625,197.486z"/>
			<path style="fill:#00ACEA;" d="M46.498,197.486H10.449C4.678,197.486,0,192.808,0,187.037c0-5.771,4.678-10.449,10.449-10.449
				h36.049c5.771,0,10.449,4.678,10.449,10.449C56.947,192.808,52.269,197.486,46.498,197.486z"/>
		</g>
	</g>
</g>
<g>
</g>
<g>
</g>
<g>
</g>
<g>
</g>
<g>
</g>
<g>
</g>
<g>
</g>
<g>
</g>
<g>
</g>
<g>
</g>
<g>
</g>
<g>
</g>
<g>
</g>
<g>
</g>
<g>
</g>
</svg>
