<?xml version="1.0" encoding="iso-8859-1"?>
<!-- Generator: Adobe Illustrator 19.0.0, SVG Export Plug-In . SVG Version: 6.00 Build 0)  -->
<svg version="1.1" id="Capa_1" xmlns="http://www.w3.org/2000/svg" xmlns:xlink="http://www.w3.org/1999/xlink" x="0px" y="0px"
	 viewBox="0 0 492.74 492.74" style="enable-background:new 0 0 492.74 492.74;" xml:space="preserve">
<g>
	<g>
		<path style="fill:#D4E1F4;" d="M385.303,423.238c-39.527,39.636-103.702,39.724-143.338,0.197
			c-8.95-8.926-16.152-19.447-21.234-31.021c-6.05-12.927-9.257-27.001-9.404-41.273c-0.001-56.265,45.611-101.878,101.876-101.879
			c0.175,0,0.349,0,0.524,0.001c7.746-0.192,15.482,0.687,22.988,2.612c54.774,12.869,88.744,67.705,75.875,122.479
			C408.238,392.876,398.786,409.811,385.303,423.238z"/>
		<path style="fill:#00EFD1;" d="M337.761,89.393v156.735l-1.045,5.747c-7.506-1.925-15.241-2.804-22.988-2.612
			c-56.265-0.289-102.11,45.089-102.399,101.354c-0.001,0.175-0.001,0.349-0.001,0.524c0.147,14.272,3.354,28.346,9.404,41.273
			H100.046c-28.073-0.286-50.679-23.126-50.678-51.2V48.642c0,22.218,18.011,40.229,40.229,40.229l0,0h248.163V89.393z"/>
		<path style="fill:#00ACEA;" d="M300.144,88.348v1.045H89.597c-22.218,0-40.229-18.011-40.229-40.229
			C48.784,27.531,65.846,9.52,87.479,8.936c0.706-0.019,1.412-0.019,2.118,0h210.547V88.348z"/>
	</g>
	<g>
		<path style="fill:#083863;" d="M259.916,190.748H127.214c-5.771,0-10.449-4.678-10.449-10.449
			c-0.297-5.474,3.901-10.152,9.375-10.449c0.358-0.019,0.716-0.019,1.074,0h132.702c5.474-0.297,10.152,3.901,10.449,9.375
			c0.019,0.358,0.019,0.716,0,1.074C270.365,186.07,265.686,190.748,259.916,190.748z"/>
		<path style="fill:#083863;" d="M452.177,474.96l-52.245-52.245c38.938-49.401,30.455-121.014-18.947-159.952
			c-10.44-8.229-22.24-14.566-34.866-18.726V88.87c0-5.747-2.09-10.449-7.837-10.449h-28.735V8.413c0-5.747-3.135-8.359-9.404-8.359
			H89.597C75.967-0.588,62.695,4.531,53.026,14.16c-9.56,9.15-15.023,21.771-15.151,35.004v292.571
			c0.572,34.043,28.633,61.177,62.676,60.604c0.006,0,0.012,0,0.018,0H213.94c19.505,37.092,57.881,60.399,99.788,60.604
			c25.968,0.144,51.145-8.927,71.053-25.6l52.245,52.245c2.055,2.1,4.9,3.238,7.837,3.135c2.692,0.159,5.332-0.784,7.314-2.612
			C455.762,485.697,455.762,479.374,452.177,474.96z M68.177,28.789c5.753-5.456,13.505-8.292,21.42-7.837H288.65v57.469H89.597
			c-16.148,0.577-29.706-12.046-30.283-28.194c-0.013-0.354-0.019-0.709-0.019-1.064C59.343,41.443,62.553,34.079,68.177,28.789z
			 M58.773,341.736V89.915c9.129,6.093,19.849,9.363,30.824,9.404h235.624v140.016l-13.061-1.045
			c-61.748-0.001-111.805,50.055-111.805,111.803c0,0.175,0,0.349,0.001,0.524c0.209,10.477,1.97,20.864,5.225,30.824H100.569
			c-22.499,0.584-41.211-17.181-41.795-39.679C58.773,341.753,58.773,341.744,58.773,341.736z M231.181,388.233L231.181,388.233
			c-21.063-45.574-1.194-99.594,44.38-120.658c11.964-5.529,24.987-8.391,38.167-8.387c7.041,0.099,14.049,0.975,20.898,2.612
			c41.251,9.685,70.442,46.444,70.531,88.816c0.106,24.129-9.496,47.287-26.645,64.261v1.045h-1.045
			c-16.599,16.626-39.202,25.856-62.694,25.6C278.861,441.719,246.161,420.872,231.181,388.233z"/>
	</g>
</g>
<g>
</g>
<g>
</g>
<g>
</g>
<g>
</g>
<g>
</g>
<g>
</g>
<g>
</g>
<g>
</g>
<g>
</g>
<g>
</g>
<g>
</g>
<g>
</g>
<g>
</g>
<g>
</g>
<g>
</g>
</svg>
