<?xml version="1.0" encoding="iso-8859-1"?>
<!-- Generator: Adobe Illustrator 19.0.0, SVG Export Plug-In . SVG Version: 6.00 Build 0)  -->
<svg version="1.1" id="Capa_1" xmlns="http://www.w3.org/2000/svg" xmlns:xlink="http://www.w3.org/1999/xlink" x="0px" y="0px"
	 viewBox="0 0 428.429 428.429" style="enable-background:new 0 0 428.429 428.429;" xml:space="preserve">
<g>
	<g>
		<path style="fill:#00ACEA;" d="M382.442,145.774c16.442-0.41,30.103,12.587,30.512,29.028c0.208,8.338-3.09,16.38-9.092,22.172
			c-5.712,5.636-13.396,8.822-21.42,8.882H45.985c-16.735,0-30.302-13.567-30.302-30.302l0,0c-0.055-8.047,3.149-15.774,8.882-21.42
			c5.765-5.492,13.459-8.495,21.42-8.359H382.442z"/>
		<path style="fill:#00EFD1;" d="M381.397,208.468v168.751c0,23.083-18.713,41.796-41.796,41.796H88.826
			c-23.083,0-41.796-18.713-41.796-41.796V205.855h334.367V208.468z"/>
	</g>
	<g>
		<path style="fill:#083863;" d="M423.193,176.076c0.002-22.218-18.008-40.23-40.225-40.232c-0.175,0-0.351,0.001-0.526,0.003
			h-21.943C357.121,59.212,293.53-0.91,216.826,0.01h-5.224C134.897-0.91,71.307,59.212,67.928,135.847H45.985
			c-10.761-0.337-21.175,3.829-28.735,11.494C9.629,154.757,5.3,164.92,5.234,175.553c0.024,18.776,13.034,35.038,31.347,39.184
			v162.482c-0.006,28.277,22.912,51.205,51.189,51.211c0.352,0,0.704-0.004,1.056-0.011h250.776
			c28.271,0.577,51.657-21.873,52.234-50.144c0.007-0.352,0.011-0.704,0.011-1.056V214.737c7.386-1.353,14.153-5.011,19.331-10.449
			C418.953,196.979,423.311,186.747,423.193,176.076z M211.601,20.908h5.224c64.558,0.629,117.896,50.562,122.776,114.939H88.826
			C93.706,71.47,147.043,21.538,211.601,20.908z M339.601,407.521H88.826c-16.725,0.577-30.752-12.514-31.329-29.239
			c-0.012-0.354-0.018-0.709-0.018-1.063V214.215h313.469v163.004c0.01,16.735-13.549,30.31-30.284,30.32
			C340.31,407.539,339.956,407.533,339.601,407.521z M396.548,188.615c-3.857,3.438-8.958,5.139-14.106,4.702H45.985
			c-10.371,0.577-19.247-7.363-19.824-17.734c-0.02-0.358-0.03-0.716-0.029-1.074c0.006-4.966,2.09-9.702,5.747-13.061
			c3.857-3.438,8.958-5.139,14.106-4.702h336.457c10.371-0.577,19.247,7.363,19.824,17.734c0.02,0.358,0.03,0.716,0.029,1.074
			C402.289,180.519,400.205,185.255,396.548,188.615z"/>
		<path style="fill:#083863;" d="M214.214,365.202c-5.771,0-10.449-4.678-10.449-10.449v-83.592c0-5.771,4.678-10.449,10.449-10.449
			c5.771,0,10.449,4.678,10.449,10.449v83.592C224.663,360.524,219.984,365.202,214.214,365.202z"/>
		<path style="fill:#083863;" d="M292.581,365.202c-5.771,0-10.449-4.678-10.449-10.449v-83.592c0-5.771,4.678-10.449,10.449-10.449
			s10.449,4.678,10.449,10.449v83.592C303.03,360.524,298.352,365.202,292.581,365.202z"/>
		<path style="fill:#083863;" d="M135.846,365.202c-5.771,0-10.449-4.678-10.449-10.449v-83.592c0-5.771,4.678-10.449,10.449-10.449
			c5.771,0,10.449,4.678,10.449,10.449v83.592C146.295,360.524,141.617,365.202,135.846,365.202z"/>
	</g>
</g>
<g>
</g>
<g>
</g>
<g>
</g>
<g>
</g>
<g>
</g>
<g>
</g>
<g>
</g>
<g>
</g>
<g>
</g>
<g>
</g>
<g>
</g>
<g>
</g>
<g>
</g>
<g>
</g>
<g>
</g>
</svg>
