<?xml version="1.0" encoding="iso-8859-1"?>
<!-- Generator: Adobe Illustrator 19.0.0, SVG Export Plug-In . SVG Version: 6.00 Build 0)  -->
<svg version="1.1" id="Capa_1" xmlns="http://www.w3.org/2000/svg" xmlns:xlink="http://www.w3.org/1999/xlink" x="0px" y="0px"
	 viewBox="0 0 449.306 449.306" style="enable-background:new 0 0 449.306 449.306;" xml:space="preserve">
<g>
	<g>
		<g>
			<polygon style="fill:#00ACEA;" points="411.69,355.265 411.69,438.857 356.31,438.857 350.041,438.857 350.041,355.265 
				356.31,355.265 			"/>
			<polygon style="fill:#00ACEA;" points="411.69,240.327 411.69,323.918 356.31,323.918 350.041,323.918 350.041,240.327 
				356.31,240.327 			"/>
			<polygon style="fill:#00ACEA;" points="411.69,125.388 411.69,208.98 356.31,208.98 350.041,208.98 350.041,125.388 
				356.31,125.388 			"/>
		</g>
		<path style="fill:#00EFD1;" d="M402.286,10.449v83.592h-52.245v344.816H110.237V10.449H402.286z M309.29,317.126V303.02
			c0.29-36.066-28.713-65.539-64.779-65.829c-0.35-0.003-0.699-0.003-1.049,0h-22.988c-36.066-0.29-65.539,28.713-65.829,64.779
			c-0.003,0.35-0.003,0.699,0,1.049v14.106H309.29z M276.376,166.139c0-24.526-19.882-44.408-44.408-44.408l0,0
			c-24.526,0-44.408,19.882-44.408,44.408s19.882,44.408,44.408,44.408C256.493,210.547,276.376,190.665,276.376,166.139z"/>
		<g>
			<path style="fill:#00ACEA;" d="M309.29,303.02v14.106H154.645V303.02c-0.29-36.066,28.713-65.539,64.779-65.829
				c0.35-0.003,0.699-0.003,1.049,0h22.988c36.066-0.29,65.539,28.713,65.829,64.78C309.293,302.321,309.293,302.671,309.29,303.02z
				"/>
			<path style="fill:#00ACEA;" d="M263.314,134.792c8.539,8.167,13.275,19.533,13.061,31.347c0,24.526-19.882,44.408-44.408,44.408
				c-24.526,0-44.408-19.882-44.408-44.408s19.882-44.408,44.408-44.408C243.782,121.517,255.147,126.253,263.314,134.792z"/>
			<polygon style="fill:#00ACEA;" points="110.237,433.633 110.237,438.857 36.571,438.857 36.571,10.449 110.237,10.449 
				110.237,15.673 			"/>
		</g>
	</g>
	<g>
		<path style="fill:#083863;" d="M412.212,219.429c5.861,0.007,10.692-4.595,10.971-10.449v-83.592
			c-0.279-5.854-5.11-10.456-10.971-10.449H360.49V104.49h41.796c5.771,0,10.449-4.678,10.449-10.449V10.449
			C412.735,4.678,408.057,0,402.286,0H36.571c-5.771,0-10.449,4.678-10.449,10.449v428.408c0,5.771,4.678,10.449,10.449,10.449
			h375.641c5.861,0.007,10.692-4.595,10.971-10.449v-83.592c-0.279-5.854-5.11-10.456-10.971-10.449H360.49v-10.449h51.722
			c5.861,0.007,10.692-4.595,10.971-10.449v-83.592c-0.279-5.854-5.11-10.456-10.971-10.449H360.49v-10.449H412.212z
			 M402.286,135.837v62.694H360.49v-62.694H402.286z M47.02,20.898h52.245v407.51H47.02V20.898z M402.286,365.714v62.694H360.49
			v-62.694H402.286z M402.286,250.776v62.694H360.49v-62.694H402.286z M350.041,83.592c-5.771,0-10.449,4.678-10.449,10.449v334.367
			H120.163V20.898h271.673v62.694H350.041z"/>
		<path style="fill:#083863;" d="M309.29,327.576H154.645c-5.771,0-10.449-4.678-10.449-10.449V303.02
			c0.285-42.008,34.269-75.993,76.278-76.278h22.465c42.212-0.001,76.513,34.066,76.8,76.278v14.106
			C319.739,322.897,315.061,327.576,309.29,327.576z M165.094,306.678h133.747v-3.657c-0.287-30.67-25.231-55.381-55.902-55.38
			h-22.465c-30.467,0.283-55.096,24.912-55.38,55.38V306.678z"/>
		<path style="fill:#083863;" d="M231.967,220.473c-30.094,0.001-54.571-24.242-54.857-54.335
			c-0.29-30.007,23.8-54.567,53.807-54.857c0.35-0.003,0.7-0.003,1.05,0c14.587,0.013,28.612,5.623,39.184,15.673
			c10.05,10.572,15.66,24.597,15.673,39.184c-0.04,14.427-5.656,28.279-15.673,38.661
			C260.702,215.041,246.596,220.683,231.967,220.473z M231.967,132.18c-8.977,0.153-17.564,3.7-24.033,9.927
			c-6.416,6.344-9.996,15.011-9.927,24.033c0.285,18.551,15.406,33.439,33.959,33.437c8.957,0.267,17.636-3.129,24.033-9.404
			c6.227-6.469,9.773-15.055,9.927-24.033C265.927,147.384,250.722,132.18,231.967,132.18z"/>
	</g>
</g>
<g>
</g>
<g>
</g>
<g>
</g>
<g>
</g>
<g>
</g>
<g>
</g>
<g>
</g>
<g>
</g>
<g>
</g>
<g>
</g>
<g>
</g>
<g>
</g>
<g>
</g>
<g>
</g>
<g>
</g>
</svg>
