<?xml version="1.0" encoding="iso-8859-1"?>
<!-- Generator: Adobe Illustrator 19.0.0, SVG Export Plug-In . SVG Version: 6.00 Build 0)  -->
<svg version="1.1" id="Capa_1" xmlns="http://www.w3.org/2000/svg" xmlns:xlink="http://www.w3.org/1999/xlink" x="0px" y="0px"
	 viewBox="0 0 426.397 426.397" style="enable-background:new 0 0 426.397 426.397;" xml:space="preserve">
<g>
	<g>
		<circle style="fill:#00ACEA;" cx="327.654" cy="297.312" r="88.294"/>
		<path style="fill:#00EFD1;" d="M295.262,41.312c2.885,0,5.224,2.339,5.224,5.224c0,1.13-0.367,2.23-1.045,3.135l-102.4,143.151
			c-4.708,6.152-7.277,13.674-7.314,21.42v139.494c0.377,2.275-0.95,4.487-3.135,5.225l-57.992,21.943
			c-2.644,1.155-5.724-0.053-6.879-2.698c-0.276-0.633-0.424-1.314-0.436-2.005V214.242c-0.037-7.747-2.606-15.269-7.314-21.42
			L11.572,49.671c-1.731-2.308-1.263-5.583,1.045-7.314c0.904-0.678,2.004-1.045,3.135-1.045H295.262z"/>
	</g>
	<g>
		<path style="fill:#083863;" d="M126.511,391.353c-3.175,0.196-6.318-0.728-8.882-2.612c-4.369-2.887-6.937-7.826-6.792-13.061
			V214.242c-0.228-5.613-2.04-11.046-5.224-15.673L3.213,55.418c-3.623-4.636-4.234-10.951-1.567-16.196
			c2.701-5.339,8.125-8.754,14.106-8.882h279.51c5.982,0.128,11.405,3.543,14.106,8.882c2.667,5.245,2.056,11.56-1.567,16.196
			l-102.4,143.151c-3.185,4.627-4.996,10.061-5.224,15.673v140.016c0.223,6.561-4.108,12.408-10.449,14.106l-57.469,21.943
			C130.48,391.195,128.487,391.558,126.511,391.353z M25.678,51.238l96.653,135.314c6.171,7.904,9.485,17.663,9.404,27.69v154.122
			l47.543-18.286V214.242c-0.081-10.027,3.233-19.786,9.404-27.69l96.653-135.314H25.678z"/>
		<path style="fill:#083863;" d="M327.654,396.055c-54.822,0.289-99.498-43.919-99.786-98.741
			c-0.289-54.822,43.92-99.498,98.742-99.786s99.498,43.92,99.786,98.741c0.001,0.174,0.001,0.347,0.001,0.521
			C426.397,351.409,382.272,395.767,327.654,396.055z M327.654,218.945c-43.28-0.288-78.599,34.565-78.886,77.845
			c-0.288,43.28,34.565,78.599,77.845,78.886s78.599-34.565,78.886-77.845c0.002-0.347,0.002-0.694,0-1.041
			C405.499,253.797,370.646,218.945,327.654,218.945L327.654,218.945z"/>
		<path style="fill:#083863;" d="M357.956,286.34h-19.331v-18.808c0-5.771-4.678-10.449-10.449-10.449
			c-5.771,0-10.449,4.678-10.449,10.449v18.808h-20.376c-5.771,0-10.449,4.678-10.449,10.449s4.678,10.449,10.449,10.449h20.376
			v20.376c0,5.771,4.678,10.449,10.449,10.449c5.771,0,10.449-4.678,10.449-10.449v-20.376h19.331
			c5.771,0,10.449-4.678,10.449-10.449S363.727,286.34,357.956,286.34z"/>
	</g>
</g>
<g>
</g>
<g>
</g>
<g>
</g>
<g>
</g>
<g>
</g>
<g>
</g>
<g>
</g>
<g>
</g>
<g>
</g>
<g>
</g>
<g>
</g>
<g>
</g>
<g>
</g>
<g>
</g>
<g>
</g>
</svg>
